SplineFontDB: 3.0
FontName: ShiShan
FullName: ShiShan
FamilyName: ShiShan
Weight: Book
Copyright: Copyright (c) 2012-2016 SIL International (http://www.sil.org), with Reserved Font Name "ShiShan". Some glyphs taken and modified from another OFL-licensed font: PollardTsu Copyright (c) 2000-2007 David Morse.
Version: 1.001
ItalicAngle: 0
UnderlinePosition: -50
UnderlineWidth: 40
Ascent: 1973
Descent: 75
InvalidEm: 0
LayerCount: 3
Layer: 0 1 "Back" 1
Layer: 1 1 "Fore" 0
Layer: 2 0 "Cubic" 0
XUID: [1021 875 1453303924 3985220]
FSType: 0
OS2Version: 3
OS2_WeightWidthSlopeOnly: 0
OS2_UseTypoMetrics: 1
CreationTime: 1394085817
ModificationTime: 1505083669
PfmFamily: 17
TTFWeight: 400
TTFWidth: 5
LineGap: 0
VLineGap: 0
Panose: 2 0 0 0 0 0 0 0 0 0
OS2TypoAscent: 2350
OS2TypoAOffset: 0
OS2TypoDescent: -450
OS2TypoDOffset: 0
OS2TypoLinegap: 0
OS2WinAscent: 2350
OS2WinAOffset: 0
OS2WinDescent: 450
OS2WinDOffset: 0
HheadAscent: 2350
HheadAOffset: 0
HheadDescent: -450
HheadDOffset: 0
OS2SubXSize: 1417
OS2SubYSize: 1315
OS2SubXOff: 0
OS2SubYOff: 283
OS2SupXSize: 1417
OS2SupYSize: 1315
OS2SupXOff: 0
OS2SupYOff: 965
OS2StrikeYSize: 101
OS2StrikeYPos: 506
OS2Vendor: 'SIL '
OS2CodePages: 00001e03.00000000
OS2UnicodeRanges: 00000003.12000000.04000000.00000000
Lookup: 1 0 0 "lpoStyle" { "lpoStyle-1"  } ['clig' ('DFLT' <'dflt' > 'latn' <'LPO ' > 'plrd' <'LPO ' > ) ]
Lookup: 1 0 0 "lpoUnStyle" { "lpoUnStyle-1"  } ['clig' ('DFLT' <'dflt' 'HMD ' 'HMDC' 'HMDD' 'HMDN' 'YCL ' 'YIG ' 'YWG ' > 'latn' <'dflt' 'HMD ' 'HMDC' 'HMDD' 'HMDN' 'YCL ' 'YIG ' 'YWG ' > 'plrd' <'dflt' 'HMD ' 'HMDC' 'HMDD' 'HMDN' 'YCL ' 'YIG ' 'YWG ' > ) ]
Lookup: 1 0 0 "hmdStyle" { "hmdStyle-1"  } ['clig' ('DFL'' <'dflt' > 'latn' <'HMD ' > 'plrd' <'HMD ' > ) ]
Lookup: 1 0 0 "hmdUnStyle" { "hmdUnStyle-1"  } ['clig' ('DFLT' <'dflt' 'LPO ' 'HMDC' 'HMDD' 'HMDN' 'YCL ' 'YIG ' 'YWG ' > 'latn' <'dflt' 'LPO ' 'HMDC' 'HMDD' 'HMDN' 'YCL ' 'YIG ' 'YWG ' > 'plrd' <'dflt' 'LPO ' 'HMDC' 'HMDD' 'HMDN' 'YCL ' 'YIG ' 'YWG ' > ) ]

StartChar: .notdef
Encoding: 137 -1 0
Width: 1108
VWidth: 2023
Flags: W
LayerCount: 3
Fore
SplineSet
886 1307 m 29,0,-1
 240 1308 l 25,1,-1
 243 158 l 25,2,-1
 886 161 l 25,3,-1
 886 1307 l 29,0,-1
1069 0 m 1,4,-1
 40 0 l 1,5,-1
 40 208 l 1,6,-1
 45 1482 l 1,7,-1
 858 1483 l 1,8,-1
 1069 1483 l 1,9,-1
 1069 0 l 1,4,-1
EndSplineSet
EndChar

StartChar: u16F2D.hmd
Encoding: 138 -1 1
Width: 1130
VWidth: 2023
GlyphClass: 2
Flags: W
LayerCount: 3
Fore
SplineSet
1070 359 m 1,0,1
 1040 -42 1040 -42 553 -41 c 0,2,3
 68 -40 68 -40 68 329 c 0,4,5
 68 723 68 723 379 704 c 0,6,7
 380 704 380 704 379 710 c 1,8,9
 68 789 68 789 68 1015 c 0,10,11
 68 1016 68 1016 68 1018 c 0,12,13
 68 1204 68 1204 264 1347 c 1,14,15
 717 1650 l 1,16,-1
 843 1473 l 1,17,18
 777 1433 777 1433 585 1314 c 0,19,20
 299 1137 299 1137 300 1018 c 1,21,22
 301 790 301 790 697 840 c 1,23,-1
 695 608 l 1,24,25
 274 608 274 608 273 330 c 0,26,-1
 273 330 l 0,27,28
 273 120 273 120 565 114 c 128,-1,29
 857 108 857 108 868 359 c 1,30,-1
 1070 359 l 1,0,1
EndSplineSet
EndChar

StartChar: u16F00
Encoding: 139 93952 3
Width: 1230
VWidth: 2023
GlyphClass: 2
Flags: W
AnchorPoint: "SP" 726 1356 basechar 0
AnchorPoint: "BL" 51 -607 basechar 0
AnchorPoint: "B" 246 -607 basechar 0
AnchorPoint: "AL" 459 1670 basechar 0
AnchorPoint: "A" 655 1720 basechar 0
AnchorPoint: "F" 1230 0 exit 0
AnchorPoint: "R" 1230 430 exit 0
AnchorPoint: "C" 1230 1518 exit 0
AnchorPoint: "S" 1230 1242 exit 0
LayerCount: 3
Fore
SplineSet
1129 0 m 1,0,-1
 101 0 l 1,1,-1
 101 208 l 1,2,-1
 919 208 l 1,3,-1
 919 1483 l 1,4,-1
 1129 1483 l 1,5,-1
 1129 0 l 1,0,-1
EndSplineSet
MultipleSubs2: "ConsToneB-1" u16F00 u16F92
MultipleSubs2: "ConsToneR-1" u16F00 u16F8F
MultipleSubs2: "ConsToneT-1" u16F00 u16F90
MultipleSubs2: "ConsToneA-1" u16F00 u16F91
EndChar

StartChar: u16F01
Encoding: 140 93953 4
Width: 1230
VWidth: 2023
GlyphClass: 2
Flags: W
AnchorPoint: "SP" 738 1356 basechar 0
AnchorPoint: "BL" 51 -607 basechar 0
AnchorPoint: "B" 246 -607 basechar 0
AnchorPoint: "AL" 459 1670 basechar 0
AnchorPoint: "A" 655 1720 basechar 0
AnchorPoint: "F" 1230 0 exit 0
AnchorPoint: "R" 1230 430 exit 0
AnchorPoint: "C" 1230 1518 exit 0
AnchorPoint: "S" 1230 1242 exit 0
LayerCount: 3
Back
SplineSet
950 589 m 1,0,1
 803 589 l 2,2,3
 721 589 721 589 675.5 637.5 c 128,-1,4
 630 686 630 686 630 769 c 128,-1,5
 630 852 630 852 675.5 900.5 c 128,-1,6
 721 949 721 949 803 949 c 2,7,-1
 950 949 l 1,8,-1
 950 1069 l 1,9,10
 785 1069 l 2,11,12
 666 1069 666 1069 588 985 c 128,-1,13
 510 901 510 901 510 769 c 128,-1,14
 510 637 510 637 588 553 c 128,-1,15
 666 469 666 469 785 469 c 2,16,-1
 950 469 l 1,17,18
 950 589 l 1,0,1
1129 0 m 1,19,-1
 101 0 l 1,20,-1
 101 208 l 1,21,-1
 919 208 l 1,22,-1
 919 1483 l 1,23,-1
 1129 1483 l 1,24,-1
 1129 0 l 1,19,-1
916 875 m 1,0,1
 907 875 907 875 836 874 c 0,2,3
 720 872 720 872 720 771 c 0,4,5
 720 656 720 656 829 656 c 0,6,7
 874 656 874 656 918 656 c 1,8,9
 916 723 916 723 916 875 c 1,0,1
1129 0 m 1,10,-1
 101 0 l 1,11,-1
 101 209 l 1,12,-1
 919 208 l 1,13,-1
 919 538 l 1,14,15
 584 540 584 540 583 763 c 0,16,-1
 583 765 l 0,17,18
 584 1009 584 1009 902 1009 c 0,19,20
 910 1009 910 1009 919 1009 c 1,21,-1
 919 1483 l 1,22,-1
 1129 1483 l 1,23,-1
 1129 0 l 1,10,-1
EndSplineSet
Fore
SplineSet
1129 0 m 1,0,-1
 101 0 l 1,1,-1
 101 208 l 1,2,-1
 919 208 l 1,3,-1
 919 469 l 1,4,-1
 785 469 l 2,5,6
 666 469 666 469 588 553 c 128,-1,7
 510 637 510 637 510 769 c 128,-1,8
 510 901 510 901 588 985 c 128,-1,9
 666 1069 666 1069 785 1069 c 2,10,-1
 919 1069 l 1,11,-1
 919 1483 l 1,12,-1
 1129 1483 l 1,13,-1
 1129 0 l 1,0,-1
919 589 m 1,14,-1
 919 949 l 1,15,-1
 803 949 l 2,16,17
 721 949 721 949 675.5 900.5 c 128,-1,18
 630 852 630 852 630 769 c 128,-1,19
 630 686 630 686 675.5 637.5 c 128,-1,20
 721 589 721 589 803 589 c 2,21,-1
 919 589 l 1,14,-1
EndSplineSet
Substitution2: "noWart-1" u16F01.nowart
Substitution2: "dotWart-1" u16F01.dot
MultipleSubs2: "ConsToneB-1" u16F01 u16F92
MultipleSubs2: "ConsToneR-1" u16F01 u16F8F
MultipleSubs2: "ConsToneT-1" u16F01 u16F90
MultipleSubs2: "ConsToneA-1" u16F01 u16F91
EndChar

StartChar: u16F02
Encoding: 141 93954 5
Width: 1259
VWidth: 2023
GlyphClass: 2
Flags: W
AnchorPoint: "SP" 619 1356 basechar 0
AnchorPoint: "BL" 51 -607 basechar 0
AnchorPoint: "B" 260 -607 basechar 0
AnchorPoint: "AL" 338 1670 basechar 0
AnchorPoint: "A" 548 1720 basechar 0
AnchorPoint: "F" 1259 0 exit 0
AnchorPoint: "R" 1123 430 exit 0
AnchorPoint: "C" 1123 1518 exit 0
AnchorPoint: "S" 1123 1242 exit 0
LayerCount: 3
Fore
SplineSet
1158 0 m 1,0,-1
 101 0 l 1,1,-1
 101 208 l 1,2,-1
 813 208 l 1,3,-1
 813 1483 l 1,4,-1
 1023 1483 l 5,5,-1
 1023 208 l 1,6,-1
 1158 209 l 1,7,-1
 1158 0 l 1,0,-1
EndSplineSet
MultipleSubs2: "ConsToneB-1" u16F02 u16F92
MultipleSubs2: "ConsToneR-1" u16F02 u16F8F
MultipleSubs2: "ConsToneT-1" u16F02 u16F90
MultipleSubs2: "ConsToneA-1" u16F02 u16F91
EndChar

StartChar: u16F03
Encoding: 142 93955 6
Width: 1238
VWidth: 2023
GlyphClass: 2
Flags: W
AnchorPoint: "SP" 700 1356 basechar 0
AnchorPoint: "BL" 51 -607 basechar 0
AnchorPoint: "B" 249 -607 basechar 0
AnchorPoint: "AL" 457 1670 basechar 0
AnchorPoint: "A" 656 1720 basechar 0
AnchorPoint: "F" 1238 0 exit 0
AnchorPoint: "R" 1238 430 exit 0
AnchorPoint: "C" 1238 1518 exit 0
AnchorPoint: "S" 1238 1242 exit 0
LayerCount: 3
Fore
SplineSet
1137 0 m 1,0,-1
 422 0 l 2,1,2
 392 0 392 0 357 9.5 c 128,-1,3
 322 19 322 19 286.5 36 c 128,-1,4
 251 53 251 53 218 76 c 128,-1,5
 185 99 185 99 160 127 c 128,-1,6
 135 155 135 155 119.5 187 c 128,-1,7
 104 219 104 219 104 252 c 0,8,9
 104 272 104 272 102.5 292 c 128,-1,10
 101 312 101 312 101 331 c 0,11,12
 101 373 101 373 109.5 414.5 c 128,-1,13
 118 456 118 456 134.5 492.5 c 128,-1,14
 151 529 151 529 175.5 560.5 c 128,-1,15
 200 592 200 592 232 614.5 c 128,-1,16
 264 637 264 637 303.5 650 c 128,-1,17
 343 663 343 663 389 663 c 0,18,19
 429 663 429 663 465 651 c 128,-1,20
 501 639 501 639 532.5 618.5 c 128,-1,21
 564 598 564 598 589.5 569.5 c 128,-1,22
 615 541 615 541 633 507.5 c 128,-1,23
 651 474 651 474 660.5 436.5 c 128,-1,24
 670 399 670 399 670 361 c 2,25,-1
 670 204 l 1,26,-1
 924 204 l 1,27,-1
 924 1483 l 1,28,-1
 1137 1483 l 5,29,-1
 1137 0 l 1,0,-1
515 317 m 0,30,31
 515 346 515 346 507 379.5 c 128,-1,32
 499 413 499 413 482 442.5 c 128,-1,33
 465 472 465 472 440 491 c 128,-1,34
 415 510 415 510 380 510 c 0,35,36
 350 510 350 510 325 496.5 c 128,-1,37
 300 483 300 483 281.5 461 c 128,-1,38
 263 439 263 439 252.5 411.5 c 128,-1,39
 242 384 242 384 242 356 c 0,40,41
 242 325 242 325 253 297.5 c 128,-1,42
 264 270 264 270 283 249 c 128,-1,43
 302 228 302 228 328.5 216 c 128,-1,44
 355 204 355 204 387 204 c 2,45,-1
 513 204 l 1,46,47
 514 232 514 232 514.5 260.5 c 128,-1,48
 515 289 515 289 515 317 c 0,30,31
EndSplineSet
MultipleSubs2: "ConsToneB-1" u16F03 u16F92
MultipleSubs2: "ConsToneR-1" u16F03 u16F8F
MultipleSubs2: "ConsToneT-1" u16F03 u16F90
MultipleSubs2: "ConsToneA-1" u16F03 u16F91
EndChar

StartChar: u16F04
Encoding: 143 93956 7
Width: 1062
VWidth: 2023
GlyphClass: 2
Flags: W
AnchorPoint: "BL" 51 -607 basechar 0
AnchorPoint: "B" 162 -607 basechar 0
AnchorPoint: "AL" 51 1670 basechar 0
AnchorPoint: "A" 162 1720 basechar 0
AnchorPoint: "F" 1062 0 exit 0
AnchorPoint: "R" 1062 430 exit 0
AnchorPoint: "C" 1062 1518 exit 0
AnchorPoint: "S" 1062 1242 exit 0
LayerCount: 3
Fore
SplineSet
183 237 m 5,0,1
 295 145 295 145 405 145 c 4,2,3
 777 147 777 147 777 712 c 4,4,5
 777 1229 777 1229 375 1278 c 4,6,7
 371 1279 371 1279 366 1279 c 4,8,9
 333 1279 333 1279 255 1256 c 6,10,-1
 160 1226 l 5,11,-1
 117 1426 l 5,12,13
 292 1482 292 1482 364 1481 c 4,14,-1
 366 1481 l 4,15,16
 961 1477 961 1477 961 719 c 4,17,-1
 961 717 l 4,18,19
 961 710 961 710 961 704 c 4,20,21
 961 -12 961 -12 415 -12 c 4,22,23
 401 -12 401 -12 402 -12 c 4,24,25
 388 -13 388 -13 373 -14 c 4,26,27
 286 -14 286 -14 172 38 c 4,28,-1
 101 69 l 5,29,-1
 183 237 l 5,0,1
EndSplineSet
MultipleSubs2: "ConsToneB-1" u16F04 u16F92
MultipleSubs2: "ConsToneR-1" u16F04 u16F8F
MultipleSubs2: "ConsToneT-1" u16F04 u16F90
MultipleSubs2: "ConsToneA-1" u16F04 u16F91
EndChar

StartChar: u16F05
Encoding: 144 93957 8
Width: 1062
VWidth: 2023
GlyphClass: 2
Flags: W
AnchorPoint: "BL" 51 -607 basechar 0
AnchorPoint: "B" 157 -607 basechar 0
AnchorPoint: "AL" 51 1670 basechar 0
AnchorPoint: "A" 157 1720 basechar 0
AnchorPoint: "F" 1053 0 exit 0
AnchorPoint: "R" 1053 430 exit 0
AnchorPoint: "C" 1053 1518 exit 0
AnchorPoint: "S" 1053 1242 exit 0
LayerCount: 3
Back
SplineSet
183 237 m 1,0,1
 270 175 270 175 393 176 c 0,2,3
 656 176 656 176 738 523 c 1,4,-1
 692 524 l 2,5,6
 457 529 457 529 457 692 c 0,7,-1
 457 693 l 0,8,9
 458 929 458 929 687 929 c 2,10,-1
 744 929 l 1,11,12
 666 1273 666 1273 392 1273 c 0,13,14
 309 1273 309 1273 209 1242 c 2,15,-1
 160 1226 l 1,16,-1
 117 1426 l 1,17,18
 292 1480 292 1480 367 1479 c 0,19,20
 898 1479 898 1479 952 719 c 1,21,22
 882 -11 882 -11 415 -12 c 0,23,24
 414 -12 414 -12 413 -12 c 0,25,26
 289 -12 289 -12 172 38 c 2,27,-1
 101 69 l 1,28,-1
 183 237 l 1,0,1
593 717 m 0,29,30
 593 628 593 628 755 628 c 2,31,-1
 764 628 l 1,32,33
 772 636 772 636 774 722 c 0,34,35
 774 725 774 725 774 729 c 0,36,37
 774 769 774 769 762 821 c 1,38,-1
 672 821 l 2,39,40
 593 820 593 820 593 717 c 0,29,30
EndSplineSet
Fore
SplineSet
183 237 m 1,0,1
 295 145 295 145 405 145 c 0,2,3
 664.143208131 146.393243054 664.143208131 146.393243054 742.761678841 421 c 1,4,-1
 645 421 l 2,5,6
 526 421 526 421 448 505 c 128,-1,7
 370 589 370 589 370 721 c 128,-1,8
 370 853 370 853 448 937 c 128,-1,9
 526 1021 526 1021 645 1021 c 2,10,-1
 725.966938253 1021 l 1,11,12
 633.768401453 1246.45857793 633.768401453 1246.45857793 375 1278 c 0,13,14
 371 1279 371 1279 366 1279 c 0,15,16
 333 1279 333 1279 255 1256 c 2,17,-1
 160 1226 l 1,18,-1
 117 1426 l 1,19,20
 292 1482 292 1482 364 1481 c 2,21,-1
 366 1481 l 1,22,23
 961 1477 961 1477 961 719 c 2,24,-1
 961 717 l 2,25,26
 961 710 961 710 961 704 c 0,27,28
 961 -12 961 -12 415 -12 c 2,29,-1
 402 -12 l 2,30,31
 388 -13 388 -13 373 -14 c 0,32,33
 286 -14 286 -14 172 38 c 2,34,-1
 101 69 l 1,35,-1
 183 237 l 1,0,1
766.888196424 541 m 1,36,37
 777 618.848191649 777 618.848191649 777 712 c 0,38,39
 777 815.962028742 777 815.962028742 760.744719854 901 c 1,40,-1
 663 901 l 2,41,42
 581 901 581 901 535.5 852.5 c 128,-1,43
 490 804 490 804 490 721 c 128,-1,44
 490 638 490 638 535.5 589.5 c 128,-1,45
 581 541 581 541 663 541 c 2,46,-1
 766.888196424 541 l 1,36,37
EndSplineSet
Substitution2: "noWart-1" u16F05.nowart
Substitution2: "dotWart-1" u16F05.dot
MultipleSubs2: "ConsToneB-1" u16F05 u16F92
MultipleSubs2: "ConsToneR-1" u16F05 u16F8F
MultipleSubs2: "ConsToneT-1" u16F05 u16F90
MultipleSubs2: "ConsToneA-1" u16F05 u16F91
EndChar

StartChar: u16F06
Encoding: 145 93958 9
Width: 1196
VWidth: 2023
GlyphClass: 2
Flags: W
AnchorPoint: "BL" 51 -607 basechar 0
AnchorPoint: "B" 229 -607 basechar 0
AnchorPoint: "AL" 51 1670 basechar 0
AnchorPoint: "A" 229 1720 basechar 0
AnchorPoint: "F" 1196 0 exit 0
AnchorPoint: "R" 1196 430 exit 0
AnchorPoint: "C" 1196 1518 exit 0
AnchorPoint: "S" 1196 1242 exit 0
LayerCount: 3
Fore
SplineSet
101 942 m 2,0,1
 101 1068 101 1068 131.5 1168.5 c 128,-1,2
 162 1269 162 1269 225 1339 c 128,-1,3
 288 1409 288 1409 384.5 1446 c 128,-1,4
 481 1483 481 1483 612 1483 c 0,5,6
 685 1483 685 1483 749.5 1463.5 c 128,-1,7
 814 1444 814 1444 867.5 1409.5 c 128,-1,8
 921 1375 921 1375 963.5 1326 c 128,-1,9
 1006 1277 1006 1277 1035 1219 c 128,-1,10
 1064 1161 1064 1161 1079.5 1095 c 128,-1,11
 1095 1029 1095 1029 1095 959 c 2,12,-1
 1095 -18 l 1,13,-1
 887 -18 l 1,14,-1
 887 940 l 2,15,16
 887 1005 887 1005 871.5 1064.5 c 128,-1,17
 856 1124 856 1124 823 1170.5 c 128,-1,18
 790 1217 790 1217 738.5 1244.5 c 128,-1,19
 687 1272 687 1272 614 1272 c 0,20,21
 535 1272 535 1272 477.5 1251 c 128,-1,22
 420 1230 420 1230 383.5 1189.5 c 128,-1,23
 347 1149 347 1149 329 1090 c 128,-1,24
 311 1031 311 1031 311 954 c 2,25,-1
 311 -18 l 1,26,-1
 101 -18 l 1,27,-1
 101 942 l 2,0,1
EndSplineSet
MultipleSubs2: "ConsToneB-1" u16F06 u16F92
MultipleSubs2: "ConsToneR-1" u16F06 u16F8F
MultipleSubs2: "ConsToneT-1" u16F06 u16F90
MultipleSubs2: "ConsToneA-1" u16F06 u16F91
EndChar

StartChar: u16F07
Encoding: 146 93959 10
Width: 1230
VWidth: 2023
GlyphClass: 2
Flags: W
AnchorPoint: "BL" 51 -607 basechar 0
AnchorPoint: "B" 246 -607 basechar 0
AnchorPoint: "AL" 51 1670 basechar 0
AnchorPoint: "A" 246 1720 basechar 0
AnchorPoint: "F" 496 0 exit 0
AnchorPoint: "R" 496 430 exit 0
AnchorPoint: "C" 1230 1518 exit 0
AnchorPoint: "S" 1230 1242 exit 0
LayerCount: 3
Fore
SplineSet
1129 1275 m 1,0,-1
 310 1275 l 1,1,-1
 310 0 l 1,2,-1
 101 0 l 1,3,-1
 101 1483 l 1,4,-1
 1129 1483 l 1,5,-1
 1129 1275 l 1,0,-1
EndSplineSet
MultipleSubs2: "ConsToneB-1" u16F07 u16F92
MultipleSubs2: "ConsToneR-1" u16F07 u16F8F
MultipleSubs2: "ConsToneT-1" u16F07 u16F90
MultipleSubs2: "ConsToneA-1" u16F07 u16F91
EndChar

StartChar: u16F08
Encoding: 147 93960 11
Width: 1349
VWidth: 2023
GlyphClass: 2
Flags: W
AnchorPoint: "BL" 51 -607 basechar 0
AnchorPoint: "B" 306 -607 basechar 0
AnchorPoint: "AL" 51 1670 basechar 0
AnchorPoint: "A" 306 1720 basechar 0
AnchorPoint: "F" 1012 0 exit 0
AnchorPoint: "R" 1214 430 exit 0
AnchorPoint: "C" 1350 1518 exit 0
AnchorPoint: "S" 1350 1242 exit 0
LayerCount: 3
Fore
SplineSet
1249 1483 m 5,0,-1
 786 0 l 5,1,-1
 560 0 l 5,2,-1
 101 1483 l 5,3,-1
 318 1483 l 5,4,-1
 658 318 l 5,5,-1
 697 318 l 5,6,-1
 1031 1483 l 5,7,-1
 1249 1483 l 5,0,-1
EndSplineSet
MultipleSubs2: "ConsToneB-1" u16F08 u16F92
MultipleSubs2: "ConsToneR-1" u16F08 u16F8F
MultipleSubs2: "ConsToneT-1" u16F08 u16F90
MultipleSubs2: "ConsToneA-1" u16F08 u16F91
EndChar

StartChar: u16F09
Encoding: 148 93961 12
Width: 1489
VWidth: 2023
GlyphClass: 2
Flags: W
AnchorPoint: "BL" 141 -607 basechar 0
AnchorPoint: "B" 429 -607 basechar 0
AnchorPoint: "AL" 141 1670 basechar 0
AnchorPoint: "A" 429 1720 basechar 0
AnchorPoint: "F" 1102 0 exit 0
AnchorPoint: "R" 1304 430 exit 0
AnchorPoint: "C" 1491 1518 exit 0
AnchorPoint: "S" 1491 1242 exit 0
LayerCount: 3
Back
SplineSet
1390 1483 m 1,0,-1
 927 0 l 1,1,-1
 701 0 l 1,2,-1
 527 564 l 1,3,-1
 398 564 l 2,4,5
 191 564 191 564 191 774 c 1,6,7
 200 979 200 979 391 979 c 2,8,-1
 398 979 l 1,9,-1
 242 1483 l 1,10,-1
 459 1483 l 1,11,-1
 799 318 l 1,12,-1
 838 318 l 1,13,-1
 1172 1483 l 1,14,-1
 1390 1483 l 1,0,-1
491 678 m 1,15,-1
 435 863 l 1,16,-1
 392 863 l 2,17,18
 308 863 308 863 308 773 c 0,19,20
 308 678 308 678 391 678 c 2,21,-1
 392 678 l 1,22,-1
 491 678 l 1,15,-1
EndSplineSet
Fore
SplineSet
1389 1483 m 1,0,-1
 926 0 l 1,1,-1
 700 0 l 1,2,-1
 554.531355361 470 l 1,3,-1
 375 470 l 2,4,5
 256 470 256 470 178 554 c 128,-1,6
 100 638 100 638 100 770 c 128,-1,7
 100 902 100 902 178 986 c 0,8,9
 253.973499931 1067.81761531 253.973499931 1067.81761531 368.84425173 1069.94329997 c 1,10,-1
 241 1483 l 1,11,-1
 458 1483 l 1,12,-1
 798 318 l 1,13,-1
 837 318 l 1,14,-1
 1171 1483 l 1,15,-1
 1389 1483 l 1,0,-1
517.390424815 590 m 1,16,-1
 405.967633176 950 l 1,17,-1
 393 950 l 2,18,19
 311 950 311 950 265.5 901.5 c 128,-1,20
 220 853 220 853 220 770 c 128,-1,21
 220 687 220 687 265.5 638.5 c 128,-1,22
 311 590 311 590 393 590 c 2,23,-1
 517.390424815 590 l 1,16,-1
EndSplineSet
Substitution2: "noWart-1" u16F09.nowart
Substitution2: "dotWart-1" u16F09.dot
MultipleSubs2: "ConsToneB-1" u16F09 u16F92
MultipleSubs2: "ConsToneR-1" u16F09 u16F8F
MultipleSubs2: "ConsToneT-1" u16F09 u16F90
MultipleSubs2: "ConsToneA-1" u16F09 u16F91
EndChar

StartChar: u16F0A
Encoding: 149 93962 13
Width: 1366
VWidth: 2023
GlyphClass: 2
Flags: W
AnchorPoint: "BL" 51 -607 basechar 0
AnchorPoint: "B" 314 -607 basechar 0
AnchorPoint: "AL" 51 1670 basechar 0
AnchorPoint: "A" 314 1720 basechar 0
AnchorPoint: "F" 885 0 exit 0
AnchorPoint: "R" 885 430 exit 0
AnchorPoint: "C" 1366 1518 exit 0
AnchorPoint: "S" 1366 1242 exit 0
LayerCount: 3
Fore
SplineSet
1265 1277 m 5,0,-1
 783 1277 l 5,1,-1
 783 0 l 5,2,-1
 570 0 l 5,3,-1
 570 1277 l 5,4,-1
 101 1277 l 5,5,-1
 101 1483 l 5,6,-1
 1265 1483 l 5,7,-1
 1265 1277 l 5,0,-1
EndSplineSet
MultipleSubs2: "ConsToneB-1" u16F0A u16F92
MultipleSubs2: "ConsToneR-1" u16F0A u16F8F
MultipleSubs2: "ConsToneT-1" u16F0A u16F90
MultipleSubs2: "ConsToneA-1" u16F0A u16F91
EndChar

StartChar: u16F0B
Encoding: 150 93963 14
Width: 1366
VWidth: 2023
GlyphClass: 2
Flags: W
AnchorPoint: "BL" 51 -607 basechar 0
AnchorPoint: "B" 314 -607 basechar 0
AnchorPoint: "AL" 51 1670 basechar 0
AnchorPoint: "A" 314 1720 basechar 0
AnchorPoint: "F" 885 0 exit 0
AnchorPoint: "R" 885 430 exit 0
AnchorPoint: "C" 1366 1518 exit 0
AnchorPoint: "S" 1366 1242 exit 0
LayerCount: 3
Back
SplineSet
1265 1277 m 1,0,-1
 783 1277 l 1,1,-1
 783 0 l 1,2,-1
 570 0 l 1,3,-1
 570 595 l 1,4,-1
 530 595 l 2,5,6
 323 595 323 595 323 805 c 1,7,8
 332 1010 332 1010 522 1010 c 2,9,-1
 570 1010 l 1,10,-1
 570 1277 l 1,11,-1
 101 1277 l 1,12,-1
 101 1483 l 1,13,-1
 1265 1483 l 1,14,-1
 1265 1277 l 1,0,-1
570 709 m 1,15,-1
 570 893 l 1,16,-1
 524 893 l 2,17,18
 440 893 440 893 440 804 c 0,19,20
 440 709 440 709 523 709 c 2,21,-1
 523 709 l 1,22,-1
 570 709 l 1,15,-1
EndSplineSet
Fore
SplineSet
1265 1277 m 1,0,-1
 783 1277 l 1,1,-1
 783 0 l 1,2,-1
 570 0 l 1,3,-1
 570 500 l 1,4,-1
 505 500 l 2,5,6
 386 500 386 500 308 584 c 128,-1,7
 230 668 230 668 230 800 c 128,-1,8
 230 932 230 932 308 1016 c 128,-1,9
 386 1100 386 1100 505 1100 c 2,10,-1
 570 1100 l 1,11,-1
 570 1277 l 1,12,-1
 101 1277 l 1,13,-1
 101 1483 l 1,14,-1
 1265 1483 l 1,15,-1
 1265 1277 l 1,0,-1
570 620 m 1,16,-1
 570 980 l 1,17,-1
 523 980 l 2,18,19
 441 980 441 980 395.5 931.5 c 128,-1,20
 350 883 350 883 350 800 c 128,-1,21
 350 717 350 717 395.5 668.5 c 128,-1,22
 441 620 441 620 523 620 c 2,23,-1
 570 620 l 1,16,-1
EndSplineSet
MultipleSubs2: "ConsToneB-1" u16F0B u16F92
MultipleSubs2: "ConsToneR-1" u16F0B u16F8F
MultipleSubs2: "ConsToneT-1" u16F0B u16F90
MultipleSubs2: "ConsToneA-1" u16F0B u16F91
EndChar

StartChar: u16F0D
Encoding: 151 93965 15
Width: 1384
VWidth: 2023
GlyphClass: 2
Flags: W
AnchorPoint: "BL" 51 -607 basechar 0
AnchorPoint: "B" 323 -607 basechar 0
AnchorPoint: "AL" 51 1670 basechar 0
AnchorPoint: "A" 323 1720 basechar 0
AnchorPoint: "F" 1138 0 exit 0
AnchorPoint: "R" 885 430 exit 0
AnchorPoint: "C" 1384 1518 exit 0
AnchorPoint: "S" 1384 1242 exit 0
LayerCount: 3
Fore
SplineSet
1283 1281 m 1,0,-1
 809 1281 l 1,1,-1
 809 198 l 1,2,-1
 1046 198 l 1,3,-1
 1046 0 l 1,4,-1
 338 0 l 1,5,-1
 338 198 l 1,6,-1
 594 198 l 1,7,-1
 594 1281 l 1,8,-1
 101 1281 l 1,9,-1
 101 1483 l 1,10,-1
 1283 1483 l 1,11,-1
 1283 1281 l 1,0,-1
EndSplineSet
MultipleSubs2: "ConsToneB-1" u16F0D u16F92
MultipleSubs2: "ConsToneR-1" u16F0D u16F8F
MultipleSubs2: "ConsToneT-1" u16F0D u16F90
MultipleSubs2: "ConsToneA-1" u16F0D u16F91
EndChar

StartChar: u16F0E
Encoding: 152 93966 16
Width: 1386
VWidth: 2023
GlyphClass: 2
Flags: W
AnchorPoint: "BL" 51 -607 basechar 0
AnchorPoint: "B" 373 -607 basechar 0
AnchorPoint: "AL" 51 1670 basechar 0
AnchorPoint: "A" 373 1720 basechar 0
AnchorPoint: "F" 1331 0 exit 0
AnchorPoint: "R" 949 430 exit 0
AnchorPoint: "C" 1386 1518 exit 0
AnchorPoint: "S" 1386 1242 exit 0
LayerCount: 3
Fore
SplineSet
1285 1275 m 5,0,-1
 848 1275 l 5,1,-1
 848 182 l 5,2,-1
 1229 182 l 5,3,-1
 1229 0 l 5,4,-1
 637 0 l 5,5,-1
 637 1275 l 5,6,-1
 101 1275 l 5,7,-1
 101 1483 l 5,8,-1
 1285 1483 l 5,9,-1
 1285 1275 l 5,0,-1
EndSplineSet
MultipleSubs2: "ConsToneB-1" u16F0E u16F92
MultipleSubs2: "ConsToneR-1" u16F0E u16F8F
MultipleSubs2: "ConsToneT-1" u16F0E u16F90
MultipleSubs2: "ConsToneA-1" u16F0E u16F91
EndChar

StartChar: u16F0F
Encoding: 153 93967 17
Width: 1386
VWidth: 2023
GlyphClass: 2
Flags: W
AnchorPoint: "BL" 51 -607 basechar 0
AnchorPoint: "B" 324 -607 basechar 0
AnchorPoint: "AL" 51 1670 basechar 0
AnchorPoint: "A" 324 1720 basechar 0
AnchorPoint: "F" 1331 0 exit 0
AnchorPoint: "R" 951 430 exit 0
AnchorPoint: "C" 1386 1518 exit 0
AnchorPoint: "S" 1386 1242 exit 0
LayerCount: 3
Back
SplineSet
1285 1275 m 1,0,-1
 848 1275 l 1,1,-1
 848 182 l 1,2,-1
 1229 182 l 1,3,-1
 1229 0 l 1,4,-1
 637 0 l 1,5,-1
 637 574 l 1,6,-1
 574 574 l 2,7,8
 367 574 367 574 367 784 c 1,9,10
 376 989 376 989 566 989 c 2,11,-1
 637 989 l 1,12,-1
 637 1275 l 1,13,-1
 101 1275 l 1,14,-1
 101 1483 l 1,15,-1
 1285 1483 l 1,16,-1
 1285 1275 l 1,0,-1
637 688 m 1,17,-1
 637 873 l 1,18,-1
 568 873 l 2,19,20
 484 873 484 873 484 783 c 0,21,22
 484 688 484 688 567 688 c 2,23,-1
 567 688 l 1,24,-1
 637 688 l 1,17,-1
EndSplineSet
Fore
SplineSet
1285 1483 m 1,0,-1
 1285 1275 l 1025,1,-1
1285 1275 m 1,2,-1
 848 1275 l 1,3,-1
 848 182 l 1,4,-1
 1229 182 l 1,5,-1
 1229 0 l 1,6,-1
 637 0 l 1,7,-1
 637 480 l 1,8,-1
 545 480 l 2,9,10
 426 480 426 480 348 564 c 128,-1,11
 270 648 270 648 270 780 c 128,-1,12
 270 912 270 912 348 996 c 128,-1,13
 426 1080 426 1080 545 1080 c 2,14,-1
 637 1080 l 1,15,-1
 637 1275 l 1,16,-1
 101 1275 l 1,17,-1
 101 1483 l 1,18,-1
 1285 1483 l 1,19,-1
 1285 1275 l 1,2,-1
637 600 m 1,20,-1
 637 960 l 1,21,-1
 563 960 l 2,22,23
 481 960 481 960 435.5 911.5 c 128,-1,24
 390 863 390 863 390 780 c 128,-1,25
 390 697 390 697 435.5 648.5 c 128,-1,26
 481 600 481 600 563 600 c 2,27,-1
 637 600 l 1,20,-1
EndSplineSet
Substitution2: "noWart-1" u16F0F.nowart
Substitution2: "dotWart-1" u16F0F.dot
MultipleSubs2: "ConsToneB-1" u16F0F u16F92
MultipleSubs2: "ConsToneR-1" u16F0F u16F8F
MultipleSubs2: "ConsToneT-1" u16F0F u16F90
MultipleSubs2: "ConsToneA-1" u16F0F u16F91
EndChar

StartChar: u16F10
Encoding: 154 93968 18
Width: 1145
VWidth: 2023
GlyphClass: 2
Flags: W
AnchorPoint: "SP" 147 1356 basechar 0
AnchorPoint: "BL" 51 -607 basechar 0
AnchorPoint: "B" 304 -607 basechar 0
AnchorPoint: "AL" 51 1670 basechar 0
AnchorPoint: "A" 304 1720 basechar 0
AnchorPoint: "F" 1145 0 exit 0
AnchorPoint: "R" 579 430 exit 0
AnchorPoint: "C" 1145 1518 exit 0
AnchorPoint: "S" 1145 1242 exit 0
LayerCount: 3
Fore
SplineSet
1044 56 m 5,0,1
 1007 41 1007 41 968.5 28.5 c 132,-1,2
 930 16 930 16 891 6.5 c 132,-1,3
 852 -3 852 -3 813 -8 c 4,4,5
 779 -12 779 -12 710 -13 c 4,6,7
 697 -13 697 -13 683 -13 c 5,8,9
 575 -13 575 -13 490 15 c 132,-1,10
 405 43 405 43 340.5 92.5 c 132,-1,11
 276 142 276 142 230.5 210.5 c 132,-1,12
 185 279 185 279 156 360 c 132,-1,13
 127 441 127 441 114 532 c 132,-1,14
 101 623 101 623 101 718 c 4,15,16
 101 794 101 794 106.5 867.5 c 132,-1,17
 112 941 112 941 126.5 1010 c 132,-1,18
 141 1079 141 1079 166 1141.5 c 132,-1,19
 191 1204 191 1204 231.5 1258.5 c 132,-1,20
 272 1313 272 1313 328.5 1358.5 c 132,-1,21
 385 1404 385 1404 462 1438 c 4,22,23
 515 1461 515 1461 571 1471 c 4,24,25
 622 1480 622 1480 737 1480 c 4,26,27
 749 1480 749 1480 761 1480 c 4,28,29
 799 1480 799 1480 836.5 1473 c 132,-1,30
 874 1466 874 1466 909 1456 c 132,-1,31
 944 1446 944 1446 973.5 1430.5 c 132,-1,32
 1003 1415 1003 1415 1033 1401 c 5,33,-1
 970 1216 l 5,34,35
 960 1220 960 1220 943 1226 c 132,-1,36
 926 1232 926 1232 907 1240.5 c 132,-1,37
 888 1249 888 1249 864 1259 c 132,-1,38
 840 1269 840 1269 823 1275 c 132,-1,39
 806 1281 806 1281 786 1280 c 132,-1,40
 766 1279 766 1279 756 1279 c 4,41,42
 747 1279 747 1279 739 1280 c 4,43,44
 619 1280 619 1280 575 1266 c 4,45,46
 528 1252 528 1252 491 1226.5 c 132,-1,47
 454 1201 454 1201 426 1166 c 132,-1,48
 398 1131 398 1131 378 1089.5 c 132,-1,49
 358 1048 358 1048 344 1001.5 c 132,-1,50
 330 955 330 955 322 906.5 c 132,-1,51
 314 858 314 858 311 808.5 c 132,-1,52
 308 759 308 759 308 713 c 4,53,54
 308 652 308 652 314 589.5 c 132,-1,55
 320 527 320 527 335 469 c 132,-1,56
 350 411 350 411 376.5 361 c 132,-1,57
 403 311 403 311 443.5 273.5 c 132,-1,58
 484 236 484 236 540.5 214.5 c 132,-1,59
 597 193 597 193 673 193 c 4,60,61
 702 193 702 193 758.5 197 c 132,-1,62
 815 201 815 201 847 209.5 c 132,-1,63
 879 218 879 218 908.5 229.5 c 132,-1,64
 938 241 938 241 964 255 c 5,65,-1
 1044 56 l 5,0,1
EndSplineSet
MultipleSubs2: "ConsToneB-1" u16F10 u16F92
MultipleSubs2: "ConsToneR-1" u16F10 u16F8F
MultipleSubs2: "ConsToneT-1" u16F10 u16F90
MultipleSubs2: "ConsToneA-1" u16F10 u16F91
EndChar

StartChar: u16F11
Encoding: 155 93969 19
Width: 1485
VWidth: 2023
GlyphClass: 2
Flags: W
AnchorPoint: "SP" 520 1356 basechar 0
AnchorPoint: "BL" 141 -607 basechar 0
AnchorPoint: "B" 682 -607 basechar 0
AnchorPoint: "AL" 141 1670 basechar 0
AnchorPoint: "A" 682 1720 basechar 0
AnchorPoint: "F" 1487 0 exit 0
AnchorPoint: "R" 880 430 exit 0
AnchorPoint: "C" 1487 1518 exit 0
AnchorPoint: "S" 1487 1242 exit 0
LayerCount: 3
Back
SplineSet
1386 56 m 1,0,1
 1349 41 1349 41 1310 29 c 0,2,3
 1272 16 1272 16 1233 6.5 c 128,-1,4
 1194 -3 1194 -3 1154 -8 c 0,5,6
 1120 -13 1120 -13 1051 -13 c 0,7,8
 1038 -13 1038 -13 1025 -13 c 1,9,10
 917 -13 917 -13 832 15 c 128,-1,11
 747 43 747 43 682.5 92.5 c 128,-1,12
 618 142 618 142 572 210 c 0,13,14
 526 279 526 279 498 360 c 0,15,16
 473 430 473 430 460 509 c 1,17,-1
 398 509 l 2,18,19
 191 509 191 509 191 719 c 1,20,21
 200 924 200 924 391 924 c 2,22,-1
 454 924 l 1,23,24
 460 968 460 968 468 1010 c 0,25,26
 482 1080 482 1080 508 1141 c 0,27,28
 533 1203 533 1203 574 1259 c 0,29,30
 614 1314 614 1314 670 1359 c 128,-1,32
 726 1404 726 1404 804 1438 c 0,33,34
 856 1461 856 1461 913 1471 c 0,35,36
 964 1480 964 1480 1103 1480 c 0,37,38
 1141 1480 1141 1480 1178.5 1473 c 128,-1,39
 1216 1466 1216 1466 1251 1456 c 128,-1,40
 1286 1446 1286 1446 1315.5 1430.5 c 128,-1,41
 1345 1415 1345 1415 1375 1401 c 1,42,-1
 1312 1216 l 1,43,-1
 1285 1226 l 2,44,45
 1268 1232 1268 1232 1249 1240.5 c 128,-1,46
 1230 1249 1230 1249 1206 1259 c 128,-1,47
 1182 1269 1182 1269 1165 1275 c 128,-1,48
 1148 1281 1148 1281 1128 1280 c 128,-1,49
 1108 1279 1108 1279 1098 1279 c 0,50,51
 960 1279 960 1279 917 1266 c 0,52,53
 870 1252 870 1252 833 1226.5 c 128,-1,54
 796 1201 796 1201 768 1166 c 128,-1,55
 740 1131 740 1131 720 1089.5 c 128,-1,56
 700 1048 700 1048 686 1001.5 c 128,-1,57
 672 955 672 955 664 906.5 c 128,-1,58
 656 858 656 858 653 808.5 c 128,-1,59
 650 759 650 759 650 713 c 0,60,61
 650 652 650 652 656 589.5 c 128,-1,62
 662 527 662 527 677 469 c 128,-1,63
 692 411 692 411 718.5 361 c 128,-1,64
 745 311 745 311 785.5 273.5 c 128,-1,65
 826 236 826 236 882.5 214.5 c 128,-1,66
 939 193 939 193 1015 193 c 0,67,68
 1044 193 1044 193 1100.5 197 c 128,-1,69
 1157 201 1157 201 1189 209.5 c 128,-1,70
 1221 218 1221 218 1250.5 229.5 c 128,-1,71
 1280 241 1280 241 1306 255 c 1,72,-1
 1386 56 l 1,0,1
447 623 m 1,73,74
 443 670 443 670 443 718 c 0,75,76
 443 763 443 763 445 807 c 1,77,-1
 392 807 l 2,78,79
 308 807 308 807 308 718 c 0,80,81
 308 623 308 623 391 623 c 2,82,-1
 392 623 l 1,83,-1
 447 623 l 1,73,74
EndSplineSet
Fore
SplineSet
1384 56 m 1,0,1
 1347 41 1347 41 1308.5 28.5 c 128,-1,2
 1270 16 1270 16 1231 6.5 c 128,-1,3
 1192 -3 1192 -3 1153 -8 c 0,4,5
 1119 -12 1119 -12 1050 -13 c 0,6,7
 1037 -13 1037 -13 1023 -13 c 0,8,9
 915 -13 915 -13 830 15 c 128,-1,10
 745 43 745 43 680.5 92.5 c 128,-1,11
 616 142 616 142 570.5 210.5 c 128,-1,12
 525 279 525 279 496 360 c 0,13,14
 486.008789062 387.90625 486.008789062 387.90625 477.916992188 417 c 1,15,-1
 375 417 l 2,16,17
 256 417 256 417 178 501 c 128,-1,18
 100 585 100 585 100 717 c 128,-1,19
 100 849 100 849 178 933 c 128,-1,20
 256 1017 256 1017 375 1017 c 2,21,-1
 468.001953125 1017 l 1,22,23
 482.271484375 1082.17773438 482.271484375 1082.17773438 506 1141.5 c 0,24,25
 531 1204 531 1204 571.5 1258.5 c 128,-1,26
 612 1313 612 1313 668.5 1358.5 c 128,-1,27
 725 1404 725 1404 802 1438 c 0,28,29
 855 1461 855 1461 911 1471 c 0,30,31
 962 1480 962 1480 1077 1480 c 0,32,33
 1089 1480 1089 1480 1101 1480 c 0,34,35
 1139 1480 1139 1480 1176.5 1473 c 128,-1,36
 1214 1466 1214 1466 1249 1456 c 128,-1,37
 1284 1446 1284 1446 1313.5 1430.5 c 128,-1,38
 1343 1415 1343 1415 1373 1401 c 1,39,-1
 1310 1216 l 1,40,41
 1300 1220 1300 1220 1283 1226 c 128,-1,42
 1266 1232 1266 1232 1247 1240.5 c 128,-1,43
 1228 1249 1228 1249 1204 1259 c 128,-1,44
 1180 1269 1180 1269 1163 1275 c 128,-1,45
 1146 1281 1146 1281 1126 1280 c 128,-1,46
 1106 1279 1106 1279 1096 1279 c 0,47,48
 1087 1279 1087 1279 1079 1280 c 0,49,50
 959 1280 959 1280 915 1266 c 0,51,52
 868 1252 868 1252 831 1226.5 c 128,-1,53
 794 1201 794 1201 766 1166 c 128,-1,54
 738 1131 738 1131 718 1089.5 c 128,-1,55
 698 1048 698 1048 684 1001.5 c 128,-1,56
 670 955 670 955 662 906.5 c 128,-1,57
 654 858 654 858 651 808.5 c 128,-1,58
 648 759 648 759 648 713 c 0,59,60
 648 652 648 652 654 589.5 c 128,-1,61
 660 527 660 527 675 469 c 128,-1,62
 690 411 690 411 716.5 361 c 128,-1,63
 743 311 743 311 783.5 273.5 c 128,-1,64
 824 236 824 236 880.5 214.5 c 128,-1,65
 937 193 937 193 1013 193 c 0,66,67
 1042 193 1042 193 1098.5 197 c 128,-1,68
 1155 201 1155 201 1187 209.5 c 128,-1,69
 1219 218 1219 218 1248.5 229.5 c 128,-1,70
 1278 241 1278 241 1304 255 c 1,71,-1
 1384 56 l 1,0,1
453.295898438 537 m 1,72,73
 441 625.608398438 441 625.608398438 441 718 c 0,74,75
 441 794 441 794 446.5 867.5 c 0,76,77
 447.610351562 882.341796875 447.610351562 882.341796875 449.087890625 897 c 1,78,-1
 393 897 l 2,79,80
 311 897 311 897 265.5 848.5 c 128,-1,81
 220 800 220 800 220 717 c 128,-1,82
 220 634 220 634 265.5 585.5 c 128,-1,83
 311 537 311 537 393 537 c 2,84,-1
 453.295898438 537 l 1,72,73
EndSplineSet
Substitution2: "noWart-1" u16F11.nowart
Substitution2: "dotWart-1" u16F11.dot
MultipleSubs2: "ConsToneB-1" u16F11 u16F92
MultipleSubs2: "ConsToneR-1" u16F11 u16F8F
MultipleSubs2: "ConsToneT-1" u16F11 u16F90
MultipleSubs2: "ConsToneA-1" u16F11 u16F91
EndChar

StartChar: u16F13
Encoding: 156 93971 20
Width: 1196
VWidth: 2023
GlyphClass: 2
Flags: W
AnchorPoint: "BL" 51 -607 basechar 0
AnchorPoint: "B" 229 -607 basechar 0
AnchorPoint: "AL" 51 1670 basechar 0
AnchorPoint: "A" 229 1720 basechar 0
AnchorPoint: "F" 1196 0 exit 0
AnchorPoint: "R" 1196 430 exit 0
AnchorPoint: "C" 1196 1518 exit 0
AnchorPoint: "S" 1196 1242 exit 0
LayerCount: 3
Fore
SplineSet
1095 524 m 6,0,1
 1095 398 1095 398 1064.5 297 c 132,-1,2
 1034 196 1034 196 971 126 c 132,-1,3
 908 56 908 56 811.5 19 c 132,-1,4
 715 -18 715 -18 584 -18 c 4,5,6
 511 -18 511 -18 446.5 1.5 c 132,-1,7
 382 21 382 21 328.5 56 c 132,-1,8
 275 91 275 91 232.5 139.5 c 132,-1,9
 190 188 190 188 161 246.5 c 132,-1,10
 132 305 132 305 116.5 371 c 132,-1,11
 101 437 101 437 101 506 c 6,12,-1
 101 1483 l 5,13,-1
 309 1483 l 5,14,-1
 309 526 l 6,15,16
 309 461 309 461 324.5 401 c 132,-1,17
 340 341 340 341 373 294.5 c 132,-1,18
 406 248 406 248 457.5 220.5 c 132,-1,19
 509 193 509 193 582 193 c 4,20,21
 661 193 661 193 718.5 214 c 132,-1,22
 776 235 776 235 812.5 275.5 c 132,-1,23
 849 316 849 316 867 375.5 c 132,-1,24
 885 435 885 435 885 511 c 6,25,-1
 885 1483 l 5,26,-1
 1095 1483 l 5,27,-1
 1095 524 l 6,0,1
EndSplineSet
MultipleSubs2: "ConsToneB-1" u16F13 u16F92
MultipleSubs2: "ConsToneR-1" u16F13 u16F8F
MultipleSubs2: "ConsToneT-1" u16F13 u16F90
MultipleSubs2: "ConsToneA-1" u16F13 u16F91
EndChar

StartChar: u16F14
Encoding: 157 93972 21
Width: 1317
VWidth: 2023
GlyphClass: 2
Flags: W
AnchorPoint: "BL" 51 -607 basechar 0
AnchorPoint: "B" 289 -607 basechar 0
AnchorPoint: "AL" 51 1670 basechar 0
AnchorPoint: "A" 289 1720 basechar 0
AnchorPoint: "F" 1317 0 exit 0
AnchorPoint: "R" 1317 430 exit 0
AnchorPoint: "C" 1317 1518 exit 0
AnchorPoint: "S" 1317 1242 exit 0
LayerCount: 3
Fore
SplineSet
1216 1104 m 6,0,1
 1216 1066 1216 1066 1206 1028.5 c 132,-1,2
 1196 991 1196 991 1177 957 c 132,-1,3
 1158 923 1158 923 1131.5 894.5 c 132,-1,4
 1105 866 1105 866 1073 844.5 c 132,-1,5
 1041 823 1041 823 1004 811 c 132,-1,6
 967 799 967 799 928 799 c 4,7,8
 864 799 864 799 806.5 822 c 132,-1,9
 749 845 749 845 706 886 c 132,-1,10
 663 927 663 927 638 983 c 132,-1,11
 613 1039 613 1039 613 1104 c 6,12,-1
 613 1286 l 5,13,-1
 542 1286 l 6,14,15
 487 1286 487 1286 449 1275.5 c 132,-1,16
 411 1265 411 1265 385.5 1245.5 c 132,-1,17
 360 1226 360 1226 345.5 1198.5 c 132,-1,18
 331 1171 331 1171 323.5 1136.5 c 132,-1,19
 316 1102 316 1102 314 1061.5 c 132,-1,20
 312 1021 312 1021 312 976 c 6,21,-1
 312 524 l 6,22,23
 312 494 312 494 317.5 462.5 c 132,-1,24
 323 431 323 431 333 400.5 c 132,-1,25
 343 370 343 370 357.5 342 c 132,-1,26
 372 314 372 314 391 289 c 4,27,28
 413 260 413 260 443.5 244 c 132,-1,29
 474 228 474 228 508 220 c 132,-1,30
 542 212 542 212 577.5 210 c 132,-1,31
 613 208 613 208 646 208 c 6,32,-1
 1105 208 l 6,33,34
 1126 208 1126 208 1143.5 195.5 c 132,-1,35
 1161 183 1161 183 1172.5 164 c 132,-1,36
 1184 145 1184 145 1190.5 123.5 c 132,-1,37
 1197 102 1197 102 1197 84 c 4,38,39
 1197 64 1197 64 1188.5 48.5 c 132,-1,40
 1180 33 1180 33 1167 22.5 c 132,-1,41
 1154 12 1154 12 1136.5 6 c 132,-1,42
 1119 0 1119 0 1101 0 c 6,43,-1
 607 0 l 6,44,45
 544 0 544 0 481.5 16 c 132,-1,46
 419 32 419 32 363 62.5 c 132,-1,47
 307 93 307 93 259 135 c 132,-1,48
 211 177 211 177 176 229 c 132,-1,49
 141 281 141 281 121 341.5 c 132,-1,50
 101 402 101 402 101 467 c 6,51,-1
 101 991 l 6,52,53
 101 1058 101 1058 109.5 1120.5 c 132,-1,54
 118 1183 118 1183 137 1238 c 132,-1,55
 156 1293 156 1293 186.5 1338.5 c 132,-1,56
 217 1384 217 1384 261.5 1416.5 c 132,-1,57
 306 1449 306 1449 365 1467 c 132,-1,58
 424 1485 424 1485 500 1485 c 6,59,-1
 934 1485 l 6,60,61
 974 1485 974 1485 1011 1473 c 132,-1,62
 1048 1461 1048 1461 1079.5 1439.5 c 132,-1,63
 1111 1418 1111 1418 1136 1388 c 132,-1,64
 1161 1358 1161 1358 1179 1324 c 132,-1,65
 1197 1290 1197 1290 1206.5 1252 c 132,-1,66
 1216 1214 1216 1214 1216 1176 c 6,67,-1
 1216 1104 l 6,0,1
1067 1184 m 4,68,69
 1067 1205 1067 1205 1063 1223.5 c 132,-1,70
 1059 1242 1059 1242 1049.5 1256 c 132,-1,71
 1040 1270 1040 1270 1023.5 1278 c 132,-1,72
 1007 1286 1007 1286 984 1286 c 6,73,-1
 760 1286 l 5,74,-1
 760 1135 l 6,75,76
 760 1098 760 1098 767.5 1061 c 132,-1,77
 775 1024 775 1024 792 994.5 c 132,-1,78
 809 965 809 965 838.5 947 c 132,-1,79
 868 929 868 929 912 929 c 4,80,81
 948 929 948 929 974 940.5 c 132,-1,82
 1000 952 1000 952 1017.5 971 c 132,-1,83
 1035 990 1035 990 1044.5 1015 c 132,-1,84
 1054 1040 1054 1040 1059 1068 c 132,-1,85
 1064 1096 1064 1096 1065.5 1126 c 132,-1,86
 1067 1156 1067 1156 1067 1184 c 4,68,69
EndSplineSet
MultipleSubs2: "ConsToneB-1" u16F14 u16F92
MultipleSubs2: "ConsToneR-1" u16F14 u16F8F
MultipleSubs2: "ConsToneT-1" u16F14 u16F90
MultipleSubs2: "ConsToneA-1" u16F14 u16F91
EndChar

StartChar: u16F15
Encoding: 158 93973 22
Width: 1666
VWidth: 2023
GlyphClass: 2
Flags: W
AnchorPoint: "SP" 643 1356 basechar 0
AnchorPoint: "BL" 401 -607 basechar 0
AnchorPoint: "B" 764 -607 basechar 0
AnchorPoint: "AL" 401 1670 basechar 0
AnchorPoint: "A" 764 1720 basechar 0
AnchorPoint: "F" 1916 0 exit 0
AnchorPoint: "R" 1916 430 exit 0
AnchorPoint: "C" 1916 1518 exit 0
AnchorPoint: "S" 1916 1242 exit 0
LayerCount: 3
Back
SplineSet
1416 1184 m 0,0,1
 1416 1286 1416 1286 1332 1286 c 2,2,-1
 1109 1286 l 1,3,-1
 1109 1135 l 2,4,5
 1109 996 1109 996 1188 947 c 0,6,7
 1217 929 1217 929 1257.5 929 c 128,-1,8
 1298 929 1298 929 1323.5 940.5 c 128,-1,9
 1349 952 1349 952 1366.5 971 c 128,-1,10
 1384 990 1384 990 1393.5 1015 c 128,-1,11
 1403 1040 1403 1040 1408 1068 c 0,12,13
 1416 1111 1416 1111 1416 1184 c 0,0,1
1565 1104 m 2,14,15
 1565 987 1565 987 1480 894 c 0,16,17
 1393 799 1393 799 1277 799 c 0,18,19
 1146 799 1146 799 1055 886 c 0,20,21
 962 975 962 975 962 1104 c 2,22,-1
 962 1286 l 1,23,-1
 891 1286 l 2,24,25
 741 1286 741 1286 694 1199 c 0,26,27
 667 1148 667 1148 664 1080 c 0,28,29
 662 1026 662 1026 662 934 c 0,30,31
 662 903 662 903 662 869 c 2,32,-1
 665 474 l 1,33,34
 683 342 683 342 722 301 c 0,35,36
 791 228 791 228 842 220 c 0,37,38
 917 208 917 208 995 208 c 2,39,-1
 1454 208 l 2,40,41
 1493 208 1493 208 1521 164 c 0,42,43
 1545 125 1545 125 1545 94.5 c 128,-1,44
 1545 64 1545 64 1537 48.5 c 128,-1,45
 1529 33 1529 33 1516 22 c 0,46,47
 1489 0 1489 0 1450 0 c 2,48,-1
 956 0 l 2,49,50
 761 0 761 0 608 135 c 0,51,52
 450 275 450 275 450 467 c 2,53,-1
 450 483 l 1,54,-1
 408 483 l 2,55,56
 201 483 201 483 201 693 c 1,57,58
 210 898 210 898 401 898 c 2,59,-1
 450 898 l 1,60,-1
 450 991 l 2,61,62
 450 1387 450 1387 714 1467 c 0,63,64
 773 1485 773 1485 849 1485 c 2,65,-1
 1283 1485 l 2,66,67
 1401 1485 1401 1485 1485 1388 c 0,68,69
 1565 1294 1565 1294 1565 1176 c 2,70,-1
 1565 1104 l 2,14,15
450 596 m 1,71,-1
 450 781 l 1,72,-1
 402 781 l 2,73,74
 318 781 318 781 318 688.5 c 128,-1,75
 318 596 318 596 401 596 c 2,76,-1
 402 596 l 1,77,-1
 450 596 l 1,71,-1
EndSplineSet
Fore
SplineSet
1417 1184 m 0,0,1
 1417 1205 1417 1205 1413 1223.5 c 128,-1,2
 1409 1242 1409 1242 1399.5 1256 c 128,-1,3
 1390 1270 1390 1270 1373.5 1278 c 128,-1,4
 1357 1286 1357 1286 1334 1286 c 2,5,-1
 1110 1286 l 1,6,-1
 1110 1135 l 2,7,8
 1110 1098 1110 1098 1117.5 1061 c 128,-1,9
 1125 1024 1125 1024 1142 994.5 c 128,-1,10
 1159 965 1159 965 1188.5 947 c 128,-1,11
 1218 929 1218 929 1262 929 c 0,12,13
 1298 929 1298 929 1324 940.5 c 128,-1,14
 1350 952 1350 952 1367.5 971 c 128,-1,15
 1385 990 1385 990 1394.5 1015 c 128,-1,16
 1404 1040 1404 1040 1409 1068 c 128,-1,17
 1414 1096 1414 1096 1415.5 1126 c 128,-1,18
 1417 1156 1417 1156 1417 1184 c 0,0,1
1566 1104 m 2,19,20
 1566 1066 1566 1066 1556 1028.5 c 128,-1,21
 1546 991 1546 991 1527 957 c 128,-1,22
 1508 923 1508 923 1481.5 894.5 c 128,-1,23
 1455 866 1455 866 1423 844.5 c 128,-1,24
 1391 823 1391 823 1354 811 c 128,-1,25
 1317 799 1317 799 1278 799 c 0,26,27
 1214 799 1214 799 1156.5 822 c 128,-1,28
 1099 845 1099 845 1056 886 c 128,-1,29
 1013 927 1013 927 988 983 c 128,-1,30
 963 1039 963 1039 963 1104 c 2,31,-1
 963 1286 l 1,32,-1
 892 1286 l 2,33,34
 837 1286 837 1286 799 1275.5 c 128,-1,35
 761 1265 761 1265 735.5 1245.5 c 128,-1,36
 710 1226 710 1226 695.5 1198.5 c 128,-1,37
 681 1171 681 1171 673.5 1136.5 c 128,-1,38
 666 1102 666 1102 664 1061.5 c 128,-1,39
 662 1021 662 1021 662 976 c 2,40,-1
 662 524 l 2,41,42
 662 494 662 494 667.5 462.5 c 128,-1,43
 673 431 673 431 683 400.5 c 128,-1,44
 693 370 693 370 707.5 342 c 128,-1,45
 722 314 722 314 741 289 c 0,46,47
 763 260 763 260 793.5 244 c 128,-1,48
 824 228 824 228 858 220 c 128,-1,49
 892 212 892 212 927.5 210 c 128,-1,50
 963 208 963 208 996 208 c 2,51,-1
 1455 208 l 2,52,53
 1476 208 1476 208 1493.5 195.5 c 128,-1,54
 1511 183 1511 183 1522.5 164 c 128,-1,55
 1534 145 1534 145 1540.5 123.5 c 128,-1,56
 1547 102 1547 102 1547 84 c 0,57,58
 1547 64 1547 64 1538.5 48.5 c 128,-1,59
 1530 33 1530 33 1517 22.5 c 128,-1,60
 1504 12 1504 12 1486.5 6 c 128,-1,61
 1469 0 1469 0 1451 0 c 2,62,-1
 957 0 l 2,63,64
 894 0 894 0 831.5 16 c 128,-1,65
 769 32 769 32 713 62.5 c 128,-1,66
 657 93 657 93 609 135 c 128,-1,67
 561 177 561 177 526 229 c 128,-1,68
 491 281 491 281 471 341.5 c 0,69,70
 459.906526129 375.057758461 459.906526129 375.057758461 454.966310384 410 c 1,71,-1
 375 410 l 2,72,73
 256 410 256 410 178 494 c 128,-1,74
 100 578 100 578 100 710 c 128,-1,75
 100 842 100 842 178 926 c 128,-1,76
 256 1010 256 1010 375 1010 c 2,77,-1
 451.172537021 1010 l 1,78,79
 452.211018034 1066.90454437 452.211018034 1066.90454437 459.5 1120.5 c 0,80,81
 468 1183 468 1183 487 1238 c 128,-1,82
 506 1293 506 1293 536.5 1338.5 c 128,-1,83
 567 1384 567 1384 611.5 1416.5 c 128,-1,84
 656 1449 656 1449 715 1467 c 128,-1,85
 774 1485 774 1485 850 1485 c 2,86,-1
 1284 1485 l 2,87,88
 1324 1485 1324 1485 1361 1473 c 128,-1,89
 1398 1461 1398 1461 1429.5 1439.5 c 128,-1,90
 1461 1418 1461 1418 1486 1388 c 128,-1,91
 1511 1358 1511 1358 1529 1324 c 128,-1,92
 1547 1290 1547 1290 1556.5 1252 c 128,-1,93
 1566 1214 1566 1214 1566 1176 c 2,94,-1
 1566 1104 l 2,19,20
451 530 m 1,95,-1
 451 890 l 1,96,-1
 393 890 l 2,97,98
 311 890 311 890 265.5 841.5 c 128,-1,99
 220 793 220 793 220 710 c 128,-1,100
 220 627 220 627 265.5 578.5 c 128,-1,101
 311 530 311 530 393 530 c 2,102,-1
 451 530 l 1,95,-1
EndSplineSet
Layer: 2
SplineSet
540 500 m 5
 540 500 403 500 393 500 c 4
 283 500 220 570 220 680 c 4
 220 790 283 860 393 860 c 4
 403 860 540 860 540 860 c 5
 540 980 l 5
 540 980 385 980 375 980 c 4
 218 980 100 857 100 680 c 4
 100 503 218 380 375 380 c 4
 385 380 540 380 540 380 c 5
 540 380 540 500 540 500 c 5
EndSplineSet
Substitution2: "noWart-1" u16F15.nowart
Substitution2: "dotWart-1" u16F15.dot
MultipleSubs2: "ConsToneB-1" u16F15 u16F92
MultipleSubs2: "ConsToneR-1" u16F15 u16F8F
MultipleSubs2: "ConsToneT-1" u16F15 u16F90
MultipleSubs2: "ConsToneA-1" u16F15 u16F91
EndChar

StartChar: u16F16
Encoding: 159 93974 23
Width: 1230
VWidth: 2023
GlyphClass: 2
Flags: W
AnchorPoint: "SP" -21 1356 basechar 0
AnchorPoint: "BL" 51 -607 basechar 0
AnchorPoint: "B" -162 -607 basechar 0
AnchorPoint: "AL" -358 1670 basechar 0
AnchorPoint: "A" -282 1720 basechar 0
AnchorPoint: "F" 1230 0 exit 0
AnchorPoint: "R" 430 430 exit 0
AnchorPoint: "C" 430 1518 exit 0
AnchorPoint: "S" 430 1242 exit 0
LayerCount: 3
Fore
SplineSet
1129 0 m 1,0,-1
 101 0 l 1,1,-1
 101 1483 l 1,2,-1
 312 1483 l 1,3,-1
 312 208 l 1,4,-1
 1129 208 l 1,5,-1
 1129 0 l 1,0,-1
EndSplineSet
MultipleSubs2: "ConsToneB-1" u16F16 u16F92
MultipleSubs2: "ConsToneR-1" u16F16 u16F8F
MultipleSubs2: "ConsToneT-1" u16F16 u16F90
MultipleSubs2: "ConsToneA-1" u16F16 u16F91
EndChar

StartChar: u16F17
Encoding: 160 93975 24
Width: 1582
VWidth: 2023
GlyphClass: 2
Flags: W
AnchorPoint: "SP" 309 1356 basechar 0
AnchorPoint: "BL" 151 -607 basechar 0
AnchorPoint: "B" 472 -607 basechar 0
AnchorPoint: "AL" -132 1670 basechar 0
AnchorPoint: "A" 189 1720 basechar 0
AnchorPoint: "F" 1582 0 exit 0
AnchorPoint: "R" 783 430 exit 0
AnchorPoint: "C" 783 1518 exit 0
AnchorPoint: "S" 783 1242 exit 0
LayerCount: 3
Back
SplineSet
1481 0 m 1,0,-1
 453 0 l 1,1,-1
 453 519 l 1,2,-1
 413 519 l 2,3,4
 201 519 201 519 201 729 c 1,5,6
 210 934 210 934 401 934 c 2,7,-1
 453 934 l 1,8,-1
 453 1483 l 1,9,-1
 664 1483 l 1,10,-1
 664 208 l 1,11,-1
 1481 208 l 1,12,-1
 1481 0 l 1,0,-1
453 633 m 1,13,-1
 453 818 l 1,14,-1
 407 818 l 2,15,16
 323 818 323 818 323 728 c 0,17,18
 323 633 323 633 406 633 c 2,19,-1
 407 633 l 1,20,-1
 453 633 l 1,13,-1
EndSplineSet
Fore
SplineSet
1481 0 m 1,0,-1
 453 0 l 1,1,-1
 453 430 l 1,2,-1
 375 430 l 2,3,4
 256 430 256 430 178 514 c 128,-1,5
 100 598 100 598 100 730 c 128,-1,6
 100 862 100 862 178 946 c 128,-1,7
 256 1030 256 1030 375 1030 c 2,8,-1
 453 1030 l 1,9,-1
 453 1483 l 1,10,-1
 664 1483 l 1,11,-1
 664 208 l 1,12,-1
 1481 208 l 1,13,-1
 1481 0 l 1,0,-1
453 550 m 1,14,-1
 453 910 l 1,15,-1
 393 910 l 2,16,17
 311 910 311 910 265.5 861.5 c 128,-1,18
 220 813 220 813 220 730 c 128,-1,19
 220 647 220 647 265.5 598.5 c 128,-1,20
 311 550 311 550 393 550 c 2,21,-1
 453 550 l 1,14,-1
EndSplineSet
Substitution2: "noWart-1" u16F17.nowart
Substitution2: "dotWart-1" u16F17.dot
MultipleSubs2: "ConsToneB-1" u16F17 u16F92
MultipleSubs2: "ConsToneR-1" u16F17 u16F8F
MultipleSubs2: "ConsToneT-1" u16F17 u16F90
MultipleSubs2: "ConsToneA-1" u16F17 u16F91
EndChar

StartChar: u16F18
Encoding: 161 93976 25
Width: 1238
VWidth: 2023
GlyphClass: 2
Flags: W
AnchorPoint: "SP" -64 1356 basechar 0
AnchorPoint: "BL" 51 -607 basechar 0
AnchorPoint: "B" 249 -607 basechar 0
AnchorPoint: "AL" -361 1670 basechar 0
AnchorPoint: "A" -162 1720 basechar 0
AnchorPoint: "F" 1238 0 exit 0
AnchorPoint: "R" 1238 430 exit 0
AnchorPoint: "C" 435 1518 exit 0
AnchorPoint: "S" 435 1242 exit 0
LayerCount: 3
Fore
SplineSet
1137 331 m 4,0,1
 1137 311 1137 311 1135.5 291.5 c 132,-1,2
 1134 272 1134 272 1134 252 c 4,3,4
 1134 218 1134 218 1118.5 186.5 c 132,-1,5
 1103 155 1103 155 1078 127 c 132,-1,6
 1053 99 1053 99 1020 76 c 132,-1,7
 987 53 987 53 951.5 36 c 132,-1,8
 916 19 916 19 880.5 9.5 c 132,-1,9
 845 0 845 0 815 0 c 6,10,-1
 101 0 l 5,11,-1
 101 1483 l 5,12,-1
 314 1483 l 5,13,-1
 314 204 l 5,14,-1
 568 204 l 5,15,-1
 568 361 l 6,16,17
 568 419 568 419 589.5 473 c 132,-1,18
 611 527 611 527 649 569.5 c 132,-1,19
 687 612 687 612 738 637.5 c 132,-1,20
 789 663 789 663 849 663 c 4,21,22
 895 663 895 663 934.5 650 c 132,-1,23
 974 637 974 637 1006 614.5 c 132,-1,24
 1038 592 1038 592 1062.5 560.5 c 132,-1,25
 1087 529 1087 529 1103.5 492.5 c 132,-1,26
 1120 456 1120 456 1128.5 414.5 c 132,-1,27
 1137 373 1137 373 1137 331 c 4,0,1
995 356 m 4,28,29
 995 384 995 384 985 411.5 c 132,-1,30
 975 439 975 439 956.5 461 c 132,-1,31
 938 483 938 483 913 496.5 c 132,-1,32
 888 510 888 510 858 510 c 4,33,34
 824 510 824 510 798 491 c 132,-1,35
 772 472 772 472 755.5 442.5 c 132,-1,36
 739 413 739 413 730.5 379.5 c 132,-1,37
 722 346 722 346 722 317 c 4,38,39
 722 289 722 289 723 261 c 132,-1,40
 724 233 724 233 724 204 c 5,41,-1
 851 204 l 6,42,43
 883 204 883 204 909.5 216 c 132,-1,44
 936 228 936 228 955 249 c 132,-1,45
 974 270 974 270 984.5 297.5 c 132,-1,46
 995 325 995 325 995 356 c 4,28,29
EndSplineSet
Substitution2: "hmdStyle-1" u16F18.hmd
MultipleSubs2: "ConsToneB-1" u16F18 u16F92
MultipleSubs2: "ConsToneR-1" u16F18 u16F8F
MultipleSubs2: "ConsToneT-1" u16F18 u16F90
MultipleSubs2: "ConsToneA-1" u16F18 u16F91
EndChar

StartChar: u16F19
Encoding: 162 93977 26
Width: 1608
VWidth: 2023
GlyphClass: 2
Flags: W
AnchorPoint: "SP" 318 1356 basechar 0
AnchorPoint: "BL" 141 -607 basechar 0
AnchorPoint: "B" 480 -607 basechar 0
AnchorPoint: "AL" -131 1670 basechar 0
AnchorPoint: "A" 209 1720 basechar 0
AnchorPoint: "F" 1609 0 exit 0
AnchorPoint: "R" 1609 430 exit 0
AnchorPoint: "C" 798 1518 exit 0
AnchorPoint: "S" 798 1242 exit 0
LayerCount: 3
Back
SplineSet
1366 356 m 0,0,1
 1366 384 1366 384 1356 411.5 c 128,-1,2
 1346 439 1346 439 1327.5 461 c 128,-1,3
 1309 483 1309 483 1284 496.5 c 128,-1,4
 1259 510 1259 510 1228 510 c 0,5,6
 1194 510 1194 510 1168.5 491 c 128,-1,7
 1143 472 1143 472 1126 442.5 c 128,-1,8
 1109 413 1109 413 1101 379.5 c 128,-1,9
 1093 346 1093 346 1093 317 c 0,10,11
 1093 289 1093 289 1094 261 c 128,-1,12
 1095 233 1095 233 1095 204 c 1,13,-1
 1222 204 l 2,14,15
 1254 204 1254 204 1280.5 216 c 128,-1,16
 1307 228 1307 228 1326 249 c 128,-1,17
 1345 270 1345 270 1355.5 297.5 c 128,-1,18
 1366 325 1366 325 1366 356 c 0,0,1
1508 331 m 0,19,20
 1508 311 1508 311 1506.5 291.5 c 128,-1,21
 1505 272 1505 272 1505 252 c 0,22,23
 1505 218 1505 218 1489.5 186.5 c 128,-1,24
 1474 155 1474 155 1449 127 c 128,-1,25
 1424 99 1424 99 1391 76 c 128,-1,26
 1358 53 1358 53 1322.5 36 c 128,-1,27
 1287 19 1287 19 1251.5 9.5 c 128,-1,28
 1216 0 1216 0 1186 0 c 2,29,-1
 472 0 l 1,30,-1
 472 552 l 1,31,-1
 398 552 l 2,32,33
 191 552 191 552 191 762 c 1,34,35
 200 967 200 967 391 967 c 2,36,-1
 472 967 l 1,37,-1
 472 1483 l 1,38,-1
 684 1483 l 5,39,-1
 684 204 l 1,40,-1
 938 204 l 1,41,-1
 938 361 l 2,42,43
 938 419 938 419 959.5 473 c 128,-1,44
 981 527 981 527 1019 569.5 c 128,-1,45
 1057 612 1057 612 1108.5 637.5 c 128,-1,46
 1160 663 1160 663 1220 663 c 0,47,48
 1266 663 1266 663 1305.5 650 c 128,-1,49
 1345 637 1345 637 1376.5 614.5 c 128,-1,50
 1408 592 1408 592 1433 560.5 c 128,-1,51
 1458 529 1458 529 1474 492.5 c 128,-1,52
 1490 456 1490 456 1499 414.5 c 128,-1,53
 1508 373 1508 373 1508 331 c 0,19,20
472 666 m 1,54,-1
 472 850 l 1,55,-1
 392 850 l 2,56,57
 308 850 308 850 308 761 c 0,58,59
 308 666 308 666 391 666 c 2,60,-1
 392 666 l 1,61,-1
 472 666 l 1,54,-1
EndSplineSet
Fore
SplineSet
1365 356 m 0,0,1
 1365 384 1365 384 1355 411.5 c 128,-1,2
 1345 439 1345 439 1326.5 461 c 128,-1,3
 1308 483 1308 483 1283 496.5 c 128,-1,4
 1258 510 1258 510 1228 510 c 0,5,6
 1194 510 1194 510 1168 491 c 128,-1,7
 1142 472 1142 472 1125.5 442.5 c 128,-1,8
 1109 413 1109 413 1100.5 379.5 c 128,-1,9
 1092 346 1092 346 1092 317 c 0,10,11
 1092 289 1092 289 1093 261 c 128,-1,12
 1094 233 1094 233 1094 204 c 1,13,-1
 1221 204 l 2,14,15
 1253 204 1253 204 1279.5 216 c 128,-1,16
 1306 228 1306 228 1325 249 c 128,-1,17
 1344 270 1344 270 1354.5 297.5 c 128,-1,18
 1365 325 1365 325 1365 356 c 0,0,1
1507 331 m 0,19,20
 1507 311 1507 311 1505.5 291.5 c 128,-1,21
 1504 272 1504 272 1504 252 c 0,22,23
 1504 218 1504 218 1488.5 186.5 c 128,-1,24
 1473 155 1473 155 1448 127 c 128,-1,25
 1423 99 1423 99 1390 76 c 128,-1,26
 1357 53 1357 53 1321.5 36 c 128,-1,27
 1286 19 1286 19 1250.5 9.5 c 128,-1,28
 1215 0 1215 0 1185 0 c 2,29,-1
 471 0 l 1,30,-1
 471 460 l 1,31,-1
 375 460 l 2,32,33
 256 460 256 460 178 544 c 128,-1,34
 100 628 100 628 100 760 c 128,-1,35
 100 892 100 892 178 976 c 128,-1,36
 256 1060 256 1060 375 1060 c 2,37,-1
 471 1060 l 1,38,-1
 471 1483 l 1,39,-1
 684 1483 l 1,40,-1
 684 204 l 1,41,-1
 938 204 l 1,42,-1
 938 361 l 2,43,44
 938 419 938 419 959.5 473 c 128,-1,45
 981 527 981 527 1019 569.5 c 128,-1,46
 1057 612 1057 612 1108 637.5 c 128,-1,47
 1159 663 1159 663 1219 663 c 0,48,49
 1265 663 1265 663 1304.5 650 c 128,-1,50
 1344 637 1344 637 1376 614.5 c 128,-1,51
 1408 592 1408 592 1432.5 560.5 c 128,-1,52
 1457 529 1457 529 1473.5 492.5 c 128,-1,53
 1490 456 1490 456 1498.5 414.5 c 128,-1,54
 1507 373 1507 373 1507 331 c 0,19,20
471 580 m 1,55,-1
 471 940 l 1,56,-1
 393 940 l 2,57,58
 311 940 311 940 265.5 891.5 c 128,-1,59
 220 843 220 843 220 760 c 128,-1,60
 220 677 220 677 265.5 628.5 c 128,-1,61
 311 580 311 580 393 580 c 2,62,-1
 471 580 l 1,55,-1
EndSplineSet
Substitution2: "noWart-1" u16F19.nowart
Substitution2: "dotWart-1" u16F19.dot
Substitution2: "hmdStyle-1" u16F19.hmd
MultipleSubs2: "ConsToneB-1" u16F19 u16F92
MultipleSubs2: "ConsToneR-1" u16F19 u16F8F
MultipleSubs2: "ConsToneT-1" u16F19 u16F90
MultipleSubs2: "ConsToneA-1" u16F19 u16F91
EndChar

StartChar: u16F1A
Encoding: 163 93978 27
Width: 1347
VWidth: 2023
GlyphClass: 2
Flags: W
AnchorPoint: "SP" 405 1356 basechar 0
AnchorPoint: "BL" 51 -607 basechar 0
AnchorPoint: "B" 359 -607 basechar 0
AnchorPoint: "AL" 51 1670 basechar 0
AnchorPoint: "A" 359 1720 basechar 0
AnchorPoint: "F" 1348 0 exit 0
AnchorPoint: "R" 1290 430 exit 0
AnchorPoint: "C" 1012 1518 exit 0
AnchorPoint: "S" 1113 1242 exit 0
LayerCount: 3
Fore
SplineSet
1247 0 m 5,0,-1
 101 0 l 5,1,-1
 560 1483 l 5,2,-1
 786 1483 l 5,3,-1
 1247 0 l 5,0,-1
978 196 m 5,4,-1
 705 1178 l 5,5,-1
 650 1178 l 5,6,-1
 359 196 l 5,7,-1
 978 196 l 5,4,-1
EndSplineSet
MultipleSubs2: "ConsToneB-1" u16F1A u16F92
MultipleSubs2: "ConsToneR-1" u16F1A u16F8F
MultipleSubs2: "ConsToneT-1" u16F1A u16F90
MultipleSubs2: "ConsToneA-1" u16F1A u16F91
EndChar

StartChar: u16F1B
Encoding: 164 93979 28
Width: 1477
VWidth: 2023
GlyphClass: 2
Flags: W
AnchorPoint: "SP" 525 1356 basechar 0
AnchorPoint: "BL" 146 -607 basechar 0
AnchorPoint: "B" 434 -607 basechar 0
AnchorPoint: "AL" 146 1670 basechar 0
AnchorPoint: "A" 434 1720 basechar 0
AnchorPoint: "F" 1477 0 exit 0
AnchorPoint: "R" 1477 430 exit 0
AnchorPoint: "C" 1138 1518 exit 0
AnchorPoint: "S" 1229 1242 exit 0
LayerCount: 3
Back
SplineSet
1108 196 m 1,0,-1
 834 1178 l 1,1,-1
 779 1178 l 1,2,-1
 489 196 l 1,3,-1
 1108 196 l 1,0,-1
1376 0 m 1,4,-1
 231 0 l 1,5,-1
 396 534 l 1,6,7
 196 538 196 538 196 744 c 1,8,9
 205 949 205 949 396 949 c 2,10,-1
 524 949 l 1,11,-1
 689 1483 l 1,12,-1
 915 1483 l 1,13,-1
 1376 0 l 1,4,-1
431 648 m 1,14,-1
 488 832 l 1,15,-1
 397 832 l 2,16,17
 313 832 313 832 313 743 c 0,18,19
 313 648 313 648 396 648 c 2,20,-1
 397 648 l 1,21,-1
 431 648 l 1,14,-1
EndSplineSet
Fore
SplineSet
1108 196 m 1,0,-1
 835 1178 l 1,1,-1
 780 1178 l 1,2,-1
 489 196 l 1,3,-1
 1108 196 l 1,0,-1
1377 0 m 1,4,-1
 231 0 l 1,5,-1
 367.518889705 441.08390726 l 1,6,7
 253.534785411 443.654846481 253.534785411 443.654846481 178 525 c 0,8,9
 100 609 100 609 100 741 c 128,-1,10
 100 873 100 873 178 957 c 128,-1,11
 256 1041 256 1041 375 1041 c 2,12,-1
 553.197572488 1041 l 1,13,-1
 690 1483 l 1,14,-1
 916 1483 l 1,15,-1
 1377 0 l 1,4,-1
404.633850303 561 m 1,16,-1
 516.056641942 921 l 1,17,-1
 393 921 l 2,18,19
 311 921 311 921 265.5 872.5 c 128,-1,20
 220 824 220 824 220 741 c 128,-1,21
 220 658 220 658 265.5 609.5 c 128,-1,22
 311 561 311 561 393 561 c 2,23,-1
 404.633850303 561 l 1,16,-1
EndSplineSet
Substitution2: "noWart-1" u16F1B.nowart
Substitution2: "dotWart-1" u16F1B.dot
MultipleSubs2: "ConsToneB-1" u16F1B u16F92
MultipleSubs2: "ConsToneR-1" u16F1B u16F8F
MultipleSubs2: "ConsToneT-1" u16F1B u16F90
MultipleSubs2: "ConsToneA-1" u16F1B u16F91
EndChar

StartChar: u16F1C
Encoding: 165 93980 29
Width: 1349
VWidth: 2023
GlyphClass: 2
Flags: W
AnchorPoint: "SP" 405 1356 basechar 0
AnchorPoint: "BL" 51 -607 basechar 0
AnchorPoint: "B" 306 -607 basechar 0
AnchorPoint: "AL" 51 1670 basechar 0
AnchorPoint: "A" 306 1720 basechar 0
AnchorPoint: "F" 1350 0 exit 0
AnchorPoint: "R" 1350 430 exit 0
AnchorPoint: "C" 970 1518 exit 0
AnchorPoint: "S" 1082 1242 exit 0
LayerCount: 3
Fore
SplineSet
1249 0 m 1,0,-1
 101 0 l 1,1,-1
 560 1483 l 1,2,-1
 786 1483 l 1,3,-1
 1249 0 l 1,0,-1
855 625 m 1,4,-1
 706 1199 l 1,5,-1
 647 1199 l 1,6,-1
 495 628 l 1,7,8
 675 641 l 257,9,10
 855 625 l 1,4,-1
986 194 m 1,11,-1
 890 501 l 1,12,13
 753 488 753 488 678 485 c 1,14,15
 564 493 564 493 461 501 c 1,16,-1
 358 194 l 1,17,-1
 986 194 l 1,11,-1
EndSplineSet
MultipleSubs2: "ConsToneB-1" u16F1C u16F92
MultipleSubs2: "ConsToneR-1" u16F1C u16F8F
MultipleSubs2: "ConsToneT-1" u16F1C u16F90
MultipleSubs2: "ConsToneA-1" u16F1C u16F91
EndChar

StartChar: u16F1D
Encoding: 166 93981 30
Width: 1449
VWidth: 2023
GlyphClass: 2
Flags: W
AnchorPoint: "SP" 505 1356 basechar 0
AnchorPoint: "BL" 151 -607 basechar 0
AnchorPoint: "B" 406 -607 basechar 0
AnchorPoint: "AL" 151 1670 basechar 0
AnchorPoint: "A" 406 1720 basechar 0
AnchorPoint: "F" 1450 0 exit 0
AnchorPoint: "R" 1404 430 exit 0
AnchorPoint: "C" 1065 1518 exit 0
AnchorPoint: "S" 1172 1242 exit 0
LayerCount: 3
Back
SplineSet
1086 194 m 1,0,-1
 1000 490 l 1,1,2
 946 485 946 485 779 479 c 1,3,4
 646 486 646 486 551 495 c 1,5,-1
 458 194 l 1,6,-1
 1086 194 l 1,0,-1
973 616 m 1,7,-1
 806 1199 l 1,8,-1
 747 1199 l 1,9,-1
 579 616 l 1,10,-1
 774 628 l 1,11,-1
 973 616 l 1,7,-1
1349 0 m 1,12,-1
 201 0 l 1,13,-1
 365 531 l 1,14,15
 201 551 201 551 201 738 c 1,16,17
 210 943 210 943 401 943 c 2,18,-1
 493 943 l 1,19,-1
 660 1483 l 1,20,-1
 886 1483 l 1,21,-1
 1349 0 l 1,12,-1
400 642 m 1,22,-1
 457 827 l 1,23,-1
 402 827 l 2,24,25
 318 827 318 827 318 737 c 0,26,27
 318 643 318 643 400 642 c 1,22,-1
EndSplineSet
Fore
SplineSet
1349 0 m 1,0,-1
 201 0 l 1,1,-1
 337.853287876 442.164326623 l 1,2,3
 243.479653142 453.483450462 243.479653142 453.483450462 178 524 c 0,4,5
 100 608 100 608 100 740 c 128,-1,6
 100 872 100 872 178 956 c 128,-1,7
 256 1040 256 1040 375 1040 c 2,8,-1
 522.888064734 1040 l 1,9,-1
 660 1483 l 1,10,-1
 886 1483 l 1,11,-1
 1349 0 l 1,0,-1
973 616 m 1,12,-1
 806 1199 l 1,13,-1
 747 1199 l 1,14,-1
 579 616 l 1,15,-1
 774 628 l 1,16,-1
 973 616 l 1,12,-1
1086 194 m 1,17,-1
 1000 490 l 1,18,19
 946 485 946 485 779 479 c 1,20,21
 646 486 646 486 551 495 c 1,22,-1
 458 194 l 1,23,-1
 1086 194 l 1,17,-1
374.525038123 560.64843472 m 1,24,-1
 485.747134187 920 l 1,25,-1
 393 920 l 2,26,27
 311 920 311 920 265.5 871.5 c 128,-1,28
 220 823 220 823 220 740 c 128,-1,29
 220 657 220 657 265.5 608.5 c 0,30,31
 305.738935116 565.607948282 305.738935116 565.607948282 374.525038123 560.64843472 c 1,24,-1
EndSplineSet
Substitution2: "noWart-1" u16F1D.nowart
Substitution2: "dotWart-1" u16F1D.dot
MultipleSubs2: "ConsToneB-1" u16F1D u16F92
MultipleSubs2: "ConsToneR-1" u16F1D u16F8F
MultipleSubs2: "ConsToneT-1" u16F1D u16F90
MultipleSubs2: "ConsToneA-1" u16F1D u16F91
EndChar

StartChar: u16F1E
Encoding: 167 93982 31
Width: 1230
VWidth: 2023
GlyphClass: 2
Flags: W
AnchorPoint: "BL" 51 -607 basechar 0
AnchorPoint: "B" 246 -607 basechar 0
AnchorPoint: "AL" 51 1670 basechar 0
AnchorPoint: "A" 246 1720 basechar 0
AnchorPoint: "F" 1230 0 exit 0
AnchorPoint: "R" 1230 430 exit 0
AnchorPoint: "C" 1230 1518 exit 0
AnchorPoint: "S" 1230 1242 exit 0
LayerCount: 3
Fore
SplineSet
1129 0 m 5,0,-1
 101 0 l 5,1,-1
 101 204 l 5,2,-1
 919 204 l 5,3,-1
 919 1279 l 5,4,-1
 101 1279 l 5,5,-1
 101 1483 l 5,6,-1
 1129 1483 l 5,7,-1
 1129 0 l 5,0,-1
EndSplineSet
MultipleSubs2: "ConsToneB-1" u16F1E u16F92
MultipleSubs2: "ConsToneR-1" u16F1E u16F8F
MultipleSubs2: "ConsToneT-1" u16F1E u16F90
MultipleSubs2: "ConsToneA-1" u16F1E u16F91
EndChar

StartChar: u16F1F
Encoding: 168 93983 32
Width: 1230
VWidth: 2023
GlyphClass: 2
Flags: W
AnchorPoint: "BL" 51 -607 basechar 0
AnchorPoint: "B" 246 -607 basechar 0
AnchorPoint: "AL" 51 1670 basechar 0
AnchorPoint: "A" 246 1720 basechar 0
AnchorPoint: "F" 1230 0 exit 0
AnchorPoint: "R" 1230 430 exit 0
AnchorPoint: "C" 1230 1518 exit 0
AnchorPoint: "S" 1230 1242 exit 0
LayerCount: 3
Back
SplineSet
1129 0 m 1,0,-1
 101 0 l 1,1,-1
 101 204 l 1,2,-1
 919 204 l 1,3,-1
 919 535 l 5,4,-1
 819 535 l 6,5,6
 612 535 612 535 612 745 c 5,7,8
 621 950 621 950 812 950 c 6,9,-1
 919 950 l 5,10,-1
 919 1279 l 1,11,-1
 101 1279 l 1,12,-1
 101 1483 l 1,13,-1
 1129 1483 l 1,14,-1
 1129 0 l 1,0,-1
919 650 m 5,15,-1
 919 834 l 5,16,-1
 813 834 l 6,17,18
 729 834 729 834 729 744 c 4,19,20
 729 649 729 649 812 649 c 6,21,-1
 813 649 l 5,22,-1
 919 650 l 5,15,-1
EndSplineSet
Fore
SplineSet
1129 0 m 1,0,-1
 101 0 l 1,1,-1
 101 204 l 1,2,-1
 919 204 l 1,3,-1
 919 441 l 1,4,-1
 793 441 l 2,5,6
 674 441 674 441 596 525 c 128,-1,7
 518 609 518 609 518 741 c 128,-1,8
 518 873 518 873 596 957 c 128,-1,9
 674 1041 674 1041 793 1041 c 2,10,-1
 919 1041 l 1,11,-1
 919 1279 l 1,12,-1
 101 1279 l 1,13,-1
 101 1483 l 1,14,-1
 1129 1483 l 1,15,-1
 1129 0 l 1,0,-1
919 561 m 1,16,-1
 919 921 l 1,17,-1
 811 921 l 2,18,19
 729 921 729 921 683.5 872.5 c 128,-1,20
 638 824 638 824 638 741 c 128,-1,21
 638 658 638 658 683.5 609.5 c 128,-1,22
 729 561 729 561 811 561 c 2,23,-1
 919 561 l 1,16,-1
EndSplineSet
Substitution2: "noWart-1" u16F1F.nowart
Substitution2: "dotWart-1" u16F1F.dot
MultipleSubs2: "ConsToneB-1" u16F1F u16F92
MultipleSubs2: "ConsToneR-1" u16F1F u16F8F
MultipleSubs2: "ConsToneT-1" u16F1F u16F90
MultipleSubs2: "ConsToneA-1" u16F1F u16F91
EndChar

StartChar: u16F20
Encoding: 169 93984 33
Width: 1386
VWidth: 2023
GlyphClass: 2
Flags: W
AnchorPoint: "BL" 51 -607 basechar 0
AnchorPoint: "B" 324 -607 basechar 0
AnchorPoint: "AL" 51 1670 basechar 0
AnchorPoint: "A" 324 1720 basechar 0
AnchorPoint: "F" 1151 0 exit 0
AnchorPoint: "R" 1151 430 exit 0
AnchorPoint: "C" 1386 1518 exit 0
AnchorPoint: "S" 1386 1242 exit 0
LayerCount: 3
Fore
SplineSet
1285 1275 m 1,0,-1
 1045 1275 l 1,1,-1
 1045 0 l 1,2,-1
 142 0 l 1,3,-1
 142 204 l 1,4,-1
 818 205 l 1,5,-1
 825 1275 l 1,6,-1
 101 1275 l 1,7,-1
 101 1483 l 1,8,-1
 1285 1483 l 1,9,-1
 1285 1275 l 1,0,-1
EndSplineSet
MultipleSubs2: "ConsToneB-1" u16F20 u16F92
MultipleSubs2: "ConsToneR-1" u16F20 u16F8F
MultipleSubs2: "ConsToneT-1" u16F20 u16F90
MultipleSubs2: "ConsToneA-1" u16F20 u16F91
EndChar

StartChar: u16F21
Encoding: 170 93985 34
Width: 1459
VWidth: 2023
GlyphClass: 2
Flags: W
AnchorPoint: "BL" 51 -607 basechar 0
AnchorPoint: "B" 430 -607 basechar 0
AnchorPoint: "AL" 51 1670 basechar 0
AnchorPoint: "A" 430 1720 basechar 0
AnchorPoint: "F" 1012 0 exit 0
AnchorPoint: "R" 1012 430 exit 0
AnchorPoint: "C" 1459 1518 exit 0
AnchorPoint: "S" 1459 1242 exit 0
LayerCount: 3
Fore
SplineSet
1358 1275 m 5,0,-1
 904 1275 l 5,1,-1
 904 0 l 5,2,-1
 292 0 l 5,3,-1
 292 204 l 5,4,-1
 693 204 l 5,5,-1
 693 1275 l 5,6,-1
 101 1275 l 5,7,-1
 101 1483 l 5,8,-1
 1358 1483 l 5,9,-1
 1358 1275 l 5,0,-1
EndSplineSet
MultipleSubs2: "ConsToneB-1" u16F21 u16F92
MultipleSubs2: "ConsToneR-1" u16F21 u16F8F
MultipleSubs2: "ConsToneT-1" u16F21 u16F90
MultipleSubs2: "ConsToneA-1" u16F21 u16F91
EndChar

StartChar: u16F22
Encoding: 171 93986 35
Width: 1459
VWidth: 2023
GlyphClass: 2
Flags: W
AnchorPoint: "BL" 51 -607 basechar 0
AnchorPoint: "B" 430 -607 basechar 0
AnchorPoint: "AL" 51 1670 basechar 0
AnchorPoint: "A" 430 1720 basechar 0
AnchorPoint: "F" 1012 0 exit 0
AnchorPoint: "R" 1012 430 exit 0
AnchorPoint: "C" 1459 1518 exit 0
AnchorPoint: "S" 1459 1242 exit 0
LayerCount: 3
Back
SplineSet
1358 1275 m 1,0,-1
 904 1275 l 1,1,-1
 904 0 l 1,2,-1
 159 0 l 1,3,-1
 159 204 l 1,4,-1
 693 204 l 1,5,-1
 693 523 l 1,6,-1
 598 523 l 2,7,8
 391 523 391 523 391 733 c 1,9,10
 400 938 400 938 590 938 c 2,11,-1
 693 938 l 1,12,-1
 693 1275 l 1,13,-1
 101 1275 l 1,14,-1
 101 1483 l 1,15,-1
 1358 1483 l 1,16,-1
 1358 1275 l 1,0,-1
693 637 m 1,17,-1
 693 822 l 1,18,-1
 592 822 l 2,19,20
 508 822 508 822 508 732 c 0,21,22
 508 637 508 637 591 637 c 2,23,-1
 591 637 l 1,24,-1
 693 637 l 1,17,-1
EndSplineSet
Fore
SplineSet
1358 1275 m 1,0,-1
 904 1275 l 1,1,-1
 904 0 l 1,2,-1
 162 0 l 1,3,-1
 162 204 l 1,4,-1
 693 204 l 1,5,-1
 693 430 l 1,6,-1
 568 430 l 2,7,8
 449 430 449 430 371 514 c 128,-1,9
 293 598 293 598 293 730 c 128,-1,10
 293 862 293 862 371 946 c 128,-1,11
 449 1030 449 1030 568 1030 c 2,12,-1
 693 1030 l 1,13,-1
 693 1275 l 1,14,-1
 101 1275 l 1,15,-1
 101 1483 l 1,16,-1
 1358 1483 l 1,17,-1
 1358 1275 l 1,0,-1
693 550 m 1,18,-1
 693 910 l 1,19,-1
 586 910 l 2,20,21
 504 910 504 910 458.5 861.5 c 128,-1,22
 413 813 413 813 413 730 c 128,-1,23
 413 647 413 647 458.5 598.5 c 128,-1,24
 504 550 504 550 586 550 c 2,25,-1
 693 550 l 1,18,-1
EndSplineSet
Substitution2: "noWart-1" u16F22.nowart
Substitution2: "dotWart-1" u16F22.dot
MultipleSubs2: "ConsToneB-1" u16F22 u16F92
MultipleSubs2: "ConsToneR-1" u16F22 u16F8F
MultipleSubs2: "ConsToneT-1" u16F22 u16F90
MultipleSubs2: "ConsToneA-1" u16F22 u16F91
EndChar

StartChar: u16F23
Encoding: 172 93987 36
Width: 1238
VWidth: 2023
GlyphClass: 2
Flags: W
AnchorPoint: "SP" 202 1356 basechar 0
AnchorPoint: "BL" 51 -607 basechar 0
AnchorPoint: "B" 249 -607 basechar 0
AnchorPoint: "AL" 51 1670 basechar 0
AnchorPoint: "A" 249 1720 basechar 0
AnchorPoint: "F" 1238 0 exit 0
AnchorPoint: "R" 1238 430 exit 0
AnchorPoint: "C" 1238 1518 exit 0
AnchorPoint: "S" 1238 1242 exit 0
LayerCount: 3
Fore
SplineSet
722 317 m 5,0,1
 724 155 l 5,2,-1
 847 155 l 6,3,4
 927 155 927 155 985 297 c 4,5,6
 996 324 996 324 995.5 369 c 132,-1,7
 995 414 995 414 957 461 c 5,8,9
 917 510 917 510 870 510 c 132,-1,10
 823 510 823 510 797.5 491 c 132,-1,11
 772 472 772 472 747 428 c 132,-1,12
 722 384 722 384 722 317 c 5,0,1
1137 331 m 5,13,14
 1137 325 1137 325 1137 320 c 4,15,16
 1137 -8 1137 -8 817 -8 c 4,17,18
 815 -8 815 -8 813 -8 c 4,19,20
 309 -4 309 -4 159 352 c 4,21,22
 101 490 101 490 101 708 c 4,23,24
 101 793 101 793 106 867 c 4,25,26
 129 1199 129 1199 328 1359 c 4,27,28
 439 1448 439 1448 568 1471 c 4,29,30
 622 1481 622 1481 750 1480.5 c 132,-1,31
 878 1480 878 1480 973 1431 c 4,32,33
 1003 1415 1003 1415 1033 1401 c 5,34,-1
 970 1216 l 5,35,-1
 943 1226 l 6,36,37
 926 1232 926 1232 872 1256 c 4,38,39
 820 1280 820 1280 789 1280 c 4,40,41
 788 1280 788 1280 786 1280 c 4,42,43
 770 1279 770 1279 692 1279 c 4,44,45
 618 1279 618 1279 575 1266 c 4,46,47
 337 1194 337 1194 311 808 c 4,48,49
 308 759 308 759 308 666.5 c 132,-1,50
 308 574 308 574 325.5 506 c 132,-1,51
 343 438 343 438 387 345 c 4,52,53
 430 251 430 251 504 222 c 6,54,-1
 574 194 l 5,55,-1
 568 361 l 6,56,57
 568 365 568 365 567 369 c 4,58,59
 567 418 567 418 588 471 c 4,60,61
 611 528 611 528 649 570 c 4,62,63
 732 663 732 663 857 663 c 132,-1,65
 982 663 982 663 1059.5 564 c 132,-1,66
 1137 465 1137 465 1137 331 c 5,13,14
EndSplineSet
Substitution2: "hmdStyle-1" u16F23.hmd
MultipleSubs2: "ConsToneB-1" u16F23 u16F92
MultipleSubs2: "ConsToneR-1" u16F23 u16F8F
MultipleSubs2: "ConsToneT-1" u16F23 u16F90
MultipleSubs2: "ConsToneA-1" u16F23 u16F91
EndChar

StartChar: u16F28
Encoding: 173 93992 37
Width: 418
VWidth: 2023
GlyphClass: 2
Flags: W
AnchorPoint: "BL" 51 -607 basechar 0
AnchorPoint: "B" -160 -607 basechar 0
AnchorPoint: "AL" 51 1670 basechar 0
AnchorPoint: "A" -160 1720 basechar 0
AnchorPoint: "F" 419 0 exit 0
AnchorPoint: "R" 419 430 exit 0
AnchorPoint: "C" 419 1518 exit 0
AnchorPoint: "S" 419 1242 exit 0
LayerCount: 3
Fore
SplineSet
318 0 m 5,0,-1
 101 0 l 5,1,-1
 101 1483 l 5,2,-1
 318 1483 l 5,3,-1
 318 0 l 5,0,-1
EndSplineSet
MultipleSubs2: "ConsToneB-1" u16F28 u16F92
MultipleSubs2: "ConsToneR-1" u16F28 u16F8F
MultipleSubs2: "ConsToneT-1" u16F28 u16F90
MultipleSubs2: "ConsToneA-1" u16F28 u16F91
EndChar

StartChar: u16F25
Encoding: 174 93989 38
Width: 1350
VWidth: 2023
GlyphClass: 2
Flags: W
AnchorPoint: "BL" 51 -607 basechar 0
AnchorPoint: "B" 306 -607 basechar 0
AnchorPoint: "AL" 51 1670 basechar 0
AnchorPoint: "A" 306 1720 basechar 0
AnchorPoint: "F" 1351 0 exit 0
AnchorPoint: "R" 1351 430 exit 0
AnchorPoint: "C" 1351 1518 exit 0
AnchorPoint: "S" 1351 1242 exit 0
LayerCount: 3
Fore
SplineSet
1075 746 m 1,0,1
 982 742 982 742 960 680 c 0,2,3
 950 652 950 652 950 620 c 128,-1,4
 950 588 950 588 952 573.5 c 128,-1,5
 954 559 954 559 958.5 545 c 128,-1,6
 963 531 963 531 969.5 518 c 128,-1,7
 976 505 976 505 986 495 c 0,8,9
 1014 465 1014 465 1054 464 c 2,10,-1
 1073 464 l 1,11,-1
 1074 414 l 1,12,-1
 1049 414 l 2,13,14
 953 414 953 414 913 514 c 0,15,16
 896 556 896 556 896 593 c 128,-1,18
 896 630 896 630 900.5 654.5 c 128,-1,19
 905 679 905 679 914 700.5 c 128,-1,20
 923 722 923 722 936.5 739.5 c 128,-1,21
 950 757 950 757 968 770 c 0,22,23
 1006 795 1006 795 1063 795 c 1,24,-1
 1075 795 l 1,25,-1
 1075 746 l 1,0,1
1087 643 m 128,-1,27
 1113 643 1113 643 1113 617.5 c 128,-1,28
 1113 592 1113 592 1087.5 592 c 128,-1,29
 1062 592 1062 592 1061.5 617.5 c 128,-1,26
 1061 643 1061 643 1087 643 c 128,-1,27
1148.5 432 m 128,-1,31
 1166 494 1166 494 1166 561.5 c 128,-1,32
 1166 629 1166 629 1148.5 691 c 128,-1,33
 1131 753 1131 753 1099 807 c 0,34,35
 1068 861 1068 861 1023 906 c 128,-1,36
 978 951 978 951 924 983 c 128,-1,37
 870 1015 870 1015 808 1032.5 c 128,-1,38
 746 1050 746 1050 678.5 1050 c 128,-1,39
 611 1050 611 1050 548.5 1032.5 c 128,-1,40
 486 1015 486 1015 431.5 983 c 128,-1,41
 377 951 377 951 332.5 906.5 c 128,-1,42
 288 862 288 862 256.5 807.5 c 128,-1,43
 225 753 225 753 207.5 691 c 128,-1,44
 190 629 190 629 190 561.5 c 128,-1,45
 190 494 190 494 207.5 431.5 c 128,-1,46
 225 369 225 369 256.5 315 c 128,-1,47
 288 261 288 261 332.5 216.5 c 128,-1,48
 377 172 377 172 431.5 140 c 128,-1,49
 486 108 486 108 548.5 90.5 c 128,-1,50
 611 73 611 73 678.5 73 c 128,-1,51
 746 73 746 73 808 90.5 c 128,-1,52
 870 108 870 108 924 140 c 128,-1,53
 978 172 978 172 1023 216.5 c 128,-1,54
 1068 261 1068 261 1099.5 315.5 c 128,-1,30
 1131 370 1131 370 1148.5 432 c 128,-1,31
269 162 m 128,-1,56
 101 331 101 331 101 570 c 0,57,58
 101 808 101 808 269.5 976 c 128,-1,59
 438 1144 438 1144 676 1144 c 0,60,61
 913 1144 913 1144 1082 975 c 0,62,63
 1250 807 1250 807 1250 569 c 128,-1,65
 1250 331 1250 331 1082 162 c 0,66,67
 914 -6 914 -6 675.5 -6.5 c 128,-1,68
 437 -7 437 -7 269 162 c 128,-1,56
419 734 m 1,69,-1
 400 734 l 1,70,-1
 346 551 l 1,71,-1
 472 551 l 1,72,-1
 419 734 l 1,69,-1
442 822 m 1,73,-1
 571 407 l 1,74,-1
 515 407 l 1,75,-1
 486 502 l 1,76,-1
 332 502 l 1,77,-1
 332 504 l 1,78,-1
 304 407 l 1,79,-1
 249 407 l 1,80,-1
 378 822 l 1,81,-1
 442 822 l 1,73,-1
743 633 m 2,82,83
 812 633 812 633 812 698 c 128,-1,84
 812 763 812 763 750 763 c 2,85,-1
 645 763 l 1,86,-1
 645 633 l 1,87,-1
 743 633 l 2,82,83
792 585 m 1,88,-1
 873 406 l 1,89,-1
 809 406 l 1,90,-1
 741 577 l 1,91,-1
 645 577 l 1,92,-1
 645 406 l 1,93,-1
 587 406 l 1,94,-1
 587 821 l 1,95,-1
 755 821 l 2,96,97
 821 821 821 821 855 760 c 0,98,99
 870 733 870 733 870 707 c 128,-1,100
 870 681 870 681 864.5 663.5 c 128,-1,101
 859 646 859 646 849 631 c 0,102,103
 827 599 827 599 792 585 c 1,88,-1
EndSplineSet
MultipleSubs2: "ConsToneB-1" u16F25 u16F92
MultipleSubs2: "ConsToneR-1" u16F25 u16F8F
MultipleSubs2: "ConsToneT-1" u16F25 u16F90
MultipleSubs2: "ConsToneA-1" u16F25 u16F91
EndChar

StartChar: u16F2A
Encoding: 175 93994 39
Width: 1325
VWidth: 2023
GlyphClass: 2
Flags: W
AnchorPoint: "BL" 51 -607 basechar 0
AnchorPoint: "B" 309 -607 basechar 0
AnchorPoint: "AL" 51 1670 basechar 0
AnchorPoint: "A" 309 1720 basechar 0
AnchorPoint: "F" 1326 0 exit 0
AnchorPoint: "R" 885 430 exit 0
AnchorPoint: "C" 885 1518 exit 0
AnchorPoint: "S" 885 1242 exit 0
LayerCount: 3
Fore
SplineSet
1224 0 m 5,0,-1
 101 0 l 5,1,-1
 101 208 l 5,2,-1
 571 208 l 5,3,-1
 571 1275 l 5,4,-1
 154 1275 l 5,5,-1
 154 1483 l 5,6,-1
 786 1483 l 5,7,-1
 786 208 l 5,8,-1
 1224 208 l 5,9,-1
 1224 0 l 5,0,-1
EndSplineSet
MultipleSubs2: "ConsToneB-1" u16F2A u16F92
MultipleSubs2: "ConsToneR-1" u16F2A u16F8F
MultipleSubs2: "ConsToneT-1" u16F2A u16F90
MultipleSubs2: "ConsToneA-1" u16F2A u16F91
EndChar

StartChar: u16F2B
Encoding: 176 93995 40
Width: 1325
VWidth: 2023
GlyphClass: 2
Flags: W
AnchorPoint: "BL" 51 -607 basechar 0
AnchorPoint: "B" 309 -607 basechar 0
AnchorPoint: "AL" 51 1670 basechar 0
AnchorPoint: "A" 309 1720 basechar 0
AnchorPoint: "F" 1326 0 exit 0
AnchorPoint: "R" 885 430 exit 0
AnchorPoint: "C" 885 1518 exit 0
AnchorPoint: "S" 885 1242 exit 0
LayerCount: 3
Back
SplineSet
1224 0 m 1,0,-1
 101 0 l 1,1,-1
 101 208 l 1,2,-1
 571 208 l 1,3,-1
 571 533 l 1,4,-1
 497 533 l 2,5,6
 290 533 290 533 290 743 c 1,7,8
 299 948 299 948 489 948 c 2,9,-1
 571 948 l 1,10,-1
 571 1275 l 1,11,-1
 154 1275 l 1,12,-1
 154 1483 l 1,13,-1
 786 1483 l 1,14,-1
 786 208 l 1,15,-1
 1224 208 l 1,16,-1
 1224 0 l 1,0,-1
571 647 m 1,17,-1
 571 832 l 1,18,-1
 491 832 l 2,19,20
 407 832 407 832 407 742 c 0,21,22
 407 647 407 647 490 647 c 2,23,-1
 490 647 l 1,24,-1
 571 647 l 1,17,-1
EndSplineSet
Fore
SplineSet
1224 0 m 1,0,-1
 101 0 l 1,1,-1
 101 208 l 1,2,-1
 571 208 l 1,3,-1
 571 440 l 1,4,-1
 469 440 l 2,5,6
 350 440 350 440 272 524 c 128,-1,7
 194 608 194 608 194 740 c 128,-1,8
 194 872 194 872 272 956 c 128,-1,9
 350 1040 350 1040 469 1040 c 2,10,-1
 571 1040 l 1,11,-1
 571 1275 l 1,12,-1
 154 1275 l 1,13,-1
 154 1483 l 1,14,-1
 786 1483 l 1,15,-1
 786 208 l 1,16,-1
 1224 208 l 1,17,-1
 1224 0 l 1,0,-1
571 560 m 1,18,-1
 571 920 l 1,19,-1
 487 920 l 2,20,21
 405 920 405 920 359.5 871.5 c 128,-1,22
 314 823 314 823 314 740 c 128,-1,23
 314 657 314 657 359.5 608.5 c 128,-1,24
 405 560 405 560 487 560 c 2,25,-1
 571 560 l 1,18,-1
EndSplineSet
Substitution2: "noWart-1" u16F2B.nowart
Substitution2: "dotWart-1" u16F2B.dot
MultipleSubs2: "ConsToneB-1" u16F2B u16F92
MultipleSubs2: "ConsToneR-1" u16F2B u16F8F
MultipleSubs2: "ConsToneT-1" u16F2B u16F90
MultipleSubs2: "ConsToneA-1" u16F2B u16F91
EndChar

StartChar: u16F32
Encoding: 177 94002 41
Width: 1325
VWidth: 2023
GlyphClass: 2
Flags: W
AnchorPoint: "SP" 405 1356 basechar 0
AnchorPoint: "BL" 51 -607 basechar 0
AnchorPoint: "B" 276 -607 basechar 0
AnchorPoint: "AL" 51 1670 basechar 0
AnchorPoint: "A" 276 1720 basechar 0
AnchorPoint: "F" 1326 0 exit 0
AnchorPoint: "R" 860 430 exit 0
AnchorPoint: "C" 1326 1518 exit 0
AnchorPoint: "S" 1326 1242 exit 0
LayerCount: 3
Fore
SplineSet
1224 0 m 1,0,-1
 101 0 l 1,1,-1
 101 206 l 1,2,-1
 537 206 l 1,3,-1
 537 1483 l 1,4,-1
 1192 1483 l 1,5,-1
 1192 1277 l 1,6,-1
 750 1277 l 1,7,-1
 750 206 l 1,8,-1
 1224 206 l 1,9,-1
 1224 0 l 1,0,-1
EndSplineSet
MultipleSubs2: "ConsToneA-1" u16F32 u16F91
MultipleSubs2: "ConsToneT-1" u16F32 u16F90
MultipleSubs2: "ConsToneR-1" u16F32 u16F8F
MultipleSubs2: "ConsToneB-1" u16F32 u16F92
EndChar

StartChar: u16F2C
Encoding: 178 93996 42
Width: 1204
VWidth: 2023
GlyphClass: 2
Flags: W
AnchorPoint: "BL" 51 -607 basechar 0
AnchorPoint: "B" 250 -607 basechar 0
AnchorPoint: "AL" 51 1670 basechar 0
AnchorPoint: "A" 250 1720 basechar 0
AnchorPoint: "F" 1204 0 exit 0
AnchorPoint: "R" 1204 430 exit 0
AnchorPoint: "C" 1204 1518 exit 0
AnchorPoint: "S" 1204 1242 exit 0
LayerCount: 3
Fore
SplineSet
1103 421 m 5,0,1
 1071 -26 1071 -26 586 -26 c 132,-1,2
 101 -26 101 -26 101 379 c 4,3,4
 101 767 101 767 412 798 c 4,5,6
 412 799 412 799 412 804 c 5,7,8
 101 834 101 834 101 1254 c 4,9,10
 101 1255 101 1255 101 1257 c 4,11,12
 102 1527 102 1527 593 1560 c 4,13,14
 622 1562 622 1562 651 1562 c 4,15,16
 1062 1561 1062 1561 1103 1132 c 5,17,-1
 901 1132 l 5,18,19
 900 1355 900 1355 603 1355 c 132,-1,20
 306 1355 306 1355 306 1157 c 5,21,22
 308 929 308 929 730 914 c 5,23,-1
 728 681 l 5,24,25
 307 681 307 681 306 381 c 4,26,27
 306 380 l 4,28,29
 306 170 306 170 598 170 c 132,-1,30
 890 170 890 170 901 421 c 5,31,-1
 1103 421 l 5,0,1
EndSplineSet
MultipleSubs2: "ConsToneB-1" u16F2C u16F92
MultipleSubs2: "ConsToneR-1" u16F2C u16F8F
MultipleSubs2: "ConsToneT-1" u16F2C u16F90
MultipleSubs2: "ConsToneA-1" u16F2C u16F91
EndChar

StartChar: u16F2D
Encoding: 179 93997 43
Width: 1505
VWidth: 2023
GlyphClass: 2
Flags: W
AnchorPoint: "BL" 845.847 -513 basechar 0
AnchorPoint: "B" 1239.85 -513 basechar 0
AnchorPoint: "AL" 845.847 1764 basechar 0
AnchorPoint: "A" 1239.85 1814 basechar 0
AnchorPoint: "F" 2210.85 94 exit 0
AnchorPoint: "R" 2210.85 524 exit 0
AnchorPoint: "C" 2210.85 1612 exit 0
AnchorPoint: "S" 2210.85 1336 exit 0
LayerCount: 3
Back
SplineSet
1405 421 m 1,0,1
 1373 -26 1373 -26 896 -26 c 0,2,3
 395 -26 395 -26 396 381 c 0,4,5
 396 506 396 506 433 596 c 1,6,-1
 398 596 l 2,7,8
 191 596 191 596 191 806 c 1,9,10
 200 1011 200 1011 391 1011 c 2,11,-1
 417 1011 l 1,12,13
 398 1074 398 1074 396 1158 c 0,14,15
 390 1553 390 1553 895 1560 c 1,16,17
 1414 1567 1414 1567 1405 1132 c 1,18,-1
 1203 1132 l 1,19,20
 1202 1355 1202 1355 897 1355 c 0,21,22
 608 1355 608 1355 608 1157 c 1,23,24
 610 929 610 929 1032 914 c 1,25,-1
 1030 681 l 1,26,27
 610 681 610 681 608 381 c 0,28,29
 607 170 607 170 896 170 c 0,30,31
 1191 170 1191 170 1203 421 c 1,32,-1
 1405 421 l 1,0,1
740 808 m 1,33,34
 568 804 568 804 482 894 c 1,35,-1
 392 894 l 2,36,37
 308 894 308 894 308 805 c 0,38,39
 308 710 308 710 391 710 c 2,40,-1
 392 710 l 1,41,-1
 511 710 l 1,42,43
 595 789 595 789 740 808 c 1,33,34
EndSplineSet
Fore
SplineSet
447.581054688 623 m 1,0,1
 467.134765625 660.578125 467.134765625 660.578125 493.846679688 691 c 0,2,3
 529.846679688 732 529.846679688 732 590.846679688 763 c 128,-1,4
 651.846679688 794 651.846679688 794 730.846679688 806 c 1,5,6
 647.846679688 806 647.846679688 806 585.346679688 828.5 c 128,-1,7
 522.846679688 851 522.846679688 851 487.346679688 885 c 128,-1,8
 451.846679688 919 451.846679688 919 430.346679688 968 c 0,9,10
 427.032226562 975.553710938 427.032226562 975.553710938 424.0625 983 c 1,11,-1
 392.846679688 983 l 2,12,13
 310.846679688 983 310.846679688 983 265.346679688 934.5 c 128,-1,14
 219.846679688 886 219.846679688 886 219.846679688 803 c 128,-1,15
 219.846679688 720 219.846679688 720 265.346679688 671.5 c 128,-1,16
 310.846679688 623 310.846679688 623 392.846679688 623 c 2,17,-1
 447.581054688 623 l 1,0,1
1404.84667969 421 m 1,18,19
 1372.84667969 -26 1372.84667969 -26 895.846679688 -26 c 0,20,21
 395.846679688 -26 395.846679688 -26 395.846679688 381 c 0,22,23
 395.846679688 439 395.846679688 439 403.846679688 490.5 c 0,24,25
 404.814453125 496.731445312 404.814453125 496.731445312 406.001953125 503 c 1,26,-1
 374.846679688 503 l 2,27,28
 255.846679688 503 255.846679688 503 177.846679688 587 c 128,-1,29
 99.8466796875 671 99.8466796875 671 99.8466796875 803 c 128,-1,30
 99.8466796875 935 99.8466796875 935 177.846679688 1019 c 128,-1,31
 255.846679688 1103 255.846679688 1103 374.846679688 1103 c 2,32,-1
 397.171875 1103 l 1,33,34
 395.295898438 1129.36230469 395.295898438 1129.36230469 395.846679688 1158 c 0,35,36
 397.846679688 1357 397.846679688 1357 520.846679688 1457 c 128,-1,37
 643.846679688 1557 643.846679688 1557 894.846679688 1560 c 0,38,39
 1413.84667969 1567 1413.84667969 1567 1404.84667969 1132 c 1,40,-1
 1202.84667969 1132 l 1,41,42
 1201.84667969 1355 1201.84667969 1355 896.846679688 1355 c 0,43,44
 607.846679688 1355 607.846679688 1355 607.846679688 1157 c 0,45,46
 609.846679688 929 609.846679688 929 1031.84667969 914 c 1,47,-1
 1029.84667969 681 l 1,48,49
 609.846679688 681 609.846679688 681 607.846679688 381 c 0,50,51
 606.846679688 170 606.846679688 170 895.846679688 170 c 0,52,53
 1190.84667969 170 1190.84667969 170 1202.84667969 421 c 1,54,-1
 1404.84667969 421 l 1,18,19
EndSplineSet
Layer: 2
SplineSet
540 623 m 5
 540 623 403 623 393 623 c 4
 283 623 220 693 220 803 c 4
 220 913 283 983 393 983 c 4
 403 983 540 983 540 983 c 5
 540 1103 l 5
 540 1103 385 1103 375 1103 c 4
 218 1103 100 980 100 803 c 4
 100 626 218 503 375 503 c 4
 385 503 540 503 540 503 c 5
 540 503 540 623 540 623 c 5
1405 421 m 5
 1383.66699219 123 1214 -26 896 -26 c 4
 562 -26 396 109.666015625 396 381 c 4
 396 560 456 766 731 806 c 5
 442.743164062 806 394.103515625 1003.6640625 396 1158 c 4
 399.236328125 1421.34375 558.333007812 1555.33300781 895 1560 c 5
 1241 1564.66699219 1411 1422 1405 1132 c 5
 1203 1132 l 5
 1202.33300781 1280.66699219 1100.33300781 1355 897 1355 c 4
 704.333007812 1355 608 1289 608 1157 c 5
 609.333007812 1005 750.666992188 924 1032 914 c 5
 1030 681 l 5
 750 681 609.333007812 581 608 381 c 4
 607.333007812 240.333007812 703.333007812 170 896 170 c 4
 1092.66699219 170 1195 253.666992188 1203 421 c 5
 1405 421 l 5
EndSplineSet
MultipleSubs2: "ConsToneA-1" u16F2D u16F91
MultipleSubs2: "ConsToneT-1" u16F2D u16F90
MultipleSubs2: "ConsToneR-1" u16F2D u16F8F
MultipleSubs2: "ConsToneB-1" u16F2D u16F92
EndChar

StartChar: u16F2E
Encoding: 180 93998 44
Width: 1226
VWidth: 2023
GlyphClass: 2
Flags: W
AnchorPoint: "BL" 51 -607 basechar 0
AnchorPoint: "B" 244 -607 basechar 0
AnchorPoint: "AL" 51 1670 basechar 0
AnchorPoint: "A" 244 1720 basechar 0
AnchorPoint: "F" 1226 0 exit 0
AnchorPoint: "R" 617 430 exit 0
AnchorPoint: "C" 1226 1518 exit 0
AnchorPoint: "S" 1226 1242 exit 0
LayerCount: 3
Fore
SplineSet
1125 0 m 5,0,-1
 101 0 l 5,1,-1
 101 1483 l 5,2,-1
 1125 1483 l 5,3,-1
 1125 1279 l 5,4,-1
 312 1279 l 5,5,-1
 312 204 l 5,6,-1
 1125 204 l 5,7,-1
 1125 0 l 5,0,-1
EndSplineSet
MultipleSubs2: "ConsToneB-1" u16F2E u16F92
MultipleSubs2: "ConsToneR-1" u16F2E u16F8F
MultipleSubs2: "ConsToneT-1" u16F2E u16F90
MultipleSubs2: "ConsToneA-1" u16F2E u16F91
EndChar

StartChar: u16F2F
Encoding: 181 93999 45
Width: 1611
VWidth: 2023
GlyphClass: 2
Flags: W
AnchorPoint: "SP" 343 1356 basechar 0
AnchorPoint: "BL" 141 -607 basechar 0
AnchorPoint: "B" 481 -607 basechar 0
AnchorPoint: "AL" 141 1670 basechar 0
AnchorPoint: "A" 481 1720 basechar 0
AnchorPoint: "F" 1611 0 exit 0
AnchorPoint: "R" 979 430 exit 0
AnchorPoint: "C" 1611 1518 exit 0
AnchorPoint: "S" 1611 1242 exit 0
LayerCount: 3
Back
SplineSet
1510 0 m 1,0,-1
 486 0 l 1,1,-1
 486 572 l 1,2,-1
 398 572 l 2,3,4
 191 572 191 572 191 782 c 1,5,6
 200 987 200 987 391 987 c 2,7,-1
 486 987 l 1,8,-1
 486 1483 l 1,9,-1
 1510 1483 l 1,10,-1
 1510 1279 l 1,11,-1
 697 1279 l 1,12,-1
 697 204 l 1,13,-1
 1510 204 l 1,14,-1
 1510 0 l 1,0,-1
486 686 m 1,15,-1
 486 871 l 1,16,-1
 392 871 l 2,17,18
 308 871 308 871 308 781 c 0,19,20
 308 686 308 686 391 686 c 2,21,-1
 392 686 l 1,22,-1
 486 686 l 1,15,-1
EndSplineSet
Fore
SplineSet
1510 0 m 1,0,-1
 486 0 l 1,1,-1
 486 478 l 1,2,-1
 375 478 l 2,3,4
 256 478 256 478 178 562 c 128,-1,5
 100 646 100 646 100 778 c 128,-1,6
 100 910 100 910 178 994 c 128,-1,7
 256 1078 256 1078 375 1078 c 2,8,-1
 486 1078 l 1,9,-1
 486 1483 l 1,10,-1
 1510 1483 l 1,11,-1
 1510 1279 l 1,12,-1
 697 1279 l 1,13,-1
 697 204 l 1,14,-1
 1510 204 l 1,15,-1
 1510 0 l 1,0,-1
486 958 m 1,16,-1
 393 958 l 2,17,18
 311 958 311 958 265.5 909.5 c 128,-1,19
 220 861 220 861 220 778 c 128,-1,20
 220 695 220 695 265.5 646.5 c 128,-1,21
 311 598 311 598 393 598 c 2,22,-1
 486 598 l 1,23,-1
 486 958 l 1,16,-1
EndSplineSet
MultipleSubs2: "ConsToneB-1" u16F2F u16F92
MultipleSubs2: "ConsToneR-1" u16F2F u16F8F
MultipleSubs2: "ConsToneT-1" u16F2F u16F90
MultipleSubs2: "ConsToneA-1" u16F2F u16F91
Substitution2: "noWart-1" u16F30.nowart
Substitution2: "dotWart-1" u16F30.dot
Substitution2: "lpoStyle-1" u16F30.lpo
EndChar

StartChar: u16F30
Encoding: 182 94000 46
Width: 1366
VWidth: 2023
GlyphClass: 2
Flags: W
AnchorPoint: "BL" 51 -607 basechar 0
AnchorPoint: "B" 134 -607 basechar 0
AnchorPoint: "AL" 51 1670 basechar 0
AnchorPoint: "A" 134 1720 basechar 0
AnchorPoint: "F" 1366 0 exit 0
AnchorPoint: "R" 830 430 exit 0
AnchorPoint: "C" 1366 1518 exit 0
AnchorPoint: "S" 1366 1242 exit 0
LayerCount: 3
Fore
SplineSet
1265 1277 m 1,0,-1
 609 1277 l 1,1,-1
 609 200 l 1,2,-1
 1265 200 l 1,3,-1
 1265 0 l 1,4,-1
 398 0 l 1,5,-1
 398 1277 l 1,6,-1
 101 1277 l 1,7,-1
 101 1483 l 1,8,-1
 1265 1483 l 1,9,-1
 1265 1277 l 1,0,-1
EndSplineSet
MultipleSubs2: "ConsToneA-1" u16F30 u16F91
MultipleSubs2: "ConsToneT-1" u16F30 u16F90
MultipleSubs2: "ConsToneR-1" u16F30 u16F8F
MultipleSubs2: "ConsToneB-1" u16F30 u16F92
EndChar

StartChar: u16F33
Encoding: 183 94003 47
Width: 1029
VWidth: 2023
GlyphClass: 2
Flags: W
AnchorPoint: "SP" 629 1356 basechar 0
AnchorPoint: "BL" 51 -607 basechar 0
AnchorPoint: "B" 240 -607 basechar 0
AnchorPoint: "AL" 280 1670 basechar 0
AnchorPoint: "A" 515 1720 basechar 0
AnchorPoint: "F" 1029 0 exit 0
AnchorPoint: "R" 1029 430 exit 0
AnchorPoint: "C" 1029 1518 exit 0
AnchorPoint: "S" 1029 1242 exit 0
LayerCount: 3
Fore
SplineSet
989 1481 m 1,0,1
 982 1367 982 1367 976.5 1251.5 c 128,-1,2
 971 1136 971 1136 962.5 1021 c 128,-1,3
 954 906 954 906 940 792 c 128,-1,4
 926 678 926 678 901 566 c 0,5,6
 891 520 891 520 877 477 c 128,-1,7
 863 434 863 434 843.5 394.5 c 128,-1,8
 824 355 824 355 797.5 319 c 128,-1,9
 771 283 771 283 735 250 c 0,10,11
 696 214 696 214 647.5 185.5 c 128,-1,12
 599 157 599 157 545 134 c 128,-1,13
 491 111 491 111 433.5 93 c 128,-1,14
 376 75 376 75 318.5 60.5 c 128,-1,15
 261 46 261 46 205 33 c 128,-1,16
 149 20 149 20 98 8 c 1,17,-1
 40 187 l 1,18,19
 78 196 78 196 123 205 c 128,-1,20
 168 214 168 214 216 225 c 128,-1,21
 264 236 264 236 312.5 249.5 c 128,-1,22
 361 263 361 263 408 280 c 128,-1,23
 455 297 455 297 497.5 319.5 c 128,-1,24
 540 342 540 342 575.5 370 c 128,-1,25
 611 398 611 398 637.5 433.5 c 128,-1,26
 664 469 664 469 678 513 c 0,27,28
 701 584 701 584 716.5 662.5 c 128,-1,29
 732 741 732 741 742.5 823.5 c 128,-1,30
 753 906 753 906 759.5 991 c 128,-1,31
 766 1076 766 1076 770.5 1160 c 128,-1,32
 775 1244 775 1244 778 1325 c 128,-1,33
 781 1406 781 1406 785 1481 c 1,34,-1
 989 1481 l 1,0,1
EndSplineSet
Substitution2: "yclStyle-1" u16F33.ycl
Substitution2: "hmdStyle-1" u16F33.hmd
Substitution2: "lpoStyle-1" u16F33.lpo
MultipleSubs2: "ConsToneB-1" u16F33 u16F92
MultipleSubs2: "ConsToneR-1" u16F33 u16F8F
MultipleSubs2: "ConsToneT-1" u16F33 u16F90
MultipleSubs2: "ConsToneA-1" u16F33 u16F91
EndChar

StartChar: u16F34
Encoding: 184 94004 48
Width: 1158
VWidth: 2023
GlyphClass: 2
Flags: W
AnchorPoint: "BL" 51 -607 basechar 0
AnchorPoint: "B" 209 -607 basechar 0
AnchorPoint: "AL" 51 1670 basechar 0
AnchorPoint: "A" 209 1720 basechar 0
AnchorPoint: "F" 1158 0 exit 0
AnchorPoint: "R" 1158 430 exit 0
AnchorPoint: "C" 1158 1518 exit 0
AnchorPoint: "S" 1158 1242 exit 0
LayerCount: 3
Fore
SplineSet
1057 1481 m 1,0,1
 1053 1378 1053 1378 1046.5 1273.5 c 128,-1,2
 1040 1169 1040 1169 1027.5 1065 c 128,-1,3
 1015 961 1015 961 994 858.5 c 128,-1,4
 973 756 973 756 941 657 c 0,5,6
 909 560 909 560 866 481.5 c 128,-1,7
 823 403 823 403 769 339.5 c 128,-1,8
 715 276 715 276 651 226.5 c 128,-1,9
 587 177 587 177 512.5 137 c 128,-1,10
 438 97 438 97 353.5 65 c 128,-1,11
 269 33 269 33 175 7 c 1,12,-1
 102 197 l 1,13,14
 200 221 200 221 282.5 250.5 c 128,-1,15
 365 280 365 280 434 319 c 128,-1,16
 503 358 503 358 558.5 408.5 c 128,-1,17
 614 459 614 459 657 524 c 128,-1,18
 700 589 700 589 731 670.5 c 128,-1,19
 762 752 762 752 784 854 c 0,20,21
 806 958 806 958 820.5 1063.5 c 128,-1,22
 835 1169 835 1169 844 1275 c 1,23,-1
 101 1275 l 1,24,-1
 101 1481 l 1,25,-1
 1057 1481 l 1,0,1
EndSplineSet
Substitution2: "hmdStyle-1" u16F34.hmd
MultipleSubs2: "ConsToneB-1" u16F34 u16F92
MultipleSubs2: "ConsToneR-1" u16F34 u16F8F
MultipleSubs2: "ConsToneT-1" u16F34 u16F90
MultipleSubs2: "ConsToneA-1" u16F34 u16F91
EndChar

StartChar: u16F35
Encoding: 185 94005 49
Width: 1221
VWidth: 2023
GlyphClass: 2
Flags: W
AnchorPoint: "BL" 51 -607 basechar 0
AnchorPoint: "B" 241 -607 basechar 0
AnchorPoint: "AL" 51 1670 basechar 0
AnchorPoint: "A" 241 1720 basechar 0
AnchorPoint: "F" 1222 0 exit 0
AnchorPoint: "R" 1222 430 exit 0
AnchorPoint: "C" 1222 1518 exit 0
AnchorPoint: "S" 1222 1242 exit 0
LayerCount: 3
Fore
SplineSet
1121 0 m 5,0,-1
 893 0 l 5,1,-1
 650 614 l 5,2,-1
 308 614 l 5,3,-1
 308 0 l 5,4,-1
 101 0 l 5,5,-1
 101 1483 l 5,6,-1
 703 1483 l 6,7,8
 762 1483 762 1483 815 1467.5 c 132,-1,9
 868 1452 868 1452 913.5 1423 c 132,-1,10
 959 1394 959 1394 995.5 1354.5 c 132,-1,11
 1032 1315 1032 1315 1057.5 1267.5 c 132,-1,12
 1083 1220 1083 1220 1097 1166 c 132,-1,13
 1111 1112 1111 1112 1111 1054 c 4,14,15
 1111 985 1111 985 1091.5 922.5 c 132,-1,16
 1072 860 1072 860 1036 806 c 132,-1,17
 1000 752 1000 752 948.5 710 c 132,-1,18
 897 668 897 668 832 642 c 5,19,-1
 1121 0 l 5,0,-1
904 1049 m 4,20,21
 904 1103 904 1103 890 1145 c 132,-1,22
 876 1187 876 1187 848 1217 c 132,-1,23
 820 1247 820 1247 778.5 1262 c 132,-1,24
 737 1277 737 1277 681 1277 c 6,25,-1
 308 1277 l 5,26,-1
 308 814 l 5,27,-1
 658 814 l 6,28,29
 719 814 719 814 765 826.5 c 132,-1,30
 811 839 811 839 842 867.5 c 132,-1,31
 873 896 873 896 888.5 940.5 c 132,-1,32
 904 985 904 985 904 1049 c 4,20,21
EndSplineSet
MultipleSubs2: "ConsToneB-1" u16F35 u16F92
MultipleSubs2: "ConsToneR-1" u16F35 u16F8F
MultipleSubs2: "ConsToneT-1" u16F35 u16F90
MultipleSubs2: "ConsToneA-1" u16F35 u16F91
EndChar

StartChar: u16F36
Encoding: 186 94006 50
Width: 1611
VWidth: 2023
GlyphClass: 2
Flags: W
AnchorPoint: "SP" 349 1356 basechar 0
AnchorPoint: "BL" 147 -607 basechar 0
AnchorPoint: "B" 484 -607 basechar 0
AnchorPoint: "AL" 147 1670 basechar 0
AnchorPoint: "A" 484 1720 basechar 0
AnchorPoint: "F" 1611 0 exit 0
AnchorPoint: "R" 1611 430 exit 0
AnchorPoint: "C" 1611 1518 exit 0
AnchorPoint: "S" 1611 1242 exit 0
LayerCount: 3
Back
SplineSet
1294 1049 m 4,0,1
 1294 1103 1294 1103 1279.5 1145 c 132,-1,2
 1265 1187 1265 1187 1237.5 1217 c 132,-1,3
 1210 1247 1210 1247 1168 1262 c 132,-1,4
 1126 1277 1126 1277 1071 1277 c 6,5,-1
 698 1277 l 5,6,-1
 698 814 l 5,7,-1
 1048 814 l 6,8,9
 1109 814 1109 814 1154.5 826.5 c 132,-1,10
 1200 839 1200 839 1231 867.5 c 132,-1,11
 1262 896 1262 896 1278 940.5 c 132,-1,12
 1294 985 1294 985 1294 1049 c 4,0,1
1510 0 m 5,13,-1
 1282 0 l 5,14,-1
 1039 614 l 5,15,-1
 698 614 l 5,16,-1
 698 0 l 5,17,-1
 491 0 l 5,18,-1
 491 513 l 5,19,-1
 404 513 l 6,20,21
 197 513 197 513 197 722 c 5,22,23
 206 927 206 927 397 927 c 6,24,-1
 491 927 l 5,25,-1
 491 1483 l 5,26,-1
 1092 1483 l 6,27,28
 1151 1483 1151 1483 1204.5 1467.5 c 132,-1,29
 1258 1452 1258 1452 1303 1423 c 132,-1,30
 1348 1394 1348 1394 1384.5 1354.5 c 132,-1,31
 1421 1315 1421 1315 1446.5 1267.5 c 132,-1,32
 1472 1220 1472 1220 1486 1166 c 132,-1,33
 1500 1112 1500 1112 1500 1054 c 4,34,35
 1500 985 1500 985 1481 922.5 c 132,-1,36
 1462 860 1462 860 1426 806 c 132,-1,37
 1390 752 1390 752 1338 710 c 132,-1,38
 1286 668 1286 668 1221 642 c 5,39,-1
 1510 0 l 5,13,-1
491 627 m 5,40,-1
 491 811 l 5,41,-1
 398 811 l 6,42,43
 314 811 314 811 314 721 c 4,44,45
 314 626 314 626 397 626 c 6,46,-1
 398 626 l 5,47,-1
 491 627 l 5,40,-1
EndSplineSet
Fore
SplineSet
1294 1049 m 0,0,1
 1294 1103 1294 1103 1280 1145 c 128,-1,2
 1266 1187 1266 1187 1238 1217 c 128,-1,3
 1210 1247 1210 1247 1168.5 1262 c 128,-1,4
 1127 1277 1127 1277 1071 1277 c 2,5,-1
 698 1277 l 1,6,-1
 698 814 l 1,7,-1
 1048 814 l 2,8,9
 1109 814 1109 814 1155 826.5 c 128,-1,10
 1201 839 1201 839 1232 867.5 c 128,-1,11
 1263 896 1263 896 1278.5 940.5 c 128,-1,12
 1294 985 1294 985 1294 1049 c 0,0,1
1511 0 m 1,13,-1
 1283 0 l 1,14,-1
 1040 614 l 1,15,-1
 698 614 l 1,16,-1
 698 0 l 1,17,-1
 491 0 l 1,18,-1
 491 420 l 1,19,-1
 375 420 l 2,20,21
 256 420 256 420 178 504 c 128,-1,22
 100 588 100 588 100 720 c 128,-1,23
 100 852 100 852 178 936 c 128,-1,24
 256 1020 256 1020 375 1020 c 2,25,-1
 491 1020 l 1,26,-1
 491 1483 l 1,27,-1
 1093 1483 l 2,28,29
 1152 1483 1152 1483 1205 1467.5 c 128,-1,30
 1258 1452 1258 1452 1303.5 1423 c 128,-1,31
 1349 1394 1349 1394 1385.5 1354.5 c 128,-1,32
 1422 1315 1422 1315 1447.5 1267.5 c 128,-1,33
 1473 1220 1473 1220 1487 1166 c 128,-1,34
 1501 1112 1501 1112 1501 1054 c 0,35,36
 1501 985 1501 985 1481.5 922.5 c 128,-1,37
 1462 860 1462 860 1426 806 c 128,-1,38
 1390 752 1390 752 1338.5 710 c 128,-1,39
 1287 668 1287 668 1222 642 c 1,40,-1
 1511 0 l 1,13,-1
491 540 m 1,41,-1
 491 900 l 1,42,-1
 393 900 l 2,43,44
 311 900 311 900 265.5 851.5 c 128,-1,45
 220 803 220 803 220 720 c 128,-1,46
 220 637 220 637 265.5 588.5 c 128,-1,47
 311 540 311 540 393 540 c 2,48,-1
 491 540 l 1,41,-1
EndSplineSet
Substitution2: "noWart-1" u16F36.nowart
Substitution2: "dotWart-1" u16F36.dot
MultipleSubs2: "ConsToneB-1" u16F36 u16F92
MultipleSubs2: "ConsToneR-1" u16F36 u16F8F
MultipleSubs2: "ConsToneT-1" u16F36 u16F90
MultipleSubs2: "ConsToneA-1" u16F36 u16F91
EndChar

StartChar: u16F37
Encoding: 187 94007 51
Width: 1355
VWidth: 2023
GlyphClass: 2
Flags: W
AnchorPoint: "BL" 51 -607 basechar 0
AnchorPoint: "B" 309 -607 basechar 0
AnchorPoint: "AL" 51 1670 basechar 0
AnchorPoint: "A" 309 1720 basechar 0
AnchorPoint: "F" 885 0 exit 0
AnchorPoint: "R" 1255 430 exit 0
AnchorPoint: "C" 1356 1518 exit 0
AnchorPoint: "S" 1356 1242 exit 0
LayerCount: 3
Fore
SplineSet
1255 944 m 5,0,-1
 781 944 l 5,1,-1
 781 0 l 5,2,-1
 567 0 l 5,3,-1
 567 944 l 5,4,-1
 101 944 l 5,5,-1
 101 1143 l 5,6,-1
 567 1143 l 5,7,-1
 567 1483 l 5,8,-1
 781 1483 l 5,9,-1
 781 1143 l 5,10,-1
 1255 1143 l 5,11,-1
 1255 944 l 5,0,-1
EndSplineSet
MultipleSubs2: "ConsToneB-1" u16F37 u16F92
MultipleSubs2: "ConsToneR-1" u16F37 u16F8F
MultipleSubs2: "ConsToneT-1" u16F37 u16F90
MultipleSubs2: "ConsToneA-1" u16F37 u16F91
EndChar

StartChar: u16F38
Encoding: 188 94008 52
Width: 1355
VWidth: 2023
GlyphClass: 2
Flags: W
AnchorPoint: "BL" 51 -607 basechar 0
AnchorPoint: "B" 309 -607 basechar 0
AnchorPoint: "AL" 51 1670 basechar 0
AnchorPoint: "A" 309 1720 basechar 0
AnchorPoint: "F" 885 0 exit 0
AnchorPoint: "R" 1245 430 exit 0
AnchorPoint: "C" 1356 1518 exit 0
AnchorPoint: "S" 1356 1242 exit 0
LayerCount: 3
Back
SplineSet
1255 944 m 1,0,-1
 781 944 l 1,1,-1
 781 0 l 1,2,-1
 567 0 l 1,3,-1
 567 330 l 1,4,-1
 495 330 l 2,5,6
 288 330 288 330 288 540 c 1,7,8
 297 745 297 745 488 745 c 2,9,-1
 567 745 l 1,10,-1
 567 944 l 1,11,-1
 101 944 l 1,12,-1
 101 1143 l 1,13,-1
 567 1143 l 1,14,-1
 567 1483 l 1,15,-1
 781 1483 l 1,16,-1
 781 1143 l 1,17,-1
 1255 1143 l 1,18,-1
 1255 944 l 1,0,-1
567 444 m 1,19,-1
 567 628 l 1,20,-1
 489 628 l 2,21,22
 405 628 405 628 405 539 c 0,23,24
 405 444 405 444 488 444 c 2,25,-1
 489 444 l 1,26,-1
 567 444 l 1,19,-1
EndSplineSet
Fore
SplineSet
1255 944 m 1,0,-1
 781 944 l 1,1,-1
 781 0 l 1,2,-1
 567 0 l 1,3,-1
 567 238 l 1,4,-1
 467 238 l 2,5,6
 348 238 348 238 270 322 c 128,-1,7
 192 406 192 406 192 538 c 128,-1,8
 192 670 192 670 270 754 c 128,-1,9
 348 838 348 838 467 838 c 2,10,-1
 567 838 l 1,11,-1
 567 944 l 1,12,-1
 101 944 l 1,13,-1
 101 1143 l 1,14,-1
 567 1143 l 1,15,-1
 567 1483 l 1,16,-1
 781 1483 l 1,17,-1
 781 1143 l 1,18,-1
 1255 1143 l 1,19,-1
 1255 944 l 1,0,-1
567 358 m 1,20,-1
 567 718 l 1,21,-1
 485 718 l 2,22,23
 403 718 403 718 357.5 669.5 c 128,-1,24
 312 621 312 621 312 538 c 128,-1,25
 312 455 312 455 357.5 406.5 c 128,-1,26
 403 358 403 358 485 358 c 2,27,-1
 567 358 l 1,20,-1
EndSplineSet
Substitution2: "noWart-1" u16F38.nowart
Substitution2: "dotWart-1" u16F38.dot
MultipleSubs2: "ConsToneB-1" u16F38 u16F92
MultipleSubs2: "ConsToneR-1" u16F38 u16F8F
MultipleSubs2: "ConsToneT-1" u16F38 u16F90
MultipleSubs2: "ConsToneA-1" u16F38 u16F91
EndChar

StartChar: u16F39
Encoding: 189 94009 53
Width: 1305
VWidth: 2023
GlyphClass: 2
Flags: W
AnchorPoint: "BL" 51 -607 basechar 0
AnchorPoint: "B" 283 -607 basechar 0
AnchorPoint: "AL" 51 1670 basechar 0
AnchorPoint: "A" 283 1720 basechar 0
AnchorPoint: "F" 1305 0 exit 0
AnchorPoint: "R" 1194 430 exit 0
AnchorPoint: "C" 1305 1518 exit 0
AnchorPoint: "S" 1305 1242 exit 0
LayerCount: 3
Fore
SplineSet
1204 933 m 1,0,-1
 762 933 l 1,1,-1
 762 201 l 1,2,-1
 1103 201 l 1,3,-1
 1103 0 l 1,4,-1
 546 0 l 1,5,-1
 546 933 l 1,6,-1
 101 933 l 1,7,-1
 101 1137 l 1,8,-1
 548 1137 l 1,9,-1
 548 1483 l 1,10,-1
 762 1483 l 1,11,-1
 762 1137 l 1,12,-1
 1204 1137 l 1,13,-1
 1204 933 l 1,0,-1
EndSplineSet
MultipleSubs2: "ConsToneB-1" u16F39 u16F92
MultipleSubs2: "ConsToneR-1" u16F39 u16F8F
MultipleSubs2: "ConsToneT-1" u16F39 u16F90
MultipleSubs2: "ConsToneA-1" u16F39 u16F91
EndChar

StartChar: u16F3A
Encoding: 190 94010 54
Width: 1270
VWidth: 2023
GlyphClass: 2
Flags: W
AnchorPoint: "BL" 51 -607 basechar 0
AnchorPoint: "B" 266 -607 basechar 0
AnchorPoint: "AL" 51 1670 basechar 0
AnchorPoint: "A" 266 1720 basechar 0
AnchorPoint: "F" 1270 0 exit 0
AnchorPoint: "R" 1270 430 exit 0
AnchorPoint: "C" 1270 1518 exit 0
AnchorPoint: "S" 1270 1242 exit 0
LayerCount: 3
Fore
SplineSet
1169 410 m 0,0,1
 1169 354 1169 354 1153.5 301 c 128,-1,2
 1138 248 1138 248 1110 201 c 128,-1,3
 1082 154 1082 154 1042.5 115 c 128,-1,4
 1003 76 1003 76 955 49 c 0,5,6
 917 27 917 27 874 14 c 128,-1,7
 831 1 831 1 786 -6.5 c 128,-1,8
 741 -14 741 -14 695.5 -16.5 c 128,-1,9
 650 -19 650 -19 607 -19 c 0,10,11
 521 -19 521 -19 450.5 -6 c 128,-1,12
 380 7 380 7 320 36 c 128,-1,13
 260 65 260 65 207 113 c 128,-1,14
 154 161 154 161 104 233 c 1,15,-1
 302 320 l 1,16,17
 326 281 326 281 360.5 254.5 c 128,-1,18
 395 228 395 228 436 212 c 128,-1,19
 477 196 477 196 521.5 189.5 c 128,-1,20
 566 183 566 183 609 183 c 0,21,22
 646 183 646 183 686 187 c 128,-1,23
 726 191 726 191 765 200.5 c 128,-1,24
 804 210 804 210 839 227 c 128,-1,25
 874 244 874 244 901 269 c 128,-1,26
 928 294 928 294 943.5 329 c 128,-1,27
 959 364 959 364 959 410 c 0,28,29
 959 431 959 431 955 448 c 128,-1,30
 951 465 951 465 943 480 c 128,-1,31
 935 495 935 495 923.5 508.5 c 128,-1,32
 912 522 912 522 896 536 c 0,33,34
 882 549 882 549 860 561 c 128,-1,35
 838 573 838 573 811 584 c 128,-1,36
 784 595 784 595 755 605 c 128,-1,37
 726 615 726 615 697.5 624 c 128,-1,38
 669 633 669 633 644 640.5 c 128,-1,39
 619 648 619 648 601 654 c 0,40,41
 543 673 543 673 483 689.5 c 128,-1,42
 423 706 423 706 368 726.5 c 128,-1,43
 313 747 313 747 264.5 773.5 c 128,-1,44
 216 800 216 800 179.5 839.5 c 128,-1,45
 143 879 143 879 122 933.5 c 128,-1,46
 101 988 101 988 101 1063 c 0,47,48
 101 1142 101 1142 121.5 1205.5 c 128,-1,49
 142 1269 142 1269 178 1317.5 c 128,-1,50
 214 1366 214 1366 263.5 1401 c 128,-1,51
 313 1436 313 1436 372.5 1458.5 c 128,-1,52
 432 1481 432 1481 499 1491.5 c 128,-1,53
 566 1502 566 1502 636 1502 c 0,54,55
 710 1502 710 1502 772 1492 c 128,-1,56
 834 1482 834 1482 889 1459 c 128,-1,57
 944 1436 944 1436 994 1398.5 c 128,-1,58
 1044 1361 1044 1361 1096 1307 c 1,59,-1
 922 1208 l 1,60,61
 896 1235 896 1235 861 1253 c 128,-1,62
 826 1271 826 1271 787 1282 c 128,-1,63
 748 1293 748 1293 708 1298 c 128,-1,64
 668 1303 668 1303 631 1303 c 0,65,66
 599 1303 599 1303 562.5 1298.5 c 128,-1,67
 526 1294 526 1294 490 1283.5 c 128,-1,68
 454 1273 454 1273 421.5 1257 c 128,-1,69
 389 1241 389 1241 363.5 1217.5 c 128,-1,70
 338 1194 338 1194 323 1162.5 c 128,-1,71
 308 1131 308 1131 308 1091 c 0,72,73
 308 1053 308 1053 324.5 1022 c 128,-1,74
 341 991 341 991 369.5 966.5 c 128,-1,75
 398 942 398 942 437.5 922 c 128,-1,76
 477 902 477 902 523 885.5 c 128,-1,77
 569 869 569 869 620 854 c 128,-1,78
 671 839 671 839 722.5 824.5 c 128,-1,79
 774 810 774 810 824.5 794 c 128,-1,80
 875 778 875 778 921 759.5 c 128,-1,81
 967 741 967 741 1005.5 718 c 128,-1,82
 1044 695 1044 695 1073 666 c 0,83,84
 1125 613 1125 613 1147 547.5 c 128,-1,85
 1169 482 1169 482 1169 410 c 0,0,1
EndSplineSet
MultipleSubs2: "ConsToneB-1" u16F3A u16F92
MultipleSubs2: "ConsToneR-1" u16F3A u16F8F
MultipleSubs2: "ConsToneT-1" u16F3A u16F90
MultipleSubs2: "ConsToneA-1" u16F3A u16F91
EndChar

StartChar: u16F3B
Encoding: 191 94011 55
Width: 1211
VWidth: 2023
GlyphClass: 2
Flags: W
AnchorPoint: "BL" 51 -607 basechar 0
AnchorPoint: "B" 236 -607 basechar 0
AnchorPoint: "AL" 51 1670 basechar 0
AnchorPoint: "A" 236 1720 basechar 0
AnchorPoint: "F" 1212 0 exit 0
AnchorPoint: "R" 1212 430 exit 0
AnchorPoint: "C" 1212 1518 exit 0
AnchorPoint: "S" 1212 1242 exit 0
LayerCount: 3
Fore
SplineSet
1111 457 m 4,0,1
 1111 387 1111 387 1093 324.5 c 132,-1,2
 1075 262 1075 262 1042 208 c 132,-1,3
 1009 154 1009 154 963.5 110.5 c 132,-1,4
 918 67 918 67 862.5 37 c 132,-1,5
 807 7 807 7 743 -9.5 c 132,-1,6
 679 -26 679 -26 611 -26 c 4,7,8
 505 -26 505 -26 415.5 4 c 132,-1,9
 326 34 326 34 260 91 c 132,-1,10
 194 148 194 148 153 231.5 c 132,-1,11
 112 315 112 315 101 421 c 5,12,-1
 309 421 l 5,13,14
 317 350 317 350 340.5 303 c 132,-1,15
 364 256 364 256 400.5 228 c 132,-1,16
 437 200 437 200 485 188 c 132,-1,17
 533 176 533 176 590 176 c 4,18,19
 653 176 653 176 709 195 c 132,-1,20
 765 214 765 214 807 250 c 132,-1,21
 849 286 849 286 873.5 338.5 c 132,-1,22
 898 391 898 391 898 457 c 4,23,24
 898 511 898 511 882 555 c 132,-1,25
 866 599 866 599 837.5 633.5 c 132,-1,26
 809 668 809 668 769.5 693 c 132,-1,27
 730 718 730 718 683 733 c 132,-1,28
 636 748 636 748 583.5 753 c 132,-1,29
 531 758 531 758 477 753 c 5,30,-1
 479 939 l 5,31,-1
 851 1280 l 5,32,-1
 120 1280 l 5,33,-1
 118 1483 l 5,34,-1
 1111 1483 l 5,35,-1
 1111 1284 l 5,36,-1
 704 908 l 5,37,38
 763 905 763 905 816 885.5 c 132,-1,39
 869 866 869 866 914 833.5 c 132,-1,40
 959 801 959 801 995.5 758 c 132,-1,41
 1032 715 1032 715 1057.5 666 c 132,-1,42
 1083 617 1083 617 1097 563.5 c 132,-1,43
 1111 510 1111 510 1111 457 c 4,0,1
EndSplineSet
MultipleSubs2: "ConsToneB-1" u16F3B u16F92
MultipleSubs2: "ConsToneR-1" u16F3B u16F8F
MultipleSubs2: "ConsToneT-1" u16F3B u16F90
MultipleSubs2: "ConsToneA-1" u16F3B u16F91
EndChar

StartChar: u16F3C
Encoding: 192 94012 56
Width: 1325
VWidth: 2023
GlyphClass: 2
Flags: W
AnchorPoint: "BL" 51 -607 basechar 0
AnchorPoint: "B" 243 -607 basechar 0
AnchorPoint: "AL" 51 1670 basechar 0
AnchorPoint: "A" 243 1720 basechar 0
AnchorPoint: "F" 1225 0 exit 0
AnchorPoint: "R" 1225 430 exit 0
AnchorPoint: "C" 1225 1518 exit 0
AnchorPoint: "S" 1225 1242 exit 0
LayerCount: 3
Back
SplineSet
1111 457 m 0,0,1
 1111 387 1111 387 1093 324.5 c 128,-1,2
 1075 262 1075 262 1042 208 c 128,-1,3
 1009 154 1009 154 963.5 110.5 c 128,-1,4
 918 67 918 67 862.5 37 c 128,-1,5
 807 7 807 7 743 -9.5 c 128,-1,6
 679 -26 679 -26 611 -26 c 0,7,8
 505 -26 505 -26 415.5 4 c 128,-1,9
 326 34 326 34 260 91 c 128,-1,10
 194 148 194 148 153 231.5 c 128,-1,11
 112 315 112 315 101 421 c 1,12,-1
 309 421 l 1,13,14
 317 350 317 350 340.5 303 c 128,-1,15
 364 256 364 256 400.5 228 c 128,-1,16
 437 200 437 200 485 188 c 128,-1,17
 533 176 533 176 590 176 c 0,18,19
 653 176 653 176 709 195 c 128,-1,20
 765 214 765 214 807 250 c 128,-1,21
 849 286 849 286 873.5 338.5 c 128,-1,22
 898 391 898 391 898 457 c 0,23,24
 898 511 898 511 882 555 c 128,-1,25
 866 599 866 599 837.5 633.5 c 128,-1,26
 809 668 809 668 769.5 693 c 128,-1,27
 730 718 730 718 683 733 c 128,-1,28
 636 748 636 748 583.5 753 c 128,-1,29
 531 758 531 758 477 753 c 1,30,-1
 479 939 l 1,31,-1
 851 1280 l 1,32,-1
 120 1280 l 1,33,-1
 118 1483 l 1,34,-1
 1111 1483 l 1,35,-1
 1111 1284 l 1,36,-1
 962 1146 l 1,37,38
 1124 1125 1124 1125 1124 939 c 1,39,40
 1118 783 1118 783 1005 746 c 1,41,42
 1035 708 1035 708 1057 666 c 0,43,44
 1083 617 1083 617 1097 563.5 c 128,-1,45
 1111 510 1111 510 1111 457 c 0,0,1
842 1035 m 1,46,-1
 704 908 l 1,47,48
 763 905 763 905 816 885 c 0,49,50
 854 871 854 871 888 850 c 1,51,-1
 924 850 l 2,52,53
 1008 850 1008 850 1008 940 c 0,54,55
 1008 1035 1008 1035 925 1035 c 2,56,-1
 924 1035 l 1,57,-1
 842 1035 l 1,46,-1
EndSplineSet
Fore
SplineSet
1111 457 m 0,0,1
 1111 387 1111 387 1093 324.5 c 128,-1,2
 1075 262 1075 262 1042 208 c 128,-1,3
 1009 154 1009 154 963.5 110.5 c 128,-1,4
 918 67 918 67 862.5 37 c 128,-1,5
 807 7 807 7 743 -9.5 c 128,-1,6
 679 -26 679 -26 611 -26 c 0,7,8
 505 -26 505 -26 415.5 4 c 128,-1,9
 326 34 326 34 260 91 c 128,-1,10
 194 148 194 148 153 231.5 c 128,-1,11
 112 315 112 315 101 421 c 1,12,-1
 309 421 l 1,13,14
 317 350 317 350 340.5 303 c 128,-1,15
 364 256 364 256 400.5 228 c 128,-1,16
 437 200 437 200 485 188 c 128,-1,17
 533 176 533 176 590 176 c 0,18,19
 653 176 653 176 709 195 c 128,-1,20
 765 214 765 214 807 250 c 128,-1,21
 849 286 849 286 873.5 338.5 c 128,-1,22
 898 391 898 391 898 457 c 0,23,24
 898 511 898 511 882 555 c 128,-1,25
 866 599 866 599 837.5 633.5 c 128,-1,26
 809 668 809 668 769.5 693 c 128,-1,27
 730 718 730 718 683 733 c 128,-1,28
 636 748 636 748 583.5 753 c 128,-1,29
 531 758 531 758 477 753 c 1,30,-1
 479 939 l 1,31,-1
 851 1280 l 1,32,-1
 120 1280 l 1,33,-1
 118 1483 l 1,34,-1
 1111 1483 l 1,35,-1
 1111 1284 l 1,36,-1
 1047.60592762 1225.43446876 l 1,37,38
 1103.63838569 1204.69712311 1103.63838569 1204.69712311 1147 1158 c 0,39,40
 1225 1074 1225 1074 1225 942 c 128,-1,41
 1225 810 1225 810 1147 726 c 0,42,43
 1108.09694168 684.104398727 1108.09694168 684.104398727 1058.99477654 663.104528478 c 1,44,45
 1083.41307913 615.421447618 1083.41307913 615.421447618 1097 563.5 c 0,46,47
 1111 510 1111 510 1111 457 c 0,0,1
935.617815245 1121.97616347 m 1,48,-1
 704 908 l 1,49,50
 763 905 763 905 816 885.5 c 128,-1,51
 869 866 869 866 914 833.5 c 0,52,53
 953.514392034 804.961827975 953.514392034 804.961827975 986.474813199 768.327574288 c 1,54,55
 1030.43460058 779.51820062 1030.43460058 779.51820062 1059.5 810.5 c 0,56,57
 1105 859 1105 859 1105 942 c 128,-1,58
 1105 1025 1105 1025 1059.5 1073.5 c 0,59,60
 1015.00870006 1120.92479224 1015.00870006 1120.92479224 935.617815245 1121.97616347 c 1,48,-1
EndSplineSet
Substitution2: "noWart-1" u16F3C.nowart
Substitution2: "dotWart-1" u16F3C.dot
MultipleSubs2: "ConsToneB-1" u16F3C u16F92
MultipleSubs2: "ConsToneR-1" u16F3C u16F8F
MultipleSubs2: "ConsToneT-1" u16F3C u16F90
MultipleSubs2: "ConsToneA-1" u16F3C u16F91
EndChar

StartChar: u16F3D
Encoding: 193 94013 57
Width: 1349
VWidth: 2023
GlyphClass: 2
Flags: W
AnchorPoint: "SP" 405 1356 basechar 0
AnchorPoint: "BL" 51 -607 basechar 0
AnchorPoint: "B" 306 -607 basechar 0
AnchorPoint: "AL" 51 1670 basechar 0
AnchorPoint: "A" 306 1718 basechar 0
AnchorPoint: "F" 1350 0 exit 0
AnchorPoint: "R" 1350 430 exit 0
AnchorPoint: "C" 970 1518 exit 0
AnchorPoint: "S" 1102 1242 exit 0
LayerCount: 3
Fore
SplineSet
1249 0 m 1,0,-1
 1035 0 l 1,1,-1
 689 1184 l 1,2,-1
 648 1184 l 1,3,-1
 316 0 l 1,4,-1
 101 0 l 1,5,-1
 560 1483 l 1,6,-1
 786 1483 l 1,7,-1
 1249 0 l 1,0,-1
EndSplineSet
MultipleSubs2: "ConsToneB-1" u16F3D u16F92
MultipleSubs2: "ConsToneR-1" u16F3D u16F8F
MultipleSubs2: "ConsToneT-1" u16F3D u16F90
MultipleSubs2: "ConsToneA-1" u16F3D u16F91
EndChar

StartChar: u16F3E
Encoding: 194 94014 58
Width: 1483
VWidth: 2023
GlyphClass: 2
Flags: W
AnchorPoint: "SP" 523 1356 basechar 0
AnchorPoint: "BL" 144 -607 basechar 0
AnchorPoint: "B" 432 -607 basechar 0
AnchorPoint: "AL" 144 1670 basechar 0
AnchorPoint: "A" 432 1720 basechar 0
AnchorPoint: "F" 1485 0 exit 0
AnchorPoint: "R" 1404 430 exit 0
AnchorPoint: "C" 1116 1518 exit 0
AnchorPoint: "S" 1207 1242 exit 0
LayerCount: 3
Back
SplineSet
1384 0 m 1,0,-1
 1170 0 l 1,1,-1
 824 1184 l 1,2,-1
 783 1184 l 1,3,-1
 451 0 l 1,4,-1
 237 0 l 1,5,-1
 407 550 l 1,6,-1
 401 550 l 2,7,8
 194 550 194 550 194 760 c 1,9,10
 203 965 203 965 394 965 c 2,11,-1
 535 965 l 1,12,-1
 696 1483 l 1,13,-1
 921 1483 l 1,14,-1
 1384 0 l 1,0,-1
442 664 m 1,15,-1
 499 848 l 1,16,-1
 395 848 l 2,17,18
 311 848 311 848 311 759 c 0,19,20
 311 664 311 664 394 664 c 2,21,-1
 395 664 l 1,22,-1
 442 664 l 1,15,-1
EndSplineSet
Fore
SplineSet
1383 0 m 1,0,-1
 1169 0 l 1,1,-1
 823 1184 l 1,2,-1
 782 1184 l 1,3,-1
 450 0 l 1,4,-1
 235 0 l 1,5,-1
 376.754551585 458 l 1,6,-1
 375 458 l 2,7,8
 256 458 256 458 178 542 c 128,-1,9
 100 626 100 626 100 758 c 128,-1,10
 100 890 100 890 178 974 c 128,-1,11
 256 1058 256 1058 375 1058 c 2,12,-1
 562.459204316 1058 l 1,13,-1
 694 1483 l 1,14,-1
 920 1483 l 1,15,-1
 1383 0 l 1,0,-1
413.895482131 578 m 1,16,-1
 525.318273769 938 l 1,17,-1
 393 938 l 2,18,19
 311 938 311 938 265.5 889.5 c 128,-1,20
 220 841 220 841 220 758 c 128,-1,21
 220 675 220 675 265.5 626.5 c 128,-1,22
 311 578 311 578 393 578 c 2,23,-1
 413.895482131 578 l 1,16,-1
EndSplineSet
Substitution2: "noWart-1" u16F3E.nowart
Substitution2: "dotWart-1" u16F3E.dot
MultipleSubs2: "ConsToneB-1" u16F3E u16F92
MultipleSubs2: "ConsToneR-1" u16F3E u16F8F
MultipleSubs2: "ConsToneT-1" u16F3E u16F90
MultipleSubs2: "ConsToneA-1" u16F3E u16F91
EndChar

StartChar: u16F3F
Encoding: 195 94015 59
Width: 1350
VWidth: 2023
GlyphClass: 2
Flags: W
AnchorPoint: "BL" 51 -607 basechar 0
AnchorPoint: "B" 306 -607 basechar 0
AnchorPoint: "AL" 51 1670 basechar 0
AnchorPoint: "A" 306 1720 basechar 0
AnchorPoint: "F" 1351 0 exit 0
AnchorPoint: "R" 1351 430 exit 0
AnchorPoint: "C" 1351 1518 exit 0
AnchorPoint: "S" 1351 1242 exit 0
LayerCount: 3
Fore
SplineSet
1075 746 m 1,0,1
 981 742 981 742 960 680 c 0,2,3
 950 651 950 651 950 619.5 c 128,-1,4
 950 588 950 588 952 573.5 c 128,-1,5
 954 559 954 559 958.5 545 c 128,-1,6
 963 531 963 531 969.5 518 c 128,-1,7
 976 505 976 505 986 495 c 0,8,9
 1014 464 1014 464 1054 464 c 2,10,-1
 1073 464 l 1,11,-1
 1074 414 l 1,12,-1
 1049 414 l 2,13,14
 954 414 954 414 913 514 c 0,15,16
 896 556 896 556 896 593 c 128,-1,17
 896 630 896 630 900.5 654.5 c 128,-1,18
 905 679 905 679 914 700.5 c 128,-1,19
 923 722 923 722 936.5 739.5 c 128,-1,20
 950 757 950 757 969 770 c 0,21,22
 1007 796 1007 796 1063 795 c 1,23,-1
 1075 795 l 1,24,-1
 1075 746 l 1,0,1
1087 643 m 128,-1,26
 1061 643 1061 643 1061.5 617.5 c 128,-1,27
 1062 592 1062 592 1087.5 592 c 128,-1,28
 1113 592 1113 592 1113 617.5 c 128,-1,25
 1113 643 1113 643 1087 643 c 128,-1,26
1023 217 m 128,-1,30
 1166 360 1166 360 1166 562 c 0,31,32
 1166 763 1166 763 1023 906.5 c 128,-1,33
 880 1050 880 1050 678 1050 c 128,-1,35
 476 1050 476 1050 333 906.5 c 128,-1,36
 190 763 190 763 190 561.5 c 128,-1,37
 190 360 190 360 333 216.5 c 128,-1,38
 476 73 476 73 678 73 c 0,39,40
 880 74 880 74 1023 217 c 128,-1,30
1081 976 m 0,41,42
 1249 807 1249 807 1250 569 c 0,43,44
 1250 490 1250 490 1229.5 417 c 128,-1,45
 1209 344 1209 344 1171.5 279.5 c 128,-1,46
 1134 215 1134 215 1082 162.5 c 128,-1,47
 1030 110 1030 110 966 72 c 0,48,49
 832 -7 832 -7 676 -7 c 0,50,51
 438 -7 438 -7 269.5 162 c 128,-1,52
 101 331 101 331 101 570 c 0,53,54
 101 808 101 808 269.5 976 c 128,-1,55
 438 1144 438 1144 675.5 1144 c 128,-1,56
 913 1144 913 1144 1081 976 c 0,41,42
419 734 m 1,57,-1
 400 734 l 1,58,-1
 346 551 l 1,59,-1
 472 551 l 1,60,-1
 419 734 l 1,57,-1
442 822 m 1,61,-1
 571 407 l 1,62,-1
 515 407 l 1,63,-1
 486 502 l 1,64,-1
 332 502 l 1,65,-1
 332 504 l 1,66,-1
 304 407 l 1,67,-1
 249 407 l 1,68,-1
 378 822 l 1,69,-1
 442 822 l 1,61,-1
645 633 m 1,70,-1
 743 633 l 2,71,72
 812 633 812 633 812 698 c 128,-1,73
 812 763 812 763 750 763 c 2,74,-1
 645 763 l 1,75,-1
 645 633 l 1,70,-1
792 585 m 1,76,-1
 873 406 l 1,77,-1
 809 406 l 1,78,-1
 741 577 l 1,79,-1
 645 577 l 1,80,-1
 645 406 l 1,81,-1
 587 406 l 1,82,-1
 587 821 l 1,83,-1
 755 821 l 2,84,85
 821 821 821 821 855 760 c 0,86,87
 870 733 870 733 870 707 c 128,-1,88
 870 681 870 681 864.5 663.5 c 128,-1,89
 859 646 859 646 849 631 c 0,90,91
 827 599 827 599 792 585 c 1,76,-1
EndSplineSet
MultipleSubs2: "ConsToneB-1" u16F3F u16F92
MultipleSubs2: "ConsToneR-1" u16F3F u16F8F
MultipleSubs2: "ConsToneT-1" u16F3F u16F90
MultipleSubs2: "ConsToneA-1" u16F3F u16F91
EndChar

StartChar: u16F40
Encoding: 196 94016 60
Width: 1349
VWidth: 2023
GlyphClass: 2
Flags: W
AnchorPoint: "SP" 405 1356 basechar 0
AnchorPoint: "BL" 51 -607 basechar 0
AnchorPoint: "B" 306 -607 basechar 0
AnchorPoint: "AL" 51 1670 basechar 0
AnchorPoint: "A" 306 1720 basechar 0
AnchorPoint: "F" 1350 0 exit 0
AnchorPoint: "R" 1350 430 exit 0
AnchorPoint: "C" 965 1518 exit 0
AnchorPoint: "S" 1051 1242 exit 0
LayerCount: 3
Fore
SplineSet
1249 0 m 5,0,-1
 1047 0 l 5,1,-1
 946 343 l 5,2,-1
 396 343 l 5,3,-1
 396 349 l 5,4,-1
 293 0 l 5,5,-1
 101 0 l 5,6,-1
 560 1483 l 5,7,-1
 788 1483 l 5,8,-1
 1249 0 l 5,0,-1
637 1168 m 5,9,-1
 446 517 l 5,10,-1
 895 517 l 5,11,-1
 705 1168 l 5,12,-1
 637 1168 l 5,9,-1
EndSplineSet
MultipleSubs2: "ConsToneB-1" u16F40 u16F92
MultipleSubs2: "ConsToneR-1" u16F40 u16F8F
MultipleSubs2: "ConsToneT-1" u16F40 u16F90
MultipleSubs2: "ConsToneA-1" u16F40 u16F91
EndChar

StartChar: u16F41
Encoding: 197 94017 61
Width: 1453
VWidth: 2023
GlyphClass: 2
Flags: W
AnchorPoint: "SP" 524 1356 basechar 0
AnchorPoint: "BL" 145 -607 basechar 0
AnchorPoint: "B" 404 -607 basechar 0
AnchorPoint: "AL" 145 1670 basechar 0
AnchorPoint: "A" 404 1720 basechar 0
AnchorPoint: "F" 1453 0 exit 0
AnchorPoint: "R" 1453 430 exit 0
AnchorPoint: "C" 1084 1518 exit 0
AnchorPoint: "S" 1206 1242 exit 0
LayerCount: 3
Back
SplineSet
741 1168 m 1,0,-1
 549 517 l 1,1,-1
 999 517 l 1,2,-1
 808 1168 l 1,3,-1
 741 1168 l 1,0,-1
1352 0 m 1,4,-1
 1150 0 l 1,5,-1
 1050 343 l 1,6,-1
 500 343 l 1,7,-1
 500 349 l 1,8,-1
 397 0 l 1,9,-1
 205 0 l 1,10,-1
 385 581 l 1,11,12
 196 590 196 590 195 791 c 1,13,14
 204 996 204 996 395 996 c 2,15,-1
 513 996 l 1,16,-1
 664 1483 l 1,17,-1
 891 1483 l 1,18,-1
 1352 0 l 1,4,-1
420 695 m 1,19,-1
 477 879 l 1,20,-1
 396 879 l 2,21,22
 312 879 312 879 312 790 c 0,23,24
 312 695 312 695 395 695 c 2,25,-1
 396 695 l 1,26,-1
 420 695 l 1,19,-1
EndSplineSet
Fore
SplineSet
741 1168 m 1,0,-1
 550 517 l 1,1,-1
 999 517 l 1,2,-1
 809 1168 l 1,3,-1
 741 1168 l 1,0,-1
1353 0 m 1,4,-1
 1151 0 l 1,5,-1
 1050 343 l 1,6,-1
 500 343 l 1,7,-1
 500 349 l 1,8,-1
 397 0 l 1,9,-1
 205 0 l 1,10,-1
 356.510545783 489.521000863 l 1,11,12
 249.857089596 495.615441973 249.857089596 495.615441973 178 573 c 0,13,14
 100 657 100 657 100 789 c 128,-1,15
 100 921 100 921 178 1005 c 128,-1,16
 256 1089 256 1089 375 1089 c 2,17,-1
 542.053944707 1089 l 1,18,-1
 664 1483 l 1,19,-1
 892 1483 l 1,20,-1
 1353 0 l 1,4,-1
393.490222522 609 m 1,21,-1
 504.91301416 969 l 1,22,-1
 393 969 l 2,23,24
 311 969 311 969 265.5 920.5 c 128,-1,25
 220 872 220 872 220 789 c 128,-1,26
 220 706 220 706 265.5 657.5 c 128,-1,27
 311 609 311 609 393 609 c 2,28,-1
 393.490222522 609 l 1,21,-1
EndSplineSet
Substitution2: "noWart-1" u16F41.nowart
Substitution2: "dotWart-1" u16F41.dot
MultipleSubs2: "ConsToneB-1" u16F41 u16F92
MultipleSubs2: "ConsToneR-1" u16F41 u16F8F
MultipleSubs2: "ConsToneT-1" u16F41 u16F90
MultipleSubs2: "ConsToneA-1" u16F41 u16F91
EndChar

StartChar: u16F42
Encoding: 198 94018 62
Width: 1196
VWidth: 2023
GlyphClass: 2
Flags: W
AnchorPoint: "BL" 51 -607 basechar 0
AnchorPoint: "B" 229 -607 basechar 0
AnchorPoint: "AL" 51 1670 basechar 0
AnchorPoint: "A" 229 1720 basechar 0
AnchorPoint: "F" 1196 0 exit 0
AnchorPoint: "R" 1196 430 exit 0
AnchorPoint: "C" 1196 1518 exit 0
AnchorPoint: "S" 1196 1242 exit 0
LayerCount: 3
Fore
SplineSet
1095 524 m 2,0,1
 1095 398 1095 398 1064.5 297 c 128,-1,2
 1034 196 1034 196 971 126 c 128,-1,3
 908 56 908 56 811.5 19 c 128,-1,4
 715 -18 715 -18 584 -18 c 0,5,6
 511 -18 511 -18 446.5 1.5 c 128,-1,7
 382 21 382 21 328.5 56 c 128,-1,8
 275 91 275 91 232.5 139.5 c 128,-1,9
 190 188 190 188 161 246.5 c 128,-1,10
 132 305 132 305 116.5 371 c 128,-1,11
 101 437 101 437 101 506 c 2,12,-1
 101 1483 l 1,13,-1
 309 1483 l 1,14,-1
 309 526 l 2,15,16
 309 461 309 461 324.5 401 c 128,-1,17
 340 341 340 341 373 294.5 c 128,-1,18
 406 248 406 248 457.5 220.5 c 128,-1,19
 509 193 509 193 582 193 c 0,20,21
 661 193 661 193 718.5 214 c 128,-1,22
 776 235 776 235 812.5 275.5 c 128,-1,23
 849 316 849 316 867 375.5 c 128,-1,24
 885 435 885 435 885 511 c 2,25,-1
 885 1483 l 1,26,-1
 1095 1483 l 1,27,-1
 1095 524 l 2,0,1
EndSplineSet
MultipleSubs2: "ConsToneB-1" u16F42 u16F92
MultipleSubs2: "ConsToneR-1" u16F42 u16F8F
MultipleSubs2: "ConsToneT-1" u16F42 u16F90
MultipleSubs2: "ConsToneA-1" u16F42 u16F91
EndChar

StartChar: u16F43
Encoding: 199 94019 63
Width: 1350
VWidth: 2023
GlyphClass: 2
Flags: W
AnchorPoint: "BL" 51 -607 basechar 0
AnchorPoint: "B" 306 -607 basechar 0
AnchorPoint: "AL" 51 1670 basechar 0
AnchorPoint: "A" 306 1720 basechar 0
AnchorPoint: "F" 885 0 exit 0
AnchorPoint: "R" 1052 430 exit 0
AnchorPoint: "C" 1351 1518 exit 0
AnchorPoint: "S" 1351 1242 exit 0
LayerCount: 3
Fore
SplineSet
1250 1483 m 5,0,-1
 791 554 l 5,1,-1
 793 0 l 5,2,-1
 582 0 l 5,3,-1
 582 551 l 5,4,-1
 101 1483 l 5,5,-1
 335 1483 l 5,6,-1
 690 756 l 5,7,-1
 1018 1483 l 5,8,-1
 1250 1483 l 5,0,-1
EndSplineSet
MultipleSubs2: "ConsToneB-1" u16F43 u16F92
MultipleSubs2: "ConsToneR-1" u16F43 u16F8F
MultipleSubs2: "ConsToneT-1" u16F43 u16F90
MultipleSubs2: "ConsToneA-1" u16F43 u16F91
EndChar

StartChar: u16F44
Encoding: 200 94020 64
Width: 1376
VWidth: 2023
GlyphClass: 2
Flags: W
AnchorPoint: "BL" 77 -607 basechar 0
AnchorPoint: "B" 332 -607 basechar 0
AnchorPoint: "AL" 77 1670 basechar 0
AnchorPoint: "A" 332 1720 basechar 0
AnchorPoint: "F" 916 0 exit 0
AnchorPoint: "R" 1033 430 exit 0
AnchorPoint: "C" 1377 1518 exit 0
AnchorPoint: "S" 1377 1242 exit 0
LayerCount: 3
Back
SplineSet
1276 1483 m 1,0,-1
 817 554 l 1,1,-1
 819 0 l 1,2,-1
 608 0 l 1,3,-1
 608 551 l 1,4,-1
 602 562 l 1,5,-1
 401 562 l 2,6,7
 194 562 194 562 194 772 c 1,8,9
 203 974 203 974 389 976 c 1,10,-1
 127 1483 l 1,11,-1
 361 1483 l 1,12,-1
 716 756 l 1,13,-1
 1044 1483 l 1,14,-1
 1276 1483 l 1,0,-1
543 676 m 1,15,-1
 448 860 l 1,16,-1
 395 860 l 2,17,18
 311 860 311 860 311 771 c 0,19,20
 311 676 311 676 394 675 c 2,21,-1
 394 675 l 1,22,-1
 543 676 l 1,15,-1
EndSplineSet
Fore
SplineSet
1276 1483 m 1,0,-1
 817 554 l 1,1,-1
 819 0 l 1,2,-1
 608 0 l 1,3,-1
 608 468 l 1,4,-1
 375 468 l 2,5,6
 256 468 256 468 178 552 c 128,-1,7
 100 636 100 636 100 768 c 128,-1,8
 100 900 100 900 178 984 c 0,9,10
 244.931388907 1056.07995728 244.931388907 1056.07995728 342.052166976 1066.30848311 c 1,11,-1
 127 1483 l 1,12,-1
 361 1483 l 1,13,-1
 716 756 l 1,14,-1
 1044 1483 l 1,15,-1
 1276 1483 l 1,0,-1
588.904506438 588 m 1,16,-1
 403.110515021 948 l 1,17,-1
 393 948 l 2,18,19
 311 948 311 948 265.5 899.5 c 128,-1,20
 220 851 220 851 220 768 c 128,-1,21
 220 685 220 685 265.5 636.5 c 128,-1,22
 311 588 311 588 393 588 c 2,23,-1
 588.904506438 588 l 1,16,-1
EndSplineSet
Substitution2: "noWart-1" u16F44.nowart
Substitution2: "dotWart-1" u16F44.dot
MultipleSubs2: "ConsToneB-1" u16F44 u16F92
MultipleSubs2: "ConsToneR-1" u16F44 u16F8F
MultipleSubs2: "ConsToneT-1" u16F44 u16F90
MultipleSubs2: "ConsToneA-1" u16F44 u16F91
EndChar

StartChar: u16F46
Encoding: 201 94022 65
Width: 1229
VWidth: 2023
GlyphClass: 2
Flags: W
LayerCount: 3
Fore
SplineSet
1189 570 m 128,-1,1
 1189 491 1189 491 1168.5 417.5 c 128,-1,2
 1148 344 1148 344 1111 279.5 c 128,-1,3
 1074 215 1074 215 1021.5 162.5 c 128,-1,4
 969 110 969 110 905 72.5 c 128,-1,5
 841 35 841 35 768 14 c 128,-1,6
 695 -7 695 -7 615 -7 c 256,7,8
 536 -7 536 -7 462.5 14 c 128,-1,9
 389 35 389 35 325 72.5 c 128,-1,10
 261 110 261 110 208.5 162.5 c 128,-1,11
 156 215 156 215 118.5 279 c 128,-1,12
 81 343 81 343 60.5 416.5 c 128,-1,13
 40 490 40 490 40 570 c 256,14,15
 40 649 40 649 60.5 722.5 c 128,-1,16
 81 796 81 796 118.5 859.5 c 128,-1,17
 156 923 156 923 209 976 c 128,-1,18
 262 1029 262 1029 325.5 1066 c 128,-1,19
 389 1103 389 1103 462.5 1123.5 c 128,-1,20
 536 1144 536 1144 615 1144 c 128,-1,22
 694 1144 694 1144 767.5 1123.5 c 128,-1,23
 841 1103 841 1103 904.5 1066 c 128,-1,24
 968 1029 968 1029 1020.5 976 c 128,-1,25
 1073 923 1073 923 1110.5 859.5 c 128,-1,26
 1148 796 1148 796 1168.5 722.5 c 128,-1,27
 1189 649 1189 649 1189 570 c 128,-1,1
1105 562 m 256,28,29
 1105 629 1105 629 1087.5 691 c 128,-1,30
 1070 753 1070 753 1038.5 807.5 c 128,-1,31
 1007 862 1007 862 962.5 906.5 c 128,-1,32
 918 951 918 951 863.5 983 c 128,-1,33
 809 1015 809 1015 747 1032.5 c 128,-1,34
 685 1050 685 1050 618 1050 c 256,35,36
 551 1050 551 1050 488 1032.5 c 128,-1,37
 425 1015 425 1015 371 983 c 128,-1,38
 317 951 317 951 272.5 906.5 c 128,-1,39
 228 862 228 862 196 807.5 c 128,-1,40
 164 753 164 753 146.5 691 c 128,-1,41
 129 629 129 629 129 562 c 256,42,43
 129 495 129 495 146.5 432 c 128,-1,44
 164 369 164 369 196 315 c 128,-1,45
 228 261 228 261 272.5 216.5 c 128,-1,46
 317 172 317 172 371 140 c 128,-1,47
 425 108 425 108 487.5 90.5 c 128,-1,48
 550 73 550 73 618 73 c 256,49,50
 685 73 685 73 747 90.5 c 128,-1,51
 809 108 809 108 863.5 140 c 128,-1,52
 918 172 918 172 962.5 216.5 c 128,-1,53
 1007 261 1007 261 1038.5 315.5 c 128,-1,54
 1070 370 1070 370 1087.5 432.5 c 128,-1,55
 1105 495 1105 495 1105 562 c 256,28,29
953 779 m 0,56,57
 958 772 958 772 957 762.5 c 128,-1,58
 956 753 956 753 952 744 c 0,59,60
 948 734 948 734 942 723 c 1,61,62
 900 678 900 678 833 611 c 0,63,64
 776 554 776 554 687 464.5 c 128,-1,65
 598 375 598 375 471 251 c 1,66,-1
 287 559 l 1,67,-1
 369 602 l 1,68,-1
 492 378 l 1,69,-1
 888 773 l 1,70,71
 902 780 902 780 915 784 c 0,72,73
 926 787 926 787 936.5 787 c 128,-1,74
 947 787 947 787 953 779 c 0,56,57
EndSplineSet
EndChar

StartChar: u16F45
Encoding: 202 94021 66
Width: 1226
VWidth: 2023
GlyphClass: 2
Flags: W
AnchorPoint: "S" 1226 1242 exit 0
AnchorPoint: "C" 1226 1518 exit 0
AnchorPoint: "R" 1226 430 exit 0
AnchorPoint: "F" 1226 0 exit 0
AnchorPoint: "A" 244 1720 basechar 0
AnchorPoint: "AL" 51 1670 basechar 0
AnchorPoint: "B" 244 -607 basechar 0
AnchorPoint: "BL" 51 -607 basechar 0
LayerCount: 3
Fore
SplineSet
824 584 m 0,0,1
 648 584 648 584 647 759 c 256,2,3
 646 910 646 910 811 913 c 0,4,5
 988 916 988 916 988 753 c 0,6,7
 987 584 987 584 824 584 c 0,0,1
1125 0 m 1,8,-1
 101 0 l 1,9,-1
 101 1483 l 1,10,-1
 1125 1483 l 1,11,-1
 1125 1279 l 1,12,-1
 312 1279 l 1,13,-1
 312 204 l 1,14,-1
 1125 204 l 1,15,-1
 1125 0 l 1,8,-1
1125 0 m 1,16,-1
 101 0 l 1,17,-1
 101 1483 l 1,18,-1
 1125 1483 l 1,19,-1
 1125 1279 l 1,20,-1
 312 1279 l 1,21,-1
 312 204 l 1,22,-1
 1125 204 l 1,23,-1
 1125 0 l 1,16,-1
EndSplineSet
EndChar

StartChar: u16F47
Encoding: 203 94023 67
Width: 1229
VWidth: 2023
GlyphClass: 2
Flags: W
LayerCount: 3
Fore
SplineSet
1189 570 m 128,-1,1
 1189 491 1189 491 1168.5 417.5 c 128,-1,2
 1148 344 1148 344 1111 279.5 c 128,-1,3
 1074 215 1074 215 1021.5 162.5 c 128,-1,4
 969 110 969 110 905 72.5 c 128,-1,5
 841 35 841 35 768 14 c 128,-1,6
 695 -7 695 -7 615 -7 c 256,7,8
 536 -7 536 -7 462.5 14 c 128,-1,9
 389 35 389 35 325 72.5 c 128,-1,10
 261 110 261 110 208.5 162.5 c 128,-1,11
 156 215 156 215 118.5 279 c 128,-1,12
 81 343 81 343 60.5 416.5 c 128,-1,13
 40 490 40 490 40 570 c 256,14,15
 40 649 40 649 60.5 722.5 c 128,-1,16
 81 796 81 796 118.5 859.5 c 128,-1,17
 156 923 156 923 209 976 c 128,-1,18
 262 1029 262 1029 325.5 1066 c 128,-1,19
 389 1103 389 1103 462.5 1123.5 c 128,-1,20
 536 1144 536 1144 615 1144 c 128,-1,22
 694 1144 694 1144 767.5 1123.5 c 128,-1,23
 841 1103 841 1103 904.5 1066 c 128,-1,24
 968 1029 968 1029 1020.5 976 c 128,-1,25
 1073 923 1073 923 1110.5 859.5 c 128,-1,26
 1148 796 1148 796 1168.5 722.5 c 128,-1,27
 1189 649 1189 649 1189 570 c 128,-1,1
1105 562 m 256,28,29
 1105 629 1105 629 1087.5 691 c 128,-1,30
 1070 753 1070 753 1038.5 807.5 c 128,-1,31
 1007 862 1007 862 962.5 906.5 c 128,-1,32
 918 951 918 951 863.5 983 c 128,-1,33
 809 1015 809 1015 747 1032.5 c 128,-1,34
 685 1050 685 1050 618 1050 c 256,35,36
 551 1050 551 1050 488 1032.5 c 128,-1,37
 425 1015 425 1015 371 983 c 128,-1,38
 317 951 317 951 272.5 906.5 c 128,-1,39
 228 862 228 862 196 807.5 c 128,-1,40
 164 753 164 753 146.5 691 c 128,-1,41
 129 629 129 629 129 562 c 256,42,43
 129 495 129 495 146.5 432 c 128,-1,44
 164 369 164 369 196 315 c 128,-1,45
 228 261 228 261 272.5 216.5 c 128,-1,46
 317 172 317 172 371 140 c 128,-1,47
 425 108 425 108 487.5 90.5 c 128,-1,48
 550 73 550 73 618 73 c 256,49,50
 685 73 685 73 747 90.5 c 128,-1,51
 809 108 809 108 863.5 140 c 128,-1,52
 918 172 918 172 962.5 216.5 c 128,-1,53
 1007 261 1007 261 1038.5 315.5 c 128,-1,54
 1070 370 1070 370 1087.5 432.5 c 128,-1,55
 1105 495 1105 495 1105 562 c 256,28,29
953 779 m 0,56,57
 958 772 958 772 957 762.5 c 128,-1,58
 956 753 956 753 952 744 c 0,59,60
 948 734 948 734 942 723 c 1,61,62
 900 678 900 678 833 611 c 0,63,64
 776 554 776 554 687 464.5 c 128,-1,65
 598 375 598 375 471 251 c 1,66,-1
 287 559 l 1,67,-1
 369 602 l 1,68,-1
 492 378 l 1,69,-1
 888 773 l 1,70,71
 902 780 902 780 915 784 c 0,72,73
 926 787 926 787 936.5 787 c 128,-1,74
 947 787 947 787 953 779 c 0,56,57
EndSplineSet
EndChar

StartChar: u16F48
Encoding: 204 94024 68
Width: 1229
VWidth: 2023
GlyphClass: 2
Flags: W
LayerCount: 3
Fore
SplineSet
1189 570 m 128,-1,1
 1189 491 1189 491 1168.5 417.5 c 128,-1,2
 1148 344 1148 344 1111 279.5 c 128,-1,3
 1074 215 1074 215 1021.5 162.5 c 128,-1,4
 969 110 969 110 905 72.5 c 128,-1,5
 841 35 841 35 768 14 c 128,-1,6
 695 -7 695 -7 615 -7 c 256,7,8
 536 -7 536 -7 462.5 14 c 128,-1,9
 389 35 389 35 325 72.5 c 128,-1,10
 261 110 261 110 208.5 162.5 c 128,-1,11
 156 215 156 215 118.5 279 c 128,-1,12
 81 343 81 343 60.5 416.5 c 128,-1,13
 40 490 40 490 40 570 c 256,14,15
 40 649 40 649 60.5 722.5 c 128,-1,16
 81 796 81 796 118.5 859.5 c 128,-1,17
 156 923 156 923 209 976 c 128,-1,18
 262 1029 262 1029 325.5 1066 c 128,-1,19
 389 1103 389 1103 462.5 1123.5 c 128,-1,20
 536 1144 536 1144 615 1144 c 128,-1,22
 694 1144 694 1144 767.5 1123.5 c 128,-1,23
 841 1103 841 1103 904.5 1066 c 128,-1,24
 968 1029 968 1029 1020.5 976 c 128,-1,25
 1073 923 1073 923 1110.5 859.5 c 128,-1,26
 1148 796 1148 796 1168.5 722.5 c 128,-1,27
 1189 649 1189 649 1189 570 c 128,-1,1
1105 562 m 256,28,29
 1105 629 1105 629 1087.5 691 c 128,-1,30
 1070 753 1070 753 1038.5 807.5 c 128,-1,31
 1007 862 1007 862 962.5 906.5 c 128,-1,32
 918 951 918 951 863.5 983 c 128,-1,33
 809 1015 809 1015 747 1032.5 c 128,-1,34
 685 1050 685 1050 618 1050 c 256,35,36
 551 1050 551 1050 488 1032.5 c 128,-1,37
 425 1015 425 1015 371 983 c 128,-1,38
 317 951 317 951 272.5 906.5 c 128,-1,39
 228 862 228 862 196 807.5 c 128,-1,40
 164 753 164 753 146.5 691 c 128,-1,41
 129 629 129 629 129 562 c 256,42,43
 129 495 129 495 146.5 432 c 128,-1,44
 164 369 164 369 196 315 c 128,-1,45
 228 261 228 261 272.5 216.5 c 128,-1,46
 317 172 317 172 371 140 c 128,-1,47
 425 108 425 108 487.5 90.5 c 128,-1,48
 550 73 550 73 618 73 c 256,49,50
 685 73 685 73 747 90.5 c 128,-1,51
 809 108 809 108 863.5 140 c 128,-1,52
 918 172 918 172 962.5 216.5 c 128,-1,53
 1007 261 1007 261 1038.5 315.5 c 128,-1,54
 1070 370 1070 370 1087.5 432.5 c 128,-1,55
 1105 495 1105 495 1105 562 c 256,28,29
953 779 m 0,56,57
 958 772 958 772 957 762.5 c 128,-1,58
 956 753 956 753 952 744 c 0,59,60
 948 734 948 734 942 723 c 1,61,62
 900 678 900 678 833 611 c 0,63,64
 776 554 776 554 687 464.5 c 128,-1,65
 598 375 598 375 471 251 c 1,66,-1
 287 559 l 1,67,-1
 369 602 l 1,68,-1
 492 378 l 1,69,-1
 888 773 l 1,70,71
 902 780 902 780 915 784 c 0,72,73
 926 787 926 787 936.5 787 c 128,-1,74
 947 787 947 787 953 779 c 0,56,57
EndSplineSet
EndChar

StartChar: u16F49
Encoding: 205 94025 69
Width: 1229
VWidth: 2023
GlyphClass: 2
Flags: W
LayerCount: 3
Fore
SplineSet
1189 570 m 128,-1,1
 1189 491 1189 491 1168.5 417.5 c 128,-1,2
 1148 344 1148 344 1111 279.5 c 128,-1,3
 1074 215 1074 215 1021.5 162.5 c 128,-1,4
 969 110 969 110 905 72.5 c 128,-1,5
 841 35 841 35 768 14 c 128,-1,6
 695 -7 695 -7 615 -7 c 256,7,8
 536 -7 536 -7 462.5 14 c 128,-1,9
 389 35 389 35 325 72.5 c 128,-1,10
 261 110 261 110 208.5 162.5 c 128,-1,11
 156 215 156 215 118.5 279 c 128,-1,12
 81 343 81 343 60.5 416.5 c 128,-1,13
 40 490 40 490 40 570 c 256,14,15
 40 649 40 649 60.5 722.5 c 128,-1,16
 81 796 81 796 118.5 859.5 c 128,-1,17
 156 923 156 923 209 976 c 128,-1,18
 262 1029 262 1029 325.5 1066 c 128,-1,19
 389 1103 389 1103 462.5 1123.5 c 128,-1,20
 536 1144 536 1144 615 1144 c 128,-1,22
 694 1144 694 1144 767.5 1123.5 c 128,-1,23
 841 1103 841 1103 904.5 1066 c 128,-1,24
 968 1029 968 1029 1020.5 976 c 128,-1,25
 1073 923 1073 923 1110.5 859.5 c 128,-1,26
 1148 796 1148 796 1168.5 722.5 c 128,-1,27
 1189 649 1189 649 1189 570 c 128,-1,1
1105 562 m 256,28,29
 1105 629 1105 629 1087.5 691 c 128,-1,30
 1070 753 1070 753 1038.5 807.5 c 128,-1,31
 1007 862 1007 862 962.5 906.5 c 128,-1,32
 918 951 918 951 863.5 983 c 128,-1,33
 809 1015 809 1015 747 1032.5 c 128,-1,34
 685 1050 685 1050 618 1050 c 256,35,36
 551 1050 551 1050 488 1032.5 c 128,-1,37
 425 1015 425 1015 371 983 c 128,-1,38
 317 951 317 951 272.5 906.5 c 128,-1,39
 228 862 228 862 196 807.5 c 128,-1,40
 164 753 164 753 146.5 691 c 128,-1,41
 129 629 129 629 129 562 c 256,42,43
 129 495 129 495 146.5 432 c 128,-1,44
 164 369 164 369 196 315 c 128,-1,45
 228 261 228 261 272.5 216.5 c 128,-1,46
 317 172 317 172 371 140 c 128,-1,47
 425 108 425 108 487.5 90.5 c 128,-1,48
 550 73 550 73 618 73 c 256,49,50
 685 73 685 73 747 90.5 c 128,-1,51
 809 108 809 108 863.5 140 c 128,-1,52
 918 172 918 172 962.5 216.5 c 128,-1,53
 1007 261 1007 261 1038.5 315.5 c 128,-1,54
 1070 370 1070 370 1087.5 432.5 c 128,-1,55
 1105 495 1105 495 1105 562 c 256,28,29
953 779 m 0,56,57
 958 772 958 772 957 762.5 c 128,-1,58
 956 753 956 753 952 744 c 0,59,60
 948 734 948 734 942 723 c 1,61,62
 900 678 900 678 833 611 c 0,63,64
 776 554 776 554 687 464.5 c 128,-1,65
 598 375 598 375 471 251 c 1,66,-1
 287 559 l 1,67,-1
 369 602 l 1,68,-1
 492 378 l 1,69,-1
 888 773 l 1,70,71
 902 780 902 780 915 784 c 0,72,73
 926 787 926 787 936.5 787 c 128,-1,74
 947 787 947 787 953 779 c 0,56,57
EndSplineSet
EndChar

StartChar: u16F4A
Encoding: 206 94026 70
Width: 1229
VWidth: 2023
GlyphClass: 2
Flags: W
LayerCount: 3
Fore
SplineSet
1189 570 m 128,-1,1
 1189 491 1189 491 1168.5 417.5 c 128,-1,2
 1148 344 1148 344 1111 279.5 c 128,-1,3
 1074 215 1074 215 1021.5 162.5 c 128,-1,4
 969 110 969 110 905 72.5 c 128,-1,5
 841 35 841 35 768 14 c 128,-1,6
 695 -7 695 -7 615 -7 c 256,7,8
 536 -7 536 -7 462.5 14 c 128,-1,9
 389 35 389 35 325 72.5 c 128,-1,10
 261 110 261 110 208.5 162.5 c 128,-1,11
 156 215 156 215 118.5 279 c 128,-1,12
 81 343 81 343 60.5 416.5 c 128,-1,13
 40 490 40 490 40 570 c 256,14,15
 40 649 40 649 60.5 722.5 c 128,-1,16
 81 796 81 796 118.5 859.5 c 128,-1,17
 156 923 156 923 209 976 c 128,-1,18
 262 1029 262 1029 325.5 1066 c 128,-1,19
 389 1103 389 1103 462.5 1123.5 c 128,-1,20
 536 1144 536 1144 615 1144 c 128,-1,22
 694 1144 694 1144 767.5 1123.5 c 128,-1,23
 841 1103 841 1103 904.5 1066 c 128,-1,24
 968 1029 968 1029 1020.5 976 c 128,-1,25
 1073 923 1073 923 1110.5 859.5 c 128,-1,26
 1148 796 1148 796 1168.5 722.5 c 128,-1,27
 1189 649 1189 649 1189 570 c 128,-1,1
1105 562 m 256,28,29
 1105 629 1105 629 1087.5 691 c 128,-1,30
 1070 753 1070 753 1038.5 807.5 c 128,-1,31
 1007 862 1007 862 962.5 906.5 c 128,-1,32
 918 951 918 951 863.5 983 c 128,-1,33
 809 1015 809 1015 747 1032.5 c 128,-1,34
 685 1050 685 1050 618 1050 c 256,35,36
 551 1050 551 1050 488 1032.5 c 128,-1,37
 425 1015 425 1015 371 983 c 128,-1,38
 317 951 317 951 272.5 906.5 c 128,-1,39
 228 862 228 862 196 807.5 c 128,-1,40
 164 753 164 753 146.5 691 c 128,-1,41
 129 629 129 629 129 562 c 256,42,43
 129 495 129 495 146.5 432 c 128,-1,44
 164 369 164 369 196 315 c 128,-1,45
 228 261 228 261 272.5 216.5 c 128,-1,46
 317 172 317 172 371 140 c 128,-1,47
 425 108 425 108 487.5 90.5 c 128,-1,48
 550 73 550 73 618 73 c 256,49,50
 685 73 685 73 747 90.5 c 128,-1,51
 809 108 809 108 863.5 140 c 128,-1,52
 918 172 918 172 962.5 216.5 c 128,-1,53
 1007 261 1007 261 1038.5 315.5 c 128,-1,54
 1070 370 1070 370 1087.5 432.5 c 128,-1,55
 1105 495 1105 495 1105 562 c 256,28,29
953 779 m 0,56,57
 958 772 958 772 957 762.5 c 128,-1,58
 956 753 956 753 952 744 c 0,59,60
 948 734 948 734 942 723 c 1,61,62
 900 678 900 678 833 611 c 0,63,64
 776 554 776 554 687 464.5 c 128,-1,65
 598 375 598 375 471 251 c 1,66,-1
 287 559 l 1,67,-1
 369 602 l 1,68,-1
 492 378 l 1,69,-1
 888 773 l 1,70,71
 902 780 902 780 915 784 c 0,72,73
 926 787 926 787 936.5 787 c 128,-1,74
 947 787 947 787 953 779 c 0,56,57
EndSplineSet
EndChar

StartChar: u16F4B
Encoding: 207 94027 71
Width: 1229
VWidth: 2023
GlyphClass: 2
Flags: W
LayerCount: 3
Fore
SplineSet
1189 570 m 128,-1,1
 1189 491 1189 491 1168.5 417.5 c 128,-1,2
 1148 344 1148 344 1111 279.5 c 128,-1,3
 1074 215 1074 215 1021.5 162.5 c 128,-1,4
 969 110 969 110 905 72.5 c 128,-1,5
 841 35 841 35 768 14 c 128,-1,6
 695 -7 695 -7 615 -7 c 256,7,8
 536 -7 536 -7 462.5 14 c 128,-1,9
 389 35 389 35 325 72.5 c 128,-1,10
 261 110 261 110 208.5 162.5 c 128,-1,11
 156 215 156 215 118.5 279 c 128,-1,12
 81 343 81 343 60.5 416.5 c 128,-1,13
 40 490 40 490 40 570 c 256,14,15
 40 649 40 649 60.5 722.5 c 128,-1,16
 81 796 81 796 118.5 859.5 c 128,-1,17
 156 923 156 923 209 976 c 128,-1,18
 262 1029 262 1029 325.5 1066 c 128,-1,19
 389 1103 389 1103 462.5 1123.5 c 128,-1,20
 536 1144 536 1144 615 1144 c 128,-1,22
 694 1144 694 1144 767.5 1123.5 c 128,-1,23
 841 1103 841 1103 904.5 1066 c 128,-1,24
 968 1029 968 1029 1020.5 976 c 128,-1,25
 1073 923 1073 923 1110.5 859.5 c 128,-1,26
 1148 796 1148 796 1168.5 722.5 c 128,-1,27
 1189 649 1189 649 1189 570 c 128,-1,1
1105 562 m 256,28,29
 1105 629 1105 629 1087.5 691 c 128,-1,30
 1070 753 1070 753 1038.5 807.5 c 128,-1,31
 1007 862 1007 862 962.5 906.5 c 128,-1,32
 918 951 918 951 863.5 983 c 128,-1,33
 809 1015 809 1015 747 1032.5 c 128,-1,34
 685 1050 685 1050 618 1050 c 256,35,36
 551 1050 551 1050 488 1032.5 c 128,-1,37
 425 1015 425 1015 371 983 c 128,-1,38
 317 951 317 951 272.5 906.5 c 128,-1,39
 228 862 228 862 196 807.5 c 128,-1,40
 164 753 164 753 146.5 691 c 128,-1,41
 129 629 129 629 129 562 c 256,42,43
 129 495 129 495 146.5 432 c 128,-1,44
 164 369 164 369 196 315 c 128,-1,45
 228 261 228 261 272.5 216.5 c 128,-1,46
 317 172 317 172 371 140 c 128,-1,47
 425 108 425 108 487.5 90.5 c 128,-1,48
 550 73 550 73 618 73 c 256,49,50
 685 73 685 73 747 90.5 c 128,-1,51
 809 108 809 108 863.5 140 c 128,-1,52
 918 172 918 172 962.5 216.5 c 128,-1,53
 1007 261 1007 261 1038.5 315.5 c 128,-1,54
 1070 370 1070 370 1087.5 432.5 c 128,-1,55
 1105 495 1105 495 1105 562 c 256,28,29
953 779 m 0,56,57
 958 772 958 772 957 762.5 c 128,-1,58
 956 753 956 753 952 744 c 0,59,60
 948 734 948 734 942 723 c 1,61,62
 900 678 900 678 833 611 c 0,63,64
 776 554 776 554 687 464.5 c 128,-1,65
 598 375 598 375 471 251 c 1,66,-1
 287 559 l 1,67,-1
 369 602 l 1,68,-1
 492 378 l 1,69,-1
 888 773 l 1,70,71
 902 780 902 780 915 784 c 0,72,73
 926 787 926 787 936.5 787 c 128,-1,74
 947 787 947 787 953 779 c 0,56,57
EndSplineSet
EndChar

StartChar: u16F4C
Encoding: 208 94028 72
Width: 1229
VWidth: 2023
GlyphClass: 2
Flags: W
LayerCount: 3
Fore
SplineSet
1189 570 m 128,-1,1
 1189 491 1189 491 1168.5 417.5 c 128,-1,2
 1148 344 1148 344 1111 279.5 c 128,-1,3
 1074 215 1074 215 1021.5 162.5 c 128,-1,4
 969 110 969 110 905 72.5 c 128,-1,5
 841 35 841 35 768 14 c 128,-1,6
 695 -7 695 -7 615 -7 c 256,7,8
 536 -7 536 -7 462.5 14 c 128,-1,9
 389 35 389 35 325 72.5 c 128,-1,10
 261 110 261 110 208.5 162.5 c 128,-1,11
 156 215 156 215 118.5 279 c 128,-1,12
 81 343 81 343 60.5 416.5 c 128,-1,13
 40 490 40 490 40 570 c 256,14,15
 40 649 40 649 60.5 722.5 c 128,-1,16
 81 796 81 796 118.5 859.5 c 128,-1,17
 156 923 156 923 209 976 c 128,-1,18
 262 1029 262 1029 325.5 1066 c 128,-1,19
 389 1103 389 1103 462.5 1123.5 c 128,-1,20
 536 1144 536 1144 615 1144 c 128,-1,22
 694 1144 694 1144 767.5 1123.5 c 128,-1,23
 841 1103 841 1103 904.5 1066 c 128,-1,24
 968 1029 968 1029 1020.5 976 c 128,-1,25
 1073 923 1073 923 1110.5 859.5 c 128,-1,26
 1148 796 1148 796 1168.5 722.5 c 128,-1,27
 1189 649 1189 649 1189 570 c 128,-1,1
1105 562 m 256,28,29
 1105 629 1105 629 1087.5 691 c 128,-1,30
 1070 753 1070 753 1038.5 807.5 c 128,-1,31
 1007 862 1007 862 962.5 906.5 c 128,-1,32
 918 951 918 951 863.5 983 c 128,-1,33
 809 1015 809 1015 747 1032.5 c 128,-1,34
 685 1050 685 1050 618 1050 c 256,35,36
 551 1050 551 1050 488 1032.5 c 128,-1,37
 425 1015 425 1015 371 983 c 128,-1,38
 317 951 317 951 272.5 906.5 c 128,-1,39
 228 862 228 862 196 807.5 c 128,-1,40
 164 753 164 753 146.5 691 c 128,-1,41
 129 629 129 629 129 562 c 256,42,43
 129 495 129 495 146.5 432 c 128,-1,44
 164 369 164 369 196 315 c 128,-1,45
 228 261 228 261 272.5 216.5 c 128,-1,46
 317 172 317 172 371 140 c 128,-1,47
 425 108 425 108 487.5 90.5 c 128,-1,48
 550 73 550 73 618 73 c 256,49,50
 685 73 685 73 747 90.5 c 128,-1,51
 809 108 809 108 863.5 140 c 128,-1,52
 918 172 918 172 962.5 216.5 c 128,-1,53
 1007 261 1007 261 1038.5 315.5 c 128,-1,54
 1070 370 1070 370 1087.5 432.5 c 128,-1,55
 1105 495 1105 495 1105 562 c 256,28,29
953 779 m 0,56,57
 958 772 958 772 957 762.5 c 128,-1,58
 956 753 956 753 952 744 c 0,59,60
 948 734 948 734 942 723 c 1,61,62
 900 678 900 678 833 611 c 0,63,64
 776 554 776 554 687 464.5 c 128,-1,65
 598 375 598 375 471 251 c 1,66,-1
 287 559 l 1,67,-1
 369 602 l 1,68,-1
 492 378 l 1,69,-1
 888 773 l 1,70,71
 902 780 902 780 915 784 c 0,72,73
 926 787 926 787 936.5 787 c 128,-1,74
 947 787 947 787 953 779 c 0,56,57
EndSplineSet
EndChar

StartChar: u16F4D
Encoding: 209 94029 73
Width: 1229
VWidth: 2023
GlyphClass: 2
Flags: W
LayerCount: 3
Fore
SplineSet
1189 570 m 128,-1,1
 1189 491 1189 491 1168.5 417.5 c 128,-1,2
 1148 344 1148 344 1111 279.5 c 128,-1,3
 1074 215 1074 215 1021.5 162.5 c 128,-1,4
 969 110 969 110 905 72.5 c 128,-1,5
 841 35 841 35 768 14 c 128,-1,6
 695 -7 695 -7 615 -7 c 256,7,8
 536 -7 536 -7 462.5 14 c 128,-1,9
 389 35 389 35 325 72.5 c 128,-1,10
 261 110 261 110 208.5 162.5 c 128,-1,11
 156 215 156 215 118.5 279 c 128,-1,12
 81 343 81 343 60.5 416.5 c 128,-1,13
 40 490 40 490 40 570 c 256,14,15
 40 649 40 649 60.5 722.5 c 128,-1,16
 81 796 81 796 118.5 859.5 c 128,-1,17
 156 923 156 923 209 976 c 128,-1,18
 262 1029 262 1029 325.5 1066 c 128,-1,19
 389 1103 389 1103 462.5 1123.5 c 128,-1,20
 536 1144 536 1144 615 1144 c 128,-1,22
 694 1144 694 1144 767.5 1123.5 c 128,-1,23
 841 1103 841 1103 904.5 1066 c 128,-1,24
 968 1029 968 1029 1020.5 976 c 128,-1,25
 1073 923 1073 923 1110.5 859.5 c 128,-1,26
 1148 796 1148 796 1168.5 722.5 c 128,-1,27
 1189 649 1189 649 1189 570 c 128,-1,1
1105 562 m 256,28,29
 1105 629 1105 629 1087.5 691 c 128,-1,30
 1070 753 1070 753 1038.5 807.5 c 128,-1,31
 1007 862 1007 862 962.5 906.5 c 128,-1,32
 918 951 918 951 863.5 983 c 128,-1,33
 809 1015 809 1015 747 1032.5 c 128,-1,34
 685 1050 685 1050 618 1050 c 256,35,36
 551 1050 551 1050 488 1032.5 c 128,-1,37
 425 1015 425 1015 371 983 c 128,-1,38
 317 951 317 951 272.5 906.5 c 128,-1,39
 228 862 228 862 196 807.5 c 128,-1,40
 164 753 164 753 146.5 691 c 128,-1,41
 129 629 129 629 129 562 c 256,42,43
 129 495 129 495 146.5 432 c 128,-1,44
 164 369 164 369 196 315 c 128,-1,45
 228 261 228 261 272.5 216.5 c 128,-1,46
 317 172 317 172 371 140 c 128,-1,47
 425 108 425 108 487.5 90.5 c 128,-1,48
 550 73 550 73 618 73 c 256,49,50
 685 73 685 73 747 90.5 c 128,-1,51
 809 108 809 108 863.5 140 c 128,-1,52
 918 172 918 172 962.5 216.5 c 128,-1,53
 1007 261 1007 261 1038.5 315.5 c 128,-1,54
 1070 370 1070 370 1087.5 432.5 c 128,-1,55
 1105 495 1105 495 1105 562 c 256,28,29
953 779 m 0,56,57
 958 772 958 772 957 762.5 c 128,-1,58
 956 753 956 753 952 744 c 0,59,60
 948 734 948 734 942 723 c 1,61,62
 900 678 900 678 833 611 c 0,63,64
 776 554 776 554 687 464.5 c 128,-1,65
 598 375 598 375 471 251 c 1,66,-1
 287 559 l 1,67,-1
 369 602 l 1,68,-1
 492 378 l 1,69,-1
 888 773 l 1,70,71
 902 780 902 780 915 784 c 0,72,73
 926 787 926 787 936.5 787 c 128,-1,74
 947 787 947 787 953 779 c 0,56,57
EndSplineSet
EndChar

StartChar: u16F4E
Encoding: 210 94030 74
Width: 1229
VWidth: 2023
GlyphClass: 2
Flags: W
LayerCount: 3
Fore
SplineSet
1189 570 m 128,-1,1
 1189 491 1189 491 1168.5 417.5 c 128,-1,2
 1148 344 1148 344 1111 279.5 c 128,-1,3
 1074 215 1074 215 1021.5 162.5 c 128,-1,4
 969 110 969 110 905 72.5 c 128,-1,5
 841 35 841 35 768 14 c 128,-1,6
 695 -7 695 -7 615 -7 c 256,7,8
 536 -7 536 -7 462.5 14 c 128,-1,9
 389 35 389 35 325 72.5 c 128,-1,10
 261 110 261 110 208.5 162.5 c 128,-1,11
 156 215 156 215 118.5 279 c 128,-1,12
 81 343 81 343 60.5 416.5 c 128,-1,13
 40 490 40 490 40 570 c 256,14,15
 40 649 40 649 60.5 722.5 c 128,-1,16
 81 796 81 796 118.5 859.5 c 128,-1,17
 156 923 156 923 209 976 c 128,-1,18
 262 1029 262 1029 325.5 1066 c 128,-1,19
 389 1103 389 1103 462.5 1123.5 c 128,-1,20
 536 1144 536 1144 615 1144 c 128,-1,22
 694 1144 694 1144 767.5 1123.5 c 128,-1,23
 841 1103 841 1103 904.5 1066 c 128,-1,24
 968 1029 968 1029 1020.5 976 c 128,-1,25
 1073 923 1073 923 1110.5 859.5 c 128,-1,26
 1148 796 1148 796 1168.5 722.5 c 128,-1,27
 1189 649 1189 649 1189 570 c 128,-1,1
1105 562 m 256,28,29
 1105 629 1105 629 1087.5 691 c 128,-1,30
 1070 753 1070 753 1038.5 807.5 c 128,-1,31
 1007 862 1007 862 962.5 906.5 c 128,-1,32
 918 951 918 951 863.5 983 c 128,-1,33
 809 1015 809 1015 747 1032.5 c 128,-1,34
 685 1050 685 1050 618 1050 c 256,35,36
 551 1050 551 1050 488 1032.5 c 128,-1,37
 425 1015 425 1015 371 983 c 128,-1,38
 317 951 317 951 272.5 906.5 c 128,-1,39
 228 862 228 862 196 807.5 c 128,-1,40
 164 753 164 753 146.5 691 c 128,-1,41
 129 629 129 629 129 562 c 256,42,43
 129 495 129 495 146.5 432 c 128,-1,44
 164 369 164 369 196 315 c 128,-1,45
 228 261 228 261 272.5 216.5 c 128,-1,46
 317 172 317 172 371 140 c 128,-1,47
 425 108 425 108 487.5 90.5 c 128,-1,48
 550 73 550 73 618 73 c 256,49,50
 685 73 685 73 747 90.5 c 128,-1,51
 809 108 809 108 863.5 140 c 128,-1,52
 918 172 918 172 962.5 216.5 c 128,-1,53
 1007 261 1007 261 1038.5 315.5 c 128,-1,54
 1070 370 1070 370 1087.5 432.5 c 128,-1,55
 1105 495 1105 495 1105 562 c 256,28,29
953 779 m 0,56,57
 958 772 958 772 957 762.5 c 128,-1,58
 956 753 956 753 952 744 c 0,59,60
 948 734 948 734 942 723 c 1,61,62
 900 678 900 678 833 611 c 0,63,64
 776 554 776 554 687 464.5 c 128,-1,65
 598 375 598 375 471 251 c 1,66,-1
 287 559 l 1,67,-1
 369 602 l 1,68,-1
 492 378 l 1,69,-1
 888 773 l 1,70,71
 902 780 902 780 915 784 c 0,72,73
 926 787 926 787 936.5 787 c 128,-1,74
 947 787 947 787 953 779 c 0,56,57
EndSplineSet
EndChar

StartChar: u16F4F
Encoding: 211 94031 75
Width: 1229
VWidth: 2023
GlyphClass: 2
Flags: W
LayerCount: 3
Fore
SplineSet
1189 570 m 128,-1,1
 1189 491 1189 491 1168.5 417.5 c 128,-1,2
 1148 344 1148 344 1111 279.5 c 128,-1,3
 1074 215 1074 215 1021.5 162.5 c 128,-1,4
 969 110 969 110 905 72.5 c 128,-1,5
 841 35 841 35 768 14 c 128,-1,6
 695 -7 695 -7 615 -7 c 256,7,8
 536 -7 536 -7 462.5 14 c 128,-1,9
 389 35 389 35 325 72.5 c 128,-1,10
 261 110 261 110 208.5 162.5 c 128,-1,11
 156 215 156 215 118.5 279 c 128,-1,12
 81 343 81 343 60.5 416.5 c 128,-1,13
 40 490 40 490 40 570 c 256,14,15
 40 649 40 649 60.5 722.5 c 128,-1,16
 81 796 81 796 118.5 859.5 c 128,-1,17
 156 923 156 923 209 976 c 128,-1,18
 262 1029 262 1029 325.5 1066 c 128,-1,19
 389 1103 389 1103 462.5 1123.5 c 128,-1,20
 536 1144 536 1144 615 1144 c 128,-1,22
 694 1144 694 1144 767.5 1123.5 c 128,-1,23
 841 1103 841 1103 904.5 1066 c 128,-1,24
 968 1029 968 1029 1020.5 976 c 128,-1,25
 1073 923 1073 923 1110.5 859.5 c 128,-1,26
 1148 796 1148 796 1168.5 722.5 c 128,-1,27
 1189 649 1189 649 1189 570 c 128,-1,1
1105 562 m 256,28,29
 1105 629 1105 629 1087.5 691 c 128,-1,30
 1070 753 1070 753 1038.5 807.5 c 128,-1,31
 1007 862 1007 862 962.5 906.5 c 128,-1,32
 918 951 918 951 863.5 983 c 128,-1,33
 809 1015 809 1015 747 1032.5 c 128,-1,34
 685 1050 685 1050 618 1050 c 256,35,36
 551 1050 551 1050 488 1032.5 c 128,-1,37
 425 1015 425 1015 371 983 c 128,-1,38
 317 951 317 951 272.5 906.5 c 128,-1,39
 228 862 228 862 196 807.5 c 128,-1,40
 164 753 164 753 146.5 691 c 128,-1,41
 129 629 129 629 129 562 c 256,42,43
 129 495 129 495 146.5 432 c 128,-1,44
 164 369 164 369 196 315 c 128,-1,45
 228 261 228 261 272.5 216.5 c 128,-1,46
 317 172 317 172 371 140 c 128,-1,47
 425 108 425 108 487.5 90.5 c 128,-1,48
 550 73 550 73 618 73 c 256,49,50
 685 73 685 73 747 90.5 c 128,-1,51
 809 108 809 108 863.5 140 c 128,-1,52
 918 172 918 172 962.5 216.5 c 128,-1,53
 1007 261 1007 261 1038.5 315.5 c 128,-1,54
 1070 370 1070 370 1087.5 432.5 c 128,-1,55
 1105 495 1105 495 1105 562 c 256,28,29
953 779 m 0,56,57
 958 772 958 772 957 762.5 c 128,-1,58
 956 753 956 753 952 744 c 0,59,60
 948 734 948 734 942 723 c 1,61,62
 900 678 900 678 833 611 c 0,63,64
 776 554 776 554 687 464.5 c 128,-1,65
 598 375 598 375 471 251 c 1,66,-1
 287 559 l 1,67,-1
 369 602 l 1,68,-1
 492 378 l 1,69,-1
 888 773 l 1,70,71
 902 780 902 780 915 784 c 0,72,73
 926 787 926 787 936.5 787 c 128,-1,74
 947 787 947 787 953 779 c 0,56,57
EndSplineSet
EndChar

StartChar: u16F50
Encoding: 212 94032 76
Width: 750
VWidth: 2023
GlyphClass: 2
Flags: W
LayerCount: 3
Fore
SplineSet
726 1295 m 1,0,1
 627 1291 627 1291 552 1274 c 128,-1,2
 477 1257 477 1257 422.5 1225 c 128,-1,3
 368 1193 368 1193 332 1147 c 128,-1,4
 296 1101 296 1101 275 1039.5 c 128,-1,5
 254 978 254 978 245.5 902 c 128,-1,6
 237 826 237 826 237 734 c 0,7,8
 237 679 237 679 245 622.5 c 128,-1,9
 253 566 253 566 270 511.5 c 128,-1,10
 287 457 287 457 313.5 407 c 128,-1,11
 340 357 340 357 377 316.5 c 128,-1,12
 414 276 414 276 461.5 247 c 128,-1,13
 509 218 509 218 568 205 c 0,14,15
 604 197 604 197 641.5 196.5 c 128,-1,16
 679 196 679 196 717 197 c 1,17,-1
 718 0 l 1,18,-1
 712 0 l 1,19,-1
 624 0 l 2,20,21
 525 0 525 0 442.5 30.5 c 128,-1,22
 360 61 360 61 293.5 113.5 c 128,-1,23
 227 166 227 166 176.5 237.5 c 128,-1,24
 126 309 126 309 92.5 391 c 128,-1,25
 59 473 59 473 42 562 c 128,-1,26
 25 651 25 651 25 739 c 0,27,28
 25 843 25 843 42.5 939.5 c 128,-1,29
 60 1036 60 1036 95 1119.5 c 128,-1,30
 130 1203 130 1203 183 1271.5 c 128,-1,31
 236 1340 236 1340 309 1388.5 c 128,-1,32
 382 1437 382 1437 474.5 1463 c 128,-1,33
 567 1489 567 1489 680 1488 c 2,34,-1
 726 1488 l 1,35,-1
 726 1295 l 1,0,1
EndSplineSet
EndChar

StartChar: u16F51
Encoding: 213 94033 77
Width: 394
VWidth: 2023
Flags: W
AnchorPoint: "SP" 396 1356 mark 0
AnchorPoint: "S" 395 1356 exit 0
AnchorPoint: "S" 0 1356 entry 0
LayerCount: 3
Fore
SplineSet
369 1639 m 0,0,1
 369 1596 369 1596 358.5 1553 c 128,-1,2
 348 1510 348 1510 328.5 1469.5 c 128,-1,3
 309 1429 309 1429 281 1394 c 128,-1,4
 253 1359 253 1359 218.5 1332.5 c 128,-1,5
 184 1306 184 1306 142.5 1290.5 c 128,-1,6
 101 1275 101 1275 56 1275 c 1,7,-1
 52 1390 l 1,8,9
 87 1399 87 1399 113.5 1419.5 c 128,-1,10
 140 1440 140 1440 160.5 1467.5 c 128,-1,11
 181 1495 181 1495 195 1527 c 128,-1,12
 209 1559 209 1559 220 1591 c 1,13,14
 207 1589 207 1589 194.5 1588 c 128,-1,15
 182 1587 182 1587 169 1587 c 0,16,17
 134 1587 134 1587 107 1601 c 128,-1,18
 80 1615 80 1615 62 1639 c 128,-1,19
 44 1663 44 1663 34.5 1694 c 128,-1,20
 25 1725 25 1725 25 1757 c 256,21,22
 25 1789 25 1789 39 1817 c 128,-1,23
 53 1845 53 1845 76 1866 c 128,-1,24
 99 1887 99 1887 128.5 1898.5 c 128,-1,25
 158 1910 158 1910 189 1910 c 0,26,27
 232 1910 232 1910 262 1899.5 c 128,-1,28
 292 1889 292 1889 312 1870 c 128,-1,29
 332 1851 332 1851 343.5 1825.5 c 128,-1,30
 355 1800 355 1800 360.5 1769.5 c 128,-1,31
 366 1739 366 1739 367.5 1706 c 128,-1,32
 369 1673 369 1673 369 1639 c 0,0,1
EndSplineSet
MultipleSubs2: "AspToneB-1" u16F51.B u16F92
MultipleSubs2: "AspToneR-1" u16F51 u16F8F
MultipleSubs2: "AspToneT-1" u16F51.BASE u16F90
MultipleSubs2: "AspToneA-1" u16F51.A u16F91
EndChar

StartChar: u16F52
Encoding: 214 94034 78
Width: 1229
VWidth: 2023
Flags: W
LayerCount: 3
Fore
SplineSet
1014 746 m 1,0,1
 921 742 921 742 900 680 c 0,2,3
 890 652 890 652 889.5 620 c 128,-1,4
 889 588 889 588 891 573.5 c 128,-1,5
 893 559 893 559 897.5 545 c 128,-1,6
 902 531 902 531 909 518 c 128,-1,7
 916 505 916 505 925 495 c 0,8,9
 953 465 953 465 993 464 c 2,10,-1
 1012 464 l 1,11,-1
 1013 414 l 1,12,-1
 989 414 l 2,13,14
 893 414 893 414 852 514 c 0,15,16
 835 556 835 556 835 593 c 128,-1,18
 835 630 835 630 839.5 654.5 c 128,-1,19
 844 679 844 679 853 700.5 c 128,-1,20
 862 722 862 722 875.5 739.5 c 128,-1,21
 889 757 889 757 908 770 c 0,22,23
 946 795 946 795 1003 795 c 1,24,-1
 1014 795 l 1,25,-1
 1014 746 l 1,0,1
1026.5 643 m 128,-1,27
 1052 643 1052 643 1052 617.5 c 128,-1,28
 1052 592 1052 592 1027 592 c 128,-1,29
 1002 592 1002 592 1001.5 617.5 c 128,-1,26
 1001 643 1001 643 1026.5 643 c 128,-1,27
962 217 m 128,-1,31
 1105 360 1105 360 1105 562 c 0,32,33
 1105 763 1105 763 962 907 c 0,34,35
 819 1050 819 1050 618 1050 c 0,36,37
 416 1050 416 1050 272.5 906.5 c 128,-1,38
 129 763 129 763 129 561.5 c 128,-1,39
 129 360 129 360 272 216.5 c 128,-1,40
 415 73 415 73 618 73 c 0,41,42
 819 74 819 74 962 217 c 128,-1,31
1021 976 m 0,43,44
 1189 807 1189 807 1189 570 c 0,45,46
 1189 491 1189 491 1168.5 417.5 c 128,-1,47
 1148 344 1148 344 1111 279.5 c 128,-1,48
 1074 215 1074 215 1021.5 162.5 c 128,-1,49
 969 110 969 110 905 72 c 0,50,51
 770 -7 770 -7 615 -7 c 0,52,53
 377 -7 377 -7 208 162 c 0,54,55
 40 331 40 331 40 570 c 0,56,57
 40 808 40 808 208.5 976 c 128,-1,58
 377 1144 377 1144 615 1144 c 0,59,60
 854 1144 854 1144 1021 976 c 0,43,44
358 734 m 1,61,-1
 339 734 l 1,62,-1
 285 551 l 1,63,-1
 411 551 l 1,64,-1
 358 734 l 1,61,-1
381 822 m 1,65,-1
 510 407 l 1,66,-1
 454 407 l 1,67,-1
 425 502 l 1,68,-1
 272 502 l 1,69,-1
 272 504 l 1,70,-1
 243 407 l 1,71,-1
 189 407 l 1,72,-1
 317 822 l 1,73,-1
 381 822 l 1,65,-1
584 633 m 1,74,-1
 682 633 l 2,75,76
 751 633 751 633 751 698 c 128,-1,77
 751 763 751 763 689 763 c 2,78,-1
 584 763 l 1,79,-1
 584 633 l 1,74,-1
731 585 m 1,80,-1
 812 406 l 1,81,-1
 748 406 l 1,82,-1
 680 577 l 1,83,-1
 584 577 l 1,84,-1
 584 406 l 1,85,-1
 526 406 l 1,86,-1
 526 821 l 1,87,-1
 695 821 l 2,88,89
 761 821 761 821 794 760 c 0,90,91
 809 733 809 733 809 707 c 128,-1,92
 809 681 809 681 803.5 663.5 c 128,-1,93
 798 646 798 646 788 631 c 0,94,95
 766 599 766 599 731 585 c 1,80,-1
EndSplineSet
EndChar

StartChar: u16F53
Encoding: 215 94035 79
Width: 394
VWidth: 2023
Flags: W
AnchorPoint: "V" 395 0 exit 0
AnchorPoint: "F" 0 0 entry 0
LayerCount: 3
Fore
SplineSet
369 374 m 0,0,1
 369 331 369 331 358.5 288 c 128,-1,2
 348 245 348 245 328.5 204.5 c 128,-1,3
 309 164 309 164 281 129 c 128,-1,4
 253 94 253 94 218.5 67.5 c 128,-1,5
 184 41 184 41 142.5 26 c 128,-1,6
 101 11 101 11 56 10 c 1,7,-1
 52 125 l 1,8,9
 87 134 87 134 113.5 155 c 128,-1,10
 140 176 140 176 160.5 203 c 128,-1,11
 181 230 181 230 195 262 c 128,-1,12
 209 294 209 294 220 326 c 1,13,14
 207 324 207 324 194.5 323 c 128,-1,15
 182 322 182 322 169 322 c 0,16,17
 134 322 134 322 107 336.5 c 128,-1,18
 80 351 80 351 62 375 c 128,-1,19
 44 399 44 399 34.5 429.5 c 128,-1,20
 25 460 25 460 25 492 c 256,21,22
 25 524 25 524 39 552 c 128,-1,23
 53 580 53 580 76 601 c 128,-1,24
 99 622 99 622 128.5 634 c 128,-1,25
 158 646 158 646 189 646 c 0,26,27
 232 646 232 646 262 635 c 128,-1,28
 292 624 292 624 312 605 c 128,-1,29
 332 586 332 586 343.5 560.5 c 128,-1,30
 355 535 355 535 360.5 505 c 128,-1,31
 366 475 366 475 367.5 441.5 c 128,-1,32
 369 408 369 408 369 374 c 0,0,1
EndSplineSet
EndChar

StartChar: u16F54
Encoding: 216 94036 80
Width: 692
VWidth: 2023
GlyphClass: 2
Flags: W
AnchorPoint: "F" 0 0 entry 0
AnchorPoint: "V" 692 0 exit 0
AnchorPoint: "V" 0 0 entry 0
LayerCount: 3
Fore
SplineSet
615 320 m 1,0,-1
 613 178 l 1,1,-1
 74 178 l 1,2,-1
 74 320 l 1,3,-1
 615 320 l 1,0,-1
EndSplineSet
Substitution2: "VowelB-1" u16F54.B
Substitution2: "VowelR-1" u16F54.R
Substitution2: "VowelA-1" u16F54.A
Substitution2: "VowelT-1" u16F54.T
EndChar

StartChar: u16F55
Encoding: 217 94037 81
Width: 844
VWidth: 2023
GlyphClass: 2
Flags: W
AnchorPoint: "F" 0 0 entry 0
AnchorPoint: "V" 845 0 exit 0
AnchorPoint: "V" 0 0 entry 0
LayerCount: 3
Fore
SplineSet
751 269 m 2,0,1
 751 215 751 215 734.5 166 c 128,-1,2
 718 117 718 117 686.5 79.5 c 128,-1,3
 655 42 655 42 610 20 c 128,-1,4
 565 -2 565 -2 508 -2 c 0,5,6
 460 -2 460 -2 424 10 c 128,-1,7
 388 22 388 22 361.5 44 c 128,-1,8
 335 66 335 66 318 95.5 c 128,-1,9
 301 125 301 125 291 160.5 c 128,-1,10
 281 196 281 196 277 235.5 c 128,-1,11
 273 275 273 275 273 316 c 1,12,-1
 51 314 l 1,13,-1
 51 451 l 1,14,-1
 413 451 l 1,15,-1
 412 269 l 2,16,17
 412 242 412 242 417 219 c 128,-1,18
 422 196 422 196 433.5 180 c 128,-1,19
 445 164 445 164 462.5 155 c 128,-1,20
 480 146 480 146 504 146 c 128,-1,22
 528 146 528 146 547 157 c 128,-1,23
 566 168 566 168 579.5 186 c 128,-1,24
 593 204 593 204 600 226 c 128,-1,25
 607 248 607 248 607 269 c 2,26,-1
 607 557 l 1,27,-1
 751 557 l 1,28,-1
 751 269 l 2,0,1
EndSplineSet
Substitution2: "VowelB-1" u16F55.B
Substitution2: "VowelR-1" u16F55.R
Substitution2: "VowelA-1" u16F55.A
Substitution2: "VowelT-1" u16F55.T
EndChar

StartChar: u16F57
Encoding: 218 94039 82
Width: 729
VWidth: 2023
GlyphClass: 2
Flags: W
AnchorPoint: "F" 0 0 entry 0
AnchorPoint: "V" 730 0 exit 0
AnchorPoint: "V" 0 0 entry 0
LayerCount: 3
Fore
SplineSet
652 174 m 1,0,1
 628 138 628 138 598 106.5 c 128,-1,2
 568 75 568 75 533 51.5 c 128,-1,3
 498 28 498 28 458 14 c 128,-1,4
 418 0 418 0 373 0 c 0,5,6
 336 0 336 0 296 11 c 128,-1,7
 256 22 256 22 223 44 c 128,-1,8
 190 66 190 66 169 98.5 c 128,-1,9
 148 131 148 131 148 174 c 0,10,11
 148 210 148 210 162.5 248.5 c 128,-1,12
 177 287 177 287 198.5 324.5 c 128,-1,13
 220 362 220 362 245 396 c 128,-1,14
 270 430 270 430 292 457 c 1,15,-1
 41 455 l 1,16,-1
 41 607 l 1,17,-1
 478 607 l 1,18,-1
 478 482 l 1,19,20
 468 468 468 468 451.5 446.5 c 128,-1,21
 435 425 435 425 416.5 399 c 128,-1,22
 398 373 398 373 379 345 c 128,-1,23
 360 317 360 317 344.5 290.5 c 128,-1,24
 329 264 329 264 319.5 241 c 128,-1,25
 310 218 310 218 310 202 c 0,26,27
 310 185 310 185 316 174 c 128,-1,28
 322 163 322 163 332.5 156 c 128,-1,29
 343 149 343 149 356.5 146.5 c 128,-1,30
 370 144 370 144 385 144 c 0,31,32
 415 144 415 144 442.5 158.5 c 128,-1,33
 470 173 470 173 493 196 c 128,-1,34
 516 219 516 219 533 246.5 c 128,-1,35
 550 274 550 274 559 300 c 1,36,-1
 652 174 l 1,0,1
EndSplineSet
Substitution2: "VowelB-1" u16F57.B
Substitution2: "VowelR-1" u16F57.R
Substitution2: "VowelA-1" u16F57.A
Substitution2: "VowelT-1" u16F57.T
EndChar

StartChar: u16F58
Encoding: 219 94040 83
Width: 771
VWidth: 2023
GlyphClass: 2
Flags: W
AnchorPoint: "F" 0 0 entry 0
AnchorPoint: "V" 771 0 exit 0
AnchorPoint: "V" 0 0 entry 0
LayerCount: 3
Fore
SplineSet
694 178 m 0,0,1
 695 150 695 150 686 124.5 c 128,-1,2
 677 99 677 99 661 77.5 c 128,-1,3
 645 56 645 56 623.5 39 c 128,-1,4
 602 22 602 22 577 10.5 c 128,-1,5
 552 -1 552 -1 525.5 -6.5 c 128,-1,6
 499 -12 499 -12 474 -10 c 0,7,8
 417 -6 417 -6 367.5 2.5 c 128,-1,9
 318 11 318 11 277.5 30 c 128,-1,10
 237 49 237 49 205 80 c 128,-1,11
 173 111 173 111 150 160 c 0,12,13
 140 181 140 181 139 207.5 c 128,-1,14
 138 234 138 234 144.5 262.5 c 128,-1,15
 151 291 151 291 165 321.5 c 128,-1,16
 179 352 179 352 199.5 380.5 c 128,-1,17
 220 409 220 409 245.5 434.5 c 128,-1,18
 271 460 271 460 302 480 c 1,19,-1
 42 480 l 1,20,-1
 42 627 l 1,21,-1
 492 627 l 1,22,-1
 492 498 l 1,23,24
 480 494 480 494 458 478.5 c 128,-1,25
 436 463 436 463 411 440.5 c 128,-1,26
 386 418 386 418 359.5 390 c 128,-1,27
 333 362 333 362 312.5 332 c 128,-1,28
 292 302 292 302 279 271 c 128,-1,29
 266 240 266 240 267.5 212 c 128,-1,30
 269 184 269 184 287 161 c 128,-1,31
 305 138 305 138 346 123 c 1,32,33
 340 147 340 147 339.5 175 c 128,-1,34
 339 203 339 203 345 230.5 c 128,-1,35
 351 258 351 258 364.5 282.5 c 128,-1,36
 378 307 378 307 403 326 c 0,37,38
 449 360 449 360 497.5 361.5 c 128,-1,39
 546 363 546 363 597 336 c 0,40,41
 645 310 645 310 668.5 271.5 c 128,-1,42
 692 233 692 233 694 178 c 0,0,1
588 180 m 1,43,44
 587 196 587 196 581.5 210.5 c 128,-1,45
 576 225 576 225 566 235.5 c 128,-1,46
 556 246 556 246 542.5 253 c 128,-1,47
 529 260 529 260 513 261 c 0,48,49
 495 262 495 262 479.5 256 c 128,-1,50
 464 250 464 250 452 239 c 128,-1,51
 440 228 440 228 432 213 c 128,-1,52
 424 198 424 198 423 180 c 0,53,54
 422 165 422 165 426.5 151 c 128,-1,55
 431 137 431 137 439.5 125.5 c 128,-1,56
 448 114 448 114 460.5 106.5 c 128,-1,57
 473 99 473 99 488 96 c 0,58,59
 507 92 507 92 525 97.5 c 128,-1,60
 543 103 543 103 557.5 115 c 128,-1,61
 572 127 572 127 580.5 144 c 128,-1,62
 589 161 589 161 588 180 c 1,43,44
EndSplineSet
Substitution2: "VowelB-1" u16F58.B
Substitution2: "VowelR-1" u16F58.R
Substitution2: "VowelA-1" u16F58.A
Substitution2: "VowelT-1" u16F58.T
EndChar

StartChar: u16F59
Encoding: 220 94041 84
Width: 734
VWidth: 2023
GlyphClass: 2
Flags: W
AnchorPoint: "F" 0 0 entry 0
AnchorPoint: "V" 734 0 exit 0
AnchorPoint: "V" 0 0 entry 0
LayerCount: 3
Fore
SplineSet
647 250 m 0,0,1
 647 191 647 191 624.5 139.5 c 128,-1,2
 602 88 602 88 563 49.5 c 128,-1,3
 524 11 524 11 472 -11 c 128,-1,4
 420 -33 420 -33 362 -33 c 0,5,6
 303 -33 303 -33 252 -10.5 c 128,-1,7
 201 12 201 12 163 51 c 128,-1,8
 125 90 125 90 103.5 142 c 128,-1,9
 82 194 82 194 82 252 c 256,10,11
 82 310 82 310 103.5 362 c 128,-1,12
 125 414 125 414 162 453 c 128,-1,13
 199 492 199 492 250 514.5 c 128,-1,14
 301 537 301 537 360 537 c 0,15,16
 420 537 420 537 472.5 515 c 128,-1,17
 525 493 525 493 564 454 c 128,-1,18
 603 415 603 415 625 362.5 c 128,-1,19
 647 310 647 310 647 250 c 0,0,1
529 244 m 0,20,21
 529 279 529 279 516.5 310.5 c 128,-1,22
 504 342 504 342 481.5 366 c 128,-1,23
 459 390 459 390 428.5 404.5 c 128,-1,24
 398 419 398 419 362 419 c 256,25,26
 326 419 326 419 295 405 c 128,-1,27
 264 391 264 391 241.5 367 c 128,-1,28
 219 343 219 343 206 311 c 128,-1,29
 193 279 193 279 193 244 c 0,30,31
 193 210 193 210 206.5 179 c 128,-1,32
 220 148 220 148 243 124.5 c 128,-1,33
 266 101 266 101 296.5 87 c 128,-1,34
 327 73 327 73 362 73 c 132,-1,35
 397 73 397 73 427 87 c 128,-1,36
 457 101 457 101 479.5 124.5 c 128,-1,37
 502 148 502 148 515.5 179 c 128,-1,38
 529 210 529 210 529 244 c 0,20,21
EndSplineSet
Substitution2: "VowelB-1" u16F59.B
Substitution2: "VowelR-1" u16F59.R
Substitution2: "VowelA-1" u16F59.A
Substitution2: "VowelT-1" u16F59.T
EndChar

StartChar: u16F5A
Encoding: 221 94042 85
Width: 891
VWidth: 2023
GlyphClass: 2
Flags: W
AnchorPoint: "F" 0 0 entry 0
AnchorPoint: "V" 892 0 exit 0
AnchorPoint: "V" 0 0 entry 0
LayerCount: 3
Fore
SplineSet
803 550 m 1,0,-1
 801 409 l 1,1,2
 742 408 742 408 683.5 407.5 c 128,-1,3
 625 407 625 407 566 409 c 1,4,5
 585 379 585 379 596 344.5 c 128,-1,6
 607 310 607 310 607 273 c 0,7,8
 607 217 607 217 587.5 166 c 128,-1,9
 568 115 568 115 533 76.5 c 128,-1,10
 498 38 498 38 449.5 15 c 128,-1,11
 401 -8 401 -8 344 -8 c 0,12,13
 285 -8 285 -8 237 15 c 128,-1,14
 189 38 189 38 154.5 76.5 c 128,-1,15
 120 115 120 115 101 166 c 128,-1,16
 82 217 82 217 82 273 c 0,17,18
 82 330 82 330 103.5 380.5 c 128,-1,19
 125 431 125 431 161.5 468.5 c 128,-1,20
 198 506 198 506 248 528 c 128,-1,21
 298 550 298 550 356 550 c 2,22,-1
 803 550 l 1,0,-1
453 279 m 256,23,24
 453 303 453 303 445.5 325.5 c 128,-1,25
 438 348 438 348 424 364.5 c 128,-1,26
 410 381 410 381 389.5 391 c 128,-1,27
 369 401 369 401 344 401 c 0,28,29
 320 401 320 401 299.5 390.5 c 128,-1,30
 279 380 279 380 264.5 363 c 128,-1,31
 250 346 250 346 242 324 c 128,-1,32
 234 302 234 302 234 279 c 0,33,34
 234 252 234 252 239.5 227 c 128,-1,35
 245 202 245 202 258 183.5 c 128,-1,36
 271 165 271 165 291.5 154.5 c 128,-1,37
 312 144 312 144 344 144 c 0,38,39
 371 144 371 144 391.5 156 c 128,-1,40
 412 168 412 168 425.5 187 c 128,-1,41
 439 206 439 206 446 230.5 c 128,-1,42
 453 255 453 255 453 279 c 256,23,24
EndSplineSet
Substitution2: "VowelB-1" u16F5A.B
Substitution2: "VowelR-1" u16F5A.R
Substitution2: "VowelT-1" u16F5A.T
Substitution2: "VowelA-1" u16F5A.A
EndChar

StartChar: u16F5C
Encoding: 222 94044 86
Width: 717
VWidth: 2023
GlyphClass: 2
Flags: W
AnchorPoint: "F" 0 0 entry 0
AnchorPoint: "V" 717 0 exit 0
AnchorPoint: "V" 0 0 entry 0
LayerCount: 3
Fore
SplineSet
631 247 m 0,0,1
 631 187 631 187 608 137.5 c 128,-1,2
 585 88 585 88 545.5 52.5 c 128,-1,3
 506 17 506 17 453.5 -2.5 c 128,-1,4
 401 -22 401 -22 342 -22 c 2,5,-1
 77 -22 l 1,6,-1
 77 127 l 1,7,-1
 342 127 l 2,8,9
 364 127 364 127 386.5 136.5 c 128,-1,10
 409 146 409 146 427 162 c 128,-1,11
 445 178 445 178 456 199 c 128,-1,12
 467 220 467 220 467 243 c 0,13,14
 467 277 467 277 450.5 298.5 c 128,-1,15
 434 320 434 320 406.5 331.5 c 128,-1,16
 379 343 379 343 345 347 c 128,-1,17
 311 351 311 351 276 351 c 128,-1,18
 241 351 241 351 209 349.5 c 128,-1,19
 177 348 177 348 154 348 c 1,20,-1
 154 696 l 1,21,-1
 308 696 l 1,22,-1
 308 488 l 1,23,-1
 387 488 l 2,24,25
 439 488 439 488 483 469.5 c 128,-1,26
 527 451 527 451 560 419 c 128,-1,27
 593 387 593 387 612 343 c 128,-1,28
 631 299 631 299 631 247 c 0,0,1
EndSplineSet
Substitution2: "VowelB-1" u16F5C.B
Substitution2: "VowelR-1" u16F5C.R
Substitution2: "VowelT-1" u16F5C.T
Substitution2: "VowelA-1" u16F5C.A
EndChar

StartChar: u16F5D
Encoding: 223 94045 87
Width: 710
VWidth: 2023
GlyphClass: 2
Flags: W
AnchorPoint: "F" 0 0 entry 0
AnchorPoint: "V" 711 0 exit 0
AnchorPoint: "V" 0 0 entry 0
LayerCount: 3
Fore
SplineSet
617 8 m 1,0,-1
 352 8 l 2,1,2
 293 8 293 8 243.5 29 c 128,-1,3
 194 50 194 50 158.5 86.5 c 128,-1,4
 123 123 123 123 102.5 173.5 c 128,-1,5
 82 224 82 224 82 281 c 0,6,7
 82 336 82 336 101.5 385 c 128,-1,8
 121 434 121 434 155.5 470 c 128,-1,9
 190 506 190 506 237.5 527 c 128,-1,10
 285 548 285 548 342 548 c 2,11,-1
 617 548 l 1,12,-1
 617 397 l 1,13,-1
 344 397 l 2,14,15
 321 397 321 397 300.5 387 c 128,-1,16
 280 377 280 377 265 361.5 c 128,-1,17
 250 346 250 346 241 325 c 128,-1,18
 232 304 232 304 232 281 c 0,19,20
 232 248 232 248 242 225.5 c 128,-1,21
 252 203 252 203 269.5 189.5 c 128,-1,22
 287 176 287 176 309.5 169 c 128,-1,23
 332 162 332 162 357 159.5 c 128,-1,24
 382 157 382 157 408.5 157.5 c 128,-1,25
 435 158 435 158 459 158 c 2,26,-1
 617 158 l 1,27,-1
 617 8 l 1,0,-1
EndSplineSet
Substitution2: "VowelB-1" u16F5D.B
Substitution2: "VowelR-1" u16F5D.R
Substitution2: "VowelT-1" u16F5D.T
Substitution2: "VowelA-1" u16F5D.A
EndChar

StartChar: u16F5E
Encoding: 224 94046 88
Width: 747
VWidth: 2023
GlyphClass: 2
Flags: W
AnchorPoint: "F" 0 0 entry 0
AnchorPoint: "V" 747 0 exit 0
AnchorPoint: "V" 0 0 entry 0
LayerCount: 3
Fore
SplineSet
311 111 m 6,0,-1
 655 111 l 5,1,-1
 655 -38 l 5,2,-1
 309 -38 l 6,3,4
 220 -38 220 -38 156 17 c 4,5,6
 88 75 88 75 88 165 c 132,-1,7
 88 255 88 255 163 302 c 5,8,9
 88 353 88 353 88 443 c 4,10,11
 88 530 88 530 159 584 c 4,12,13
 224 634 224 634 313 633 c 6,14,-1
 655 633 l 5,15,-1
 655 488 l 5,16,-1
 309 488 l 6,17,18
 248 488 248 488 248 433 c 4,19,20
 248 374 248 374 309 374 c 6,21,-1
 487 374 l 5,22,-1
 487 239 l 5,23,-1
 309 239 l 6,24,25
 256 239 256 239 255 173 c 4,26,27
 256 111 256 111 311 111 c 6,0,-1
EndSplineSet
Substitution2: "VowelB-1" u16F5E.B
Substitution2: "VowelR-1" u16F5E.R
Substitution2: "VowelT-1" u16F5E.T
Substitution2: "VowelA-1" u16F5E.A
EndChar

StartChar: u16F5F
Encoding: 225 94047 89
Width: 884
VWidth: 2023
GlyphClass: 2
Flags: W
AnchorPoint: "F" 0 0 entry 0
AnchorPoint: "V" 885 0 exit 0
AnchorPoint: "V" 0 0 entry 0
LayerCount: 3
Fore
SplineSet
720 87 m 0,0,1
 720 104 720 104 712.5 119.5 c 128,-1,2
 705 135 705 135 693 146.5 c 128,-1,3
 681 158 681 158 665.5 165 c 128,-1,4
 650 172 650 172 633 172 c 128,-1,5
 616 172 616 172 600.5 165 c 128,-1,6
 585 158 585 158 573.5 146.5 c 128,-1,7
 562 135 562 135 555 119.5 c 128,-1,8
 548 104 548 104 548 87 c 0,9,10
 548 69 548 69 554.5 52.5 c 128,-1,11
 561 36 561 36 572 23 c 128,-1,12
 583 10 583 10 598.5 2 c 128,-1,13
 614 -6 614 -6 633 -6 c 0,14,15
 651 -6 651 -6 667 2 c 128,-1,16
 683 10 683 10 695 23 c 128,-1,17
 707 36 707 36 713.5 52.5 c 128,-1,18
 720 69 720 69 720 87 c 0,0,1
653 526 m 1,19,-1
 307 526 l 2,20,21
 280 526 280 526 263 513 c 128,-1,22
 246 500 246 500 246 472 c 0,23,24
 246 460 246 460 251 449.5 c 128,-1,25
 256 439 256 439 264.5 430.5 c 128,-1,26
 273 422 273 422 283 417.5 c 128,-1,27
 293 413 293 413 305 413 c 2,28,-1
 485 413 l 1,29,-1
 485 277 l 1,30,-1
 305 277 l 2,31,32
 292 277 292 277 282 271.5 c 128,-1,33
 272 266 272 266 264.5 256.5 c 128,-1,34
 257 247 257 247 252.5 235.5 c 128,-1,35
 248 224 248 224 248 212 c 0,36,37
 248 182 248 182 264 167 c 0,38,39
 279 152 279 152 309 152 c 2,40,-1
 468 150 l 1,41,42
 471 151 471 151 473 155 c 0,43,44
 487 186 487 186 511.5 209.5 c 128,-1,45
 536 233 536 233 567.5 247 c 128,-1,46
 599 261 599 261 633 261 c 0,47,48
 668 261 668 261 700.5 247.5 c 128,-1,49
 733 234 733 234 758 210 c 128,-1,50
 783 186 783 186 798 154.5 c 128,-1,51
 813 123 813 123 813 87 c 0,52,53
 813 50 813 50 799 16.5 c 128,-1,54
 785 -17 785 -17 760.5 -42 c 128,-1,55
 736 -67 736 -67 703 -82 c 128,-1,56
 670 -97 670 -97 633 -97 c 132,-1,58
 596 -97 596 -97 564 -82 c 0,59,60
 543 -72 543 -72 508 -40 c 0,61,62
 492 -26 492 -26 479 0 c 1,63,-1
 305 0 l 2,64,65
 263 0 263 0 223.5 14.5 c 128,-1,66
 184 29 184 29 153.5 55.5 c 128,-1,67
 123 82 123 82 105 119 c 128,-1,68
 87 156 87 156 87 200 c 128,-1,70
 87 244 87 244 105.5 280.5 c 128,-1,71
 124 317 124 317 161 340 c 1,72,73
 125 364 125 364 106 401 c 128,-1,74
 87 438 87 438 87 482 c 0,75,76
 87 528 87 528 101 560 c 128,-1,77
 115 592 115 592 139.5 613.5 c 128,-1,78
 164 635 164 635 196 647.5 c 128,-1,79
 228 660 228 660 264.5 666.5 c 128,-1,80
 301 673 301 673 338 675 c 0,81,82
 377 677 377 677 410 676 c 2,83,-1
 651 676 l 1,84,-1
 653 526 l 1,19,-1
EndSplineSet
Substitution2: "VowelB-1" u16F5F.B
Substitution2: "VowelR-1" u16F5F.R
Substitution2: "VowelT-1" u16F5F.T
Substitution2: "VowelA-1" u16F5F.A
EndChar

StartChar: u16F60
Encoding: 226 94048 90
Width: 693
VWidth: 2023
GlyphClass: 2
Flags: W
AnchorPoint: "F" 0 0 entry 0
AnchorPoint: "V" 694 0 exit 0
AnchorPoint: "V" 0 0 entry 0
LayerCount: 3
Fore
SplineSet
614 476 m 5,0,-1
 347 476 l 6,1,2
 327 476 327 476 306 469.5 c 132,-1,3
 285 463 285 463 268 451.5 c 132,-1,4
 251 440 251 440 240.5 422.5 c 132,-1,5
 230 405 230 405 230 382 c 4,6,7
 230 361 230 361 239.5 344 c 132,-1,8
 249 327 249 327 264.5 315 c 132,-1,9
 280 303 280 303 299.5 296 c 132,-1,10
 319 289 319 289 339 289 c 6,11,-1
 535 289 l 5,12,-1
 535 -77 l 5,13,-1
 388 -77 l 5,14,-1
 388 136 l 5,15,16
 328 136 328 136 271.5 148.5 c 132,-1,17
 215 161 215 161 171.5 190.5 c 132,-1,18
 128 220 128 220 102 267 c 132,-1,19
 76 314 76 314 76 382 c 4,20,21
 76 439 76 439 98 484.5 c 132,-1,22
 120 530 120 530 157.5 561.5 c 132,-1,23
 195 593 195 593 244 610 c 132,-1,24
 293 627 293 627 347 627 c 6,25,-1
 614 627 l 5,26,-1
 614 476 l 5,0,-1
EndSplineSet
Substitution2: "VowelB-1" u16F60.B
Substitution2: "VowelR-1" u16F60.R
Substitution2: "VowelA-1" u16F60.A
Substitution2: "VowelT-1" u16F60.T
EndChar

StartChar: u16F61
Encoding: 227 94049 91
Width: 718
VWidth: 2023
GlyphClass: 2
Flags: W
AnchorPoint: "F" 0 0 entry 0
AnchorPoint: "V" 719 0 exit 0
AnchorPoint: "V" 0 0 entry 0
LayerCount: 3
Fore
SplineSet
629 -2 m 1,0,-1
 478 -2 l 1,1,-1
 478 285 l 2,2,3
 478 308 478 308 468.5 329 c 128,-1,4
 459 350 459 350 443 365.5 c 128,-1,5
 427 381 427 381 406.5 390 c 128,-1,6
 386 399 386 399 362 399 c 0,7,8
 337 399 337 399 315 390 c 128,-1,9
 293 381 293 381 276.5 365.5 c 128,-1,10
 260 350 260 350 250.5 328.5 c 128,-1,11
 241 307 241 307 241 281 c 2,12,-1
 241 -2 l 1,13,-1
 89 -2 l 1,14,-1
 89 291 l 2,15,16
 89 347 89 347 110.5 394.5 c 128,-1,17
 132 442 132 442 168 476 c 128,-1,18
 204 510 204 510 253 529 c 128,-1,19
 302 548 302 548 356 548 c 4,20,21
 414 548 414 548 464 528 c 128,-1,22
 514 508 514 508 550.5 472 c 128,-1,23
 587 436 587 436 608 386.5 c 128,-1,24
 629 337 629 337 629 279 c 2,25,-1
 629 -2 l 1,0,-1
EndSplineSet
Substitution2: "VowelB-1" u16F61.B
Substitution2: "VowelR-1" u16F61.R
Substitution2: "VowelA-1" u16F61.A
Substitution2: "VowelT-1" u16F61.T
EndChar

StartChar: u16F62
Encoding: 228 94050 92
Width: 875
VWidth: 2023
GlyphClass: 2
Flags: W
AnchorPoint: "F" 0 0 entry 0
AnchorPoint: "V" 875 0 exit 0
AnchorPoint: "V" 0 0 entry 0
LayerCount: 3
Fore
SplineSet
802 71 m 1,0,-1
 438 71 l 1,1,2
 439 97 439 97 440 122 c 128,-1,3
 441 147 441 147 441 173 c 0,4,5
 441 190 441 190 440 211.5 c 128,-1,6
 439 233 439 233 436 255.5 c 128,-1,7
 433 278 433 278 426.5 299.5 c 128,-1,8
 420 321 420 321 408.5 337.5 c 128,-1,9
 397 354 397 354 380 364 c 128,-1,10
 363 374 363 374 339 374 c 0,11,12
 316 374 316 374 297.5 364 c 128,-1,13
 279 354 279 354 266 337 c 128,-1,14
 253 320 253 320 246.5 299 c 128,-1,15
 240 278 240 278 240 257 c 2,16,-1
 240 -4 l 1,17,-1
 88 -4 l 1,18,-1
 88 257 l 2,19,20
 88 311 88 311 105.5 360 c 128,-1,21
 123 409 123 409 156 447 c 128,-1,22
 189 485 189 485 234.5 507.5 c 128,-1,23
 280 530 280 530 337 530 c 0,24,25
 392 530 392 530 437 509 c 128,-1,26
 482 488 482 488 514 452.5 c 128,-1,27
 546 417 546 417 564 369.5 c 128,-1,28
 582 322 582 322 582 269 c 2,29,-1
 582 219 l 1,30,-1
 802 217 l 1,31,-1
 802 71 l 1,0,-1
EndSplineSet
Substitution2: "VowelB-1" u16F62.B
Substitution2: "VowelR-1" u16F62.R
Substitution2: "VowelA-1" u16F62.A
Substitution2: "VowelT-1" u16F62.T
EndChar

StartChar: u16F63
Encoding: 229 94051 93
Width: 919
VWidth: 2023
GlyphClass: 2
Flags: W
AnchorPoint: "F" 0 0 entry 0
AnchorPoint: "V" 920 0 exit 0
AnchorPoint: "V" 0 0 entry 0
LayerCount: 3
Fore
SplineSet
875 -169 m 1,0,1
 905 -259 l 1,2,3
 878 -303 878 -303 788 -313 c 4,4,5
 734 -319 734 -319 665 -286 c 0,6,7
 592 -251 592 -251 594 -148 c 0,8,9
 596 -9 596 -9 672 70 c 1,10,-1
 438 71 l 1,11,12
 439 97 439 97 440 122 c 128,-1,13
 441 147 441 147 441 173 c 0,14,15
 441 190 441 190 440 211.5 c 128,-1,16
 439 233 439 233 436 255.5 c 128,-1,17
 433 278 433 278 426.5 299.5 c 128,-1,18
 420 321 420 321 408.5 337.5 c 128,-1,19
 397 354 397 354 380 364 c 128,-1,20
 363 374 363 374 339 374 c 0,21,22
 316 374 316 374 297.5 364 c 128,-1,23
 279 354 279 354 266 337 c 128,-1,24
 253 320 253 320 246.5 299 c 128,-1,25
 240 278 240 278 240 257 c 2,26,-1
 240 -4 l 1,27,-1
 88 -4 l 1,28,-1
 88 257 l 2,29,30
 88 311 88 311 105.5 360 c 128,-1,31
 123 409 123 409 156 447 c 128,-1,32
 189 485 189 485 234.5 507.5 c 128,-1,33
 280 530 280 530 337 530 c 0,34,35
 392 530 392 530 437 509 c 128,-1,36
 482 488 482 488 514 452.5 c 128,-1,37
 546 417 546 417 564 369.5 c 128,-1,38
 582 322 582 322 582 269 c 2,39,-1
 582 219 l 1,40,-1
 802 217 l 1,41,-1
 802 71 l 1,42,43
 707 -54 707 -54 707 -134 c 0,44,45
 707 -181 707 -181 766 -204 c 0,46,47
 789 -213 789 -213 809 -209 c 0,48,49
 841 -202 841 -202 875 -169 c 1,0,1
EndSplineSet
Substitution2: "VowelB-1" u16F63.B
Substitution2: "VowelR-1" u16F63.R
Substitution2: "VowelA-1" u16F63.A
Substitution2: "VowelT-1" u16F63.T
EndChar

StartChar: u16F64
Encoding: 230 94052 94
Width: 919
VWidth: 2023
GlyphClass: 2
Flags: W
AnchorPoint: "F" 0 0 entry 0
AnchorPoint: "V" 920 0 exit 0
AnchorPoint: "V" 0 0 entry 0
LayerCount: 3
Fore
SplineSet
441 173 m 1,0,1
 441 375 441 375 339 374 c 0,2,3
 295 374 295 374 266 337 c 0,4,5
 239 303 239 303 240 257 c 2,6,-1
 240 -4 l 1,7,-1
 88 -4 l 1,8,-1
 88 257 l 2,9,10
 88 368 88 368 156 447 c 0,11,12
 227 530 227 530 337 530 c 0,13,14
 444 530 444 530 514 453 c 0,15,16
 582 378 582 378 582 269 c 2,17,-1
 582 219 l 1,18,-1
 802 217 l 1,19,-1
 799 71 l 1,20,21
 783 47 l 2,22,23
 736 -26 736 -26 728 -41 c 1,24,25
 752 -25 752 -25 786 -25 c 0,26,27
 845 -25 845 -25 890.5 -61 c 128,-1,28
 936 -97 936 -97 939 -155.5 c 128,-1,29
 942 -214 942 -214 896 -253.5 c 128,-1,30
 850 -293 850 -293 783.5 -296.5 c 128,-1,31
 717 -300 717 -300 665.5 -260 c 128,-1,32
 614 -220 614 -220 614 -148 c 0,33,34
 614 -16 614 -16 699 71 c 1,35,-1
 438 71 l 1,36,-1
 441 173 l 1,0,1
858 -158 m 0,37,38
 856 -131 856 -131 833 -117.5 c 128,-1,39
 810 -104 810 -104 788 -104 c 0,40,41
 751 -104 751 -104 729 -117 c 128,-1,42
 707 -130 707 -130 705 -149 c 0,43,44
 701 -181 701 -181 730.5 -204.5 c 128,-1,45
 760 -228 760 -228 799 -217 c 0,46,47
 861 -200 861 -200 858 -158 c 0,37,38
EndSplineSet
Substitution2: "VowelB-1" u16F64.B
Substitution2: "VowelR-1" u16F64.R
Substitution2: "VowelT-1" u16F64.T
Substitution2: "VowelA-1" u16F64.A
EndChar

StartChar: u16F65
Encoding: 231 94053 95
Width: 1066
VWidth: 2023
GlyphClass: 2
Flags: W
AnchorPoint: "F" 0 0 entry 0
AnchorPoint: "V" 1066 0 exit 0
AnchorPoint: "V" 0 0 entry 0
LayerCount: 3
Fore
SplineSet
859.5 207 m 128,-1,1
 858 229 858 229 847 245 c 128,-1,2
 836 261 836 261 819 271 c 0,3,4
 785 292 785 292 750.5 292 c 128,-1,5
 716 292 716 292 696.5 287.5 c 128,-1,6
 677 283 677 283 661 274 c 0,7,8
 625 252 625 252 621 222 c 0,9,10
 619 213 619 213 619 205 c 0,11,12
 619 186 619 186 626 174 c 1,13,14
 635 155 635 155 652 142 c 0,15,16
 689 112 689 112 736 112 c 0,17,18
 758 112 758 112 781 118 c 0,19,20
 830 132 830 132 845.5 158.5 c 128,-1,0
 861 185 861 185 859.5 207 c 128,-1,1
653 399 m 0,21,22
 699 415 699 415 747 415 c 0,23,24
 801 415 801 415 841.5 400 c 128,-1,25
 882 385 882 385 914 358 c 1,26,27
 983 301 983 301 987 212 c 0,28,29
 991 121 991 121 917 57 c 0,30,31
 852 -1 852 -1 727 -8 c 0,32,33
 623 -15 623 -15 537 47 c 0,34,35
 475 92 475 92 478 217 c 1,36,-1
 478 285 l 2,37,38
 478 308 478 308 468 329 c 129,-1,40
 458 350 458 350 442.5 365.5 c 128,-1,41
 427 381 427 381 406.5 390 c 128,-1,42
 386 399 386 399 362 399 c 0,43,44
 337 399 337 399 315 390 c 128,-1,45
 293 381 293 381 276.5 365.5 c 128,-1,46
 260 350 260 350 250.5 328.5 c 128,-1,47
 241 307 241 307 241 281 c 2,48,-1
 241 -2 l 1,49,-1
 89 -2 l 1,50,-1
 89 291 l 2,51,52
 89 347 89 347 110.5 394.5 c 128,-1,53
 132 442 132 442 168 476 c 128,-1,54
 204 510 204 510 253 529 c 128,-1,55
 302 548 302 548 356 548 c 0,56,57
 414 548 414 548 464 528 c 128,-1,58
 514 508 514 508 550 472 c 0,59,60
 587 435 587 435 608 387 c 2,61,-1
 610 382 l 1,62,63
 630 391 630 391 653 399 c 0,21,22
EndSplineSet
Substitution2: "VowelB-1" u16F65.B
Substitution2: "VowelR-1" u16F65.R
Substitution2: "VowelT-1" u16F65.T
Substitution2: "VowelA-1" u16F65.A
EndChar

StartChar: u16F66
Encoding: 232 94054 96
Width: 714
VWidth: 2023
GlyphClass: 2
Flags: W
AnchorPoint: "F" 0 0 entry 0
AnchorPoint: "V" 715 0 exit 0
AnchorPoint: "V" 0 0 entry 0
LayerCount: 3
Fore
SplineSet
621 326 m 1,0,-1
 89 326 l 1,1,-1
 89 478 l 1,2,-1
 621 478 l 1,3,-1
 621 326 l 1,0,-1
621 40 m 1,4,-1
 89 40 l 1,5,-1
 89 190 l 1,6,-1
 621 190 l 1,7,-1
 621 40 l 1,4,-1
EndSplineSet
Substitution2: "VowelB-1" u16F66.B
Substitution2: "VowelR-1" u16F66.R
Substitution2: "VowelT-1" u16F66.T
Substitution2: "VowelA-1" u16F66.A
EndChar

StartChar: u16F67
Encoding: 233 94055 97
Width: 863
VWidth: 2023
GlyphClass: 2
Flags: W
AnchorPoint: "F" 0 0 entry 0
AnchorPoint: "V" 863 0 exit 0
AnchorPoint: "V" 0 0 entry 0
LayerCount: 3
Fore
SplineSet
771 0 m 1,0,-1
 623 2 l 1,1,-1
 623 346 l 2,2,3
 623 358 623 358 617.5 369 c 128,-1,4
 612 380 612 380 603.5 388.5 c 128,-1,5
 595 397 595 397 583.5 402 c 128,-1,6
 572 407 572 407 560 407 c 0,7,8
 547 407 547 407 535.5 403 c 128,-1,9
 524 399 524 399 514.5 391 c 128,-1,10
 505 383 505 383 499 372.5 c 128,-1,11
 493 362 493 362 493 348 c 2,12,-1
 493 168 l 1,13,-1
 356 168 l 1,14,-1
 356 348 l 2,15,16
 356 360 356 360 351.5 371 c 128,-1,17
 347 382 347 382 338.5 390.5 c 128,-1,18
 330 399 330 399 319.5 404 c 128,-1,19
 309 409 309 409 297 409 c 0,20,21
 268 409 268 409 255 392 c 128,-1,22
 242 375 242 375 242 348 c 2,23,-1
 242 0 l 1,24,-1
 91 2 l 1,25,-1
 90 329 l 2,26,27
 90 383 90 383 100 427.5 c 128,-1,28
 110 472 110 472 134 503 c 128,-1,29
 158 534 158 534 198.5 551.5 c 128,-1,30
 239 569 239 569 301 569 c 0,31,32
 321 569 321 569 339.5 563.5 c 128,-1,33
 358 558 358 558 374.5 547.5 c 128,-1,34
 391 537 391 537 405 523 c 128,-1,35
 419 509 419 509 431 494 c 1,36,37
 455 532 455 532 491.5 550.5 c 128,-1,38
 528 569 528 569 572 569 c 0,39,40
 618 569 618 569 654.5 550.5 c 128,-1,41
 691 532 691 532 717 501.5 c 128,-1,42
 743 471 743 471 757 431 c 128,-1,43
 771 391 771 391 771 348 c 2,44,-1
 771 0 l 1,0,-1
EndSplineSet
Substitution2: "VowelB-1" u16F67.B
Substitution2: "VowelR-1" u16F67.R
Substitution2: "VowelT-1" u16F67.T
Substitution2: "VowelA-1" u16F67.A
EndChar

StartChar: u16F68
Encoding: 234 94056 98
Width: 919
VWidth: 2023
GlyphClass: 2
Flags: W
AnchorPoint: "F" 0 0 entry 0
AnchorPoint: "V" 919 0 exit 0
AnchorPoint: "V" 0 0 entry 0
LayerCount: 3
Fore
SplineSet
826 565 m 1,0,-1
 824 212 l 2,1,2
 824 168 824 168 805.5 127.5 c 128,-1,3
 787 87 787 87 756 55.5 c 128,-1,4
 725 24 725 24 684.5 5 c 128,-1,5
 644 -14 644 -14 600 -14 c 0,6,7
 578 -14 578 -14 553 -11.5 c 128,-1,8
 528 -9 528 -9 503.5 -2 c 128,-1,9
 479 5 479 5 456 15.5 c 128,-1,10
 433 26 433 26 415.5 42 c 128,-1,11
 398 58 398 58 387.5 79 c 128,-1,12
 377 100 377 100 377 127 c 0,13,14
 377 155 377 155 380.5 183 c 128,-1,15
 384 211 384 211 388 239 c 128,-1,16
 392 267 392 267 395.5 294.5 c 128,-1,17
 399 322 399 322 399 350 c 0,18,19
 399 369 399 369 395.5 385 c 128,-1,20
 392 401 392 401 383 413 c 128,-1,21
 374 425 374 425 359.5 432 c 128,-1,22
 345 439 345 439 324 439 c 0,23,24
 301 439 301 439 285.5 422.5 c 128,-1,25
 270 406 270 406 259.5 379.5 c 128,-1,26
 249 353 249 353 243.5 320 c 128,-1,27
 238 287 238 287 236 255.5 c 128,-1,28
 234 224 234 224 233.5 196.5 c 128,-1,29
 233 169 233 169 233 154 c 0,30,31
 233 116 233 116 234.5 77 c 128,-1,32
 236 38 236 38 237 0 c 1,33,-1
 90 0 l 1,34,-1
 90 320 l 2,35,36
 90 349 90 349 98.5 380.5 c 128,-1,37
 107 412 107 412 123.5 442.5 c 128,-1,38
 140 473 140 473 162 500 c 128,-1,39
 184 527 184 527 210.5 547 c 128,-1,40
 237 567 237 567 267 579 c 128,-1,41
 297 591 297 591 328 591 c 0,42,43
 369 591 369 591 408.5 579 c 128,-1,44
 448 567 448 567 478 544 c 128,-1,45
 508 521 508 521 526.5 486.5 c 128,-1,46
 545 452 545 452 545 407 c 0,47,48
 545 384 545 384 541.5 361.5 c 128,-1,49
 538 339 538 339 534.5 316.5 c 128,-1,50
 531 294 531 294 528 271.5 c 128,-1,51
 525 249 525 249 525 227 c 0,52,53
 525 206 525 206 528.5 186.5 c 128,-1,54
 532 167 532 167 541 151.5 c 128,-1,55
 550 136 550 136 565.5 126.5 c 128,-1,56
 581 117 581 117 606 117 c 0,57,58
 632 117 632 117 646 127.5 c 128,-1,59
 660 138 660 138 666.5 154.5 c 128,-1,60
 673 171 673 171 673.5 191.5 c 128,-1,61
 674 212 674 212 674 232 c 2,62,-1
 674 565 l 1,63,-1
 826 565 l 1,0,-1
EndSplineSet
Substitution2: "VowelB-1" u16F68.B
Substitution2: "VowelR-1" u16F68.R
Substitution2: "VowelT-1" u16F68.T
Substitution2: "VowelA-1" u16F68.A
EndChar

StartChar: u16F69
Encoding: 235 94057 99
Width: 1010
VWidth: 2023
GlyphClass: 2
Flags: W
AnchorPoint: "F" 0 0 entry 0
AnchorPoint: "V" 1011 0 exit 0
AnchorPoint: "V" 0 0 entry 0
LayerCount: 3
Fore
SplineSet
747 121 m 0,0,1
 986 121 986 121 987 -81 c 0,2,3
 987 -300 987 -300 748 -302 c 1,4,5
 479 -303 479 -303 479 -71 c 1,6,7
 477 121 477 121 747 121 c 0,0,1
858 -89 m 1,8,9
 857 -1 857 -1 757 0 c 0,10,11
 620 1 620 1 619 -86 c 1,12,13
 619 -178 619 -178 757 -178 c 1,14,15
 858 -178 858 -178 858 -89 c 1,8,9
626 27 m 1,16,-1
 479 -59 l 1,17,-1
 478 285 l 2,18,19
 478 308 478 308 468 329 c 128,-1,21
 458 350 458 350 442.5 365.5 c 128,-1,22
 427 381 427 381 406.5 390 c 128,-1,23
 386 399 386 399 362 399 c 0,24,25
 337 399 337 399 315 390 c 128,-1,26
 293 381 293 381 276.5 365.5 c 128,-1,27
 260 350 260 350 250.5 328.5 c 128,-1,28
 241 307 241 307 241 281 c 2,29,-1
 241 -2 l 1,30,-1
 89 -2 l 1,31,-1
 89 291 l 2,32,33
 89 347 89 347 110.5 394.5 c 128,-1,34
 132 442 132 442 168 476 c 128,-1,35
 204 510 204 510 253 529 c 128,-1,36
 302 548 302 548 356 548 c 0,37,38
 414 548 414 548 464 528 c 128,-1,39
 514 508 514 508 550.5 472 c 128,-1,40
 587 436 587 436 608 387 c 0,41,42
 630 336 630 336 629 279 c 2,43,-1
 626 27 l 1,16,-1
EndSplineSet
Substitution2: "VowelB-1" u16F69.B
Substitution2: "VowelR-1" u16F69.R
Substitution2: "VowelT-1" u16F69.T
Substitution2: "VowelA-1" u16F69.A
EndChar

StartChar: u16F6A
Encoding: 236 94058 100
Width: 732
VWidth: 2023
GlyphClass: 2
Flags: W
AnchorPoint: "F" 0 0 entry 0
AnchorPoint: "V" 733 0 exit 0
AnchorPoint: "V" 0 0 entry 0
LayerCount: 3
Fore
SplineSet
640 396 m 0,0,1
 640 344 640 344 637.5 292 c 128,-1,2
 635 240 635 240 626 193 c 128,-1,3
 617 146 617 146 599 105.5 c 128,-1,4
 581 65 581 65 549.5 35.5 c 128,-1,5
 518 6 518 6 471.5 -11 c 128,-1,6
 425 -28 425 -28 359 -28 c 0,7,8
 288 -28 288 -28 236 -11.5 c 128,-1,9
 184 5 184 5 151 38.5 c 128,-1,10
 118 72 118 72 102.5 124.5 c 128,-1,11
 87 177 87 177 87 247 c 2,12,-1
 87 459 l 1,13,-1
 88 544 l 1,14,-1
 237 542 l 1,15,16
 238 466 238 466 238 390.5 c 128,-1,17
 238 315 238 315 239 239 c 0,18,19
 240 181 240 181 267.5 150 c 128,-1,20
 295 119 295 119 355 119 c 0,21,22
 385 119 385 119 408.5 126.5 c 128,-1,23
 432 134 432 134 448.5 148 c 128,-1,24
 465 162 465 162 473.5 184.5 c 128,-1,25
 482 207 482 207 482 239 c 2,26,-1
 482 544 l 1,27,-1
 636 542 l 1,28,29
 639 506 639 506 639.5 469.5 c 128,-1,30
 640 433 640 433 640 396 c 0,0,1
EndSplineSet
Substitution2: "VowelB-1" u16F6A.B
Substitution2: "VowelR-1" u16F6A.R
Substitution2: "VowelT-1" u16F6A.T
Substitution2: "VowelA-1" u16F6A.A
EndChar

StartChar: u16F6B
Encoding: 237 94059 101
Width: 894
VWidth: 2023
GlyphClass: 2
Flags: W
AnchorPoint: "F" 0 0 entry 0
AnchorPoint: "V" 895 0 exit 0
AnchorPoint: "V" 0 0 entry 0
LayerCount: 3
Fore
SplineSet
804 302 m 1,0,-1
 592 302 l 1,1,-1
 592 251 l 2,2,3
 592 143 592 143 521.5 67.5 c 128,-1,4
 451 -8 451 -8 340.5 -8 c 128,-1,5
 230 -8 230 -8 158 71 c 128,-1,6
 86 150 86 150 86 263 c 2,7,-1
 86 548 l 1,8,-1
 250 548 l 1,9,-1
 250 263 l 2,10,11
 250 146 250 146 346 146 c 0,12,13
 438 146 438 146 438 255 c 2,14,-1
 438 451 l 1,15,-1
 804 451 l 1,16,-1
 804 302 l 1,0,-1
EndSplineSet
Substitution2: "VowelB-1" u16F6B.B
Substitution2: "VowelR-1" u16F6B.R
Substitution2: "VowelT-1" u16F6B.T
Substitution2: "VowelA-1" u16F6B.A
EndChar

StartChar: u16F6C
Encoding: 238 94060 102
Width: 1252
VWidth: 2023
GlyphClass: 2
Flags: W
AnchorPoint: "F" 0 0 entry 0
AnchorPoint: "V" 1252 0 exit 0
AnchorPoint: "V" 0 0 entry 0
LayerCount: 3
Fore
SplineSet
438 541 m 1,0,-1
 1055 540 l 1,1,2
 1051 537 1051 537 911 398 c 0,3,4
 794 282 794 282 777 203 c 1,5,6
 777 79 777 79 922 79 c 0,7,8
 925 79 925 79 928 79 c 0,9,10
 1006 76 1006 76 1060 180 c 1,11,-1
 1175 179 l 1,12,13
 1173 87 1173 87 1102.5 26 c 128,-1,14
 1032 -35 1032 -35 928 -41 c 128,-1,15
 824 -47 824 -47 743.5 16 c 128,-1,16
 663 79 663 79 663 190 c 0,17,18
 663 314 663 314 756 391 c 1,19,-1
 592 391 l 1,20,-1
 592 251 l 2,21,22
 592 -8 592 -8 343 -8 c 0,23,24
 86 -8 86 -8 86 263 c 2,25,-1
 86 548 l 1,26,-1
 250 548 l 1,27,-1
 250 263 l 2,28,29
 250 146 250 146 347 146 c 0,30,31
 438 146 438 146 438 255 c 2,32,-1
 438 541 l 1,0,-1
EndSplineSet
Substitution2: "VowelB-1" u16F6C.B
Substitution2: "VowelR-1" u16F6C.R
Substitution2: "VowelT-1" u16F6C.T
Substitution2: "VowelA-1" u16F6C.A
EndChar

StartChar: u16F6D
Encoding: 239 94061 103
Width: 1158
VWidth: 2023
GlyphClass: 2
Flags: W
AnchorPoint: "F" 0 0 entry 0
AnchorPoint: "V" 1159 0 exit 0
AnchorPoint: "V" 0 0 entry 0
LayerCount: 3
Fore
SplineSet
944.5 228.5 m 128,-1,1
 916 246 916 246 879 246 c 128,-1,2
 842 246 842 246 815 230 c 128,-1,3
 788 214 788 214 784 182 c 128,-1,4
 780 150 780 150 809.5 126 c 128,-1,5
 839 102 839 102 866.5 102 c 128,-1,6
 894 102 894 102 923 110 c 128,-1,7
 952 118 952 118 964.5 139 c 128,-1,8
 977 160 977 160 975 185.5 c 128,-1,0
 973 211 973 211 944.5 228.5 c 128,-1,1
814 325 m 1,9,10
 844 344 844 344 905 344 c 128,-1,11
 966 344 966 344 1022 297 c 128,-1,12
 1078 250 1078 250 1078 178 c 128,-1,13
 1078 106 1078 106 1019.5 55.5 c 128,-1,14
 961 5 961 5 877.5 5 c 128,-1,15
 794 5 794 5 732.5 53.5 c 128,-1,16
 671 102 671 102 671 200 c 128,-1,17
 671 298 671 298 726 395 c 1,18,-1
 592 395 l 1,19,-1
 592 251 l 2,20,21
 592 143 592 143 521.5 67.5 c 128,-1,22
 451 -8 451 -8 340.5 -8 c 128,-1,23
 230 -8 230 -8 158 71 c 128,-1,24
 86 150 86 150 86 263 c 2,25,-1
 86 548 l 1,26,-1
 250 548 l 1,27,-1
 250 263 l 2,28,29
 250 189 250 189 306 156 c 0,30,31
 324 145 324 145 355.5 145.5 c 128,-1,32
 387 146 387 146 412.5 179 c 128,-1,33
 438 212 438 212 438 255 c 2,34,-1
 438 544 l 1,35,36
 860 544 860 544 985 541 c 1,37,38
 907 467 907 467 876 424.5 c 128,-1,39
 845 382 845 382 814 325 c 1,9,10
EndSplineSet
Substitution2: "VowelB-1" u16F6D.B
Substitution2: "VowelR-1" u16F6D.R
Substitution2: "VowelT-1" u16F6D.T
Substitution2: "VowelA-1" u16F6D.A
EndChar

StartChar: u16F6E
Encoding: 240 94062 104
Width: 858
VWidth: 2023
GlyphClass: 2
Flags: W
AnchorPoint: "F" 0 0 entry 0
AnchorPoint: "V" 858 0 exit 0
AnchorPoint: "V" 0 0 entry 0
LayerCount: 3
Fore
SplineSet
765 360 m 0,0,1
 765 325 765 325 764 284 c 128,-1,2
 763 243 763 243 757 202.5 c 128,-1,3
 751 162 751 162 739 124.5 c 128,-1,4
 727 87 727 87 705.5 58 c 128,-1,5
 684 29 684 29 650.5 11.5 c 128,-1,6
 617 -6 617 -6 569 -6 c 0,7,8
 525 -6 525 -6 488 13 c 128,-1,9
 451 32 451 32 427 69 c 1,10,11
 403 31 403 31 366 12.5 c 128,-1,12
 329 -6 329 -6 285 -6 c 256,13,14
 241 -6 241 -6 204.5 12.5 c 128,-1,15
 168 31 168 31 142 61.5 c 128,-1,16
 116 92 116 92 101.5 131 c 128,-1,17
 87 170 87 170 87 212 c 2,18,-1
 87 563 l 1,19,-1
 239 559 l 1,20,-1
 239 217 l 2,21,22
 239 188 239 188 253 171 c 128,-1,23
 267 154 267 154 297 154 c 0,24,25
 309 154 309 154 321 158 c 128,-1,26
 333 162 333 162 343 170 c 128,-1,27
 353 178 353 178 358.5 188.5 c 128,-1,28
 364 199 364 199 364 212 c 2,29,-1
 364 393 l 1,30,-1
 500 393 l 1,31,-1
 500 212 l 2,32,33
 500 200 500 200 504.5 190 c 128,-1,34
 509 180 509 180 517.5 171.5 c 128,-1,35
 526 163 526 163 536.5 158.5 c 128,-1,36
 547 154 547 154 559 154 c 0,37,38
 588 154 588 154 600.5 170.5 c 128,-1,39
 613 187 613 187 613 215 c 2,40,-1
 613 563 l 1,41,-1
 763 559 l 1,42,43
 763 509 763 509 764 459.5 c 128,-1,44
 765 410 765 410 765 360 c 0,0,1
EndSplineSet
Substitution2: "VowelB-1" u16F6E.B
Substitution2: "VowelR-1" u16F6E.R
Substitution2: "VowelT-1" u16F6E.T
Substitution2: "VowelA-1" u16F6E.A
EndChar

StartChar: u16F6F
Encoding: 241 94063 105
Width: 841
VWidth: 2023
GlyphClass: 2
Flags: W
AnchorPoint: "F" 0 0 entry 0
AnchorPoint: "V" 842 0 exit 0
AnchorPoint: "V" 0 0 entry 0
LayerCount: 3
Fore
SplineSet
757 202 m 0,0,1
 751 162 751 162 739 124.5 c 128,-1,2
 727 87 727 87 705.5 58 c 128,-1,3
 684 29 684 29 650.5 11.5 c 128,-1,4
 617 -6 617 -6 569 -6 c 0,5,6
 525 -6 525 -6 488 13 c 128,-1,7
 451 32 451 32 427 69 c 1,8,9
 403 31 403 31 366 12.5 c 128,-1,10
 329 -6 329 -6 285 -6 c 256,11,12
 241 -6 241 -6 204.5 12.5 c 128,-1,13
 168 31 168 31 142 61.5 c 128,-1,14
 116 92 116 92 101.5 131 c 128,-1,15
 87 170 87 170 87 212 c 2,16,-1
 87 563 l 1,17,-1
 239 559 l 1,18,-1
 239 217 l 2,19,20
 239 188 239 188 253 171 c 128,-1,21
 267 154 267 154 297 154 c 0,22,23
 309 154 309 154 321 158 c 128,-1,24
 333 162 333 162 343 170 c 128,-1,25
 353 178 353 178 358.5 188.5 c 128,-1,26
 364 199 364 199 364 212 c 2,27,-1
 364 557 l 1,28,-1
 500 557 l 1,29,-1
 500 212 l 2,30,31
 500 200 500 200 504.5 190 c 128,-1,32
 509 180 509 180 517.5 171.5 c 128,-1,33
 526 163 526 163 536.5 158.5 c 128,-1,34
 547 154 547 154 559 154 c 0,35,36
 588 154 588 154 600.5 170.5 c 128,-1,37
 613 187 613 187 613 215 c 2,38,-1
 613 326 l 1,39,-1
 763 322 l 1,40,41
 765 258 765 258 757 202 c 0,0,1
EndSplineSet
Substitution2: "VowelB-1" u16F6F.B
Substitution2: "VowelR-1" u16F6F.R
Substitution2: "VowelT-1" u16F6F.T
Substitution2: "VowelA-1" u16F6F.A
EndChar

StartChar: u16F70
Encoding: 242 94064 106
Width: 1016
VWidth: 2023
GlyphClass: 2
Flags: W
AnchorPoint: "F" 0 0 entry 0
AnchorPoint: "V" 1017 0 exit 0
AnchorPoint: "V" 0 0 entry 0
LayerCount: 3
Fore
SplineSet
860 153.5 m 128,-1,1
 860 233 860 233 743 233 c 0,2,3
 625 233 625 233 625 153.5 c 128,-1,4
 625 74 625 74 743 74 c 0,5,0
 860 74 860 74 860 153.5 c 128,-1,1
943 157.5 m 128,-1,7
 943 -1 943 -1 743 -1 c 0,8,9
 621 -1 621 -1 575 64 c 1,10,11
 563 48 563 48 549 35 c 0,12,13
 518 5 518 5 471.5 -11.5 c 128,-1,14
 425 -28 425 -28 359 -28 c 0,15,16
 288 -28 288 -28 236 -11.5 c 128,-1,17
 184 5 184 5 151 38.5 c 128,-1,18
 118 72 118 72 102.5 124.5 c 128,-1,19
 87 177 87 177 87 247 c 2,20,-1
 87 459 l 1,21,-1
 88 544 l 1,22,-1
 237 542 l 1,23,24
 238 466 238 466 238 390.5 c 128,-1,25
 238 315 238 315 239 239 c 0,26,27
 240 181 240 181 267.5 150 c 128,-1,28
 295 119 295 119 355 119 c 0,29,30
 385 119 385 119 408.5 126.5 c 128,-1,31
 432 134 432 134 448.5 148 c 128,-1,32
 465 162 465 162 473.5 184.5 c 128,-1,33
 482 207 482 207 482 239 c 2,34,-1
 482 544 l 1,35,-1
 636 542 l 1,36,37
 639 506 639 506 639.5 469.5 c 128,-1,38
 640 433 640 433 640 396 c 0,39,40
 640 348 640 348 638 301 c 1,41,42
 680 316 680 316 742 316 c 0,43,6
 943 316 943 316 943 157.5 c 128,-1,7
EndSplineSet
Substitution2: "VowelB-1" u16F70.B
Substitution2: "VowelR-1" u16F70.R
Substitution2: "VowelT-1" u16F70.T
Substitution2: "VowelA-1" u16F70.A
EndChar

StartChar: u16F71
Encoding: 243 94065 107
Width: 712
VWidth: 2023
GlyphClass: 2
Flags: W
AnchorPoint: "F" 0 0 entry 0
AnchorPoint: "V" 712 0 exit 0
AnchorPoint: "V" 0 0 entry 0
LayerCount: 3
Fore
SplineSet
91 548 m 1,0,-1
 356 548 l 2,1,2
 415 548 415 548 464 527 c 128,-1,3
 513 506 513 506 548.5 469.5 c 128,-1,4
 584 433 584 433 604.5 383 c 128,-1,5
 625 333 625 333 625 275 c 0,6,7
 625 220 625 220 605.5 171.5 c 128,-1,8
 586 123 586 123 551.5 86.5 c 128,-1,9
 517 50 517 50 469.5 29 c 128,-1,10
 422 8 422 8 366 8 c 2,11,-1
 91 8 l 1,12,-1
 91 160 l 1,13,-1
 364 160 l 2,14,15
 387 160 387 160 407 169.5 c 128,-1,16
 427 179 427 179 442 195 c 128,-1,17
 457 211 457 211 466 232 c 128,-1,18
 475 253 475 253 475 275 c 0,19,20
 475 308 475 308 465 330.5 c 128,-1,21
 455 353 455 353 437.5 366.5 c 128,-1,22
 420 380 420 380 397.5 387 c 128,-1,23
 375 394 375 394 350 396.5 c 128,-1,24
 325 399 325 399 299 399 c 128,-1,25
 273 399 273 399 248 399 c 2,26,-1
 91 399 l 1,27,-1
 91 548 l 1,0,-1
EndSplineSet
Substitution2: "VowelB-1" u16F71.B
Substitution2: "VowelR-1" u16F71.R
Substitution2: "VowelT-1" u16F71.T
Substitution2: "VowelA-1" u16F71.A
EndChar

StartChar: u16F72
Encoding: 244 94066 108
Width: 639
VWidth: 2023
GlyphClass: 2
Flags: W
AnchorPoint: "F" 0 0 entry 0
AnchorPoint: "V" 639 0 exit 0
AnchorPoint: "V" 0 0 entry 0
LayerCount: 3
Fore
SplineSet
376 330 m 1,0,1
 339 306 339 306 285.5 306 c 128,-1,2
 232 306 232 306 191 321 c 128,-1,3
 150 336 150 336 119 362 c 0,4,5
 50 420 50 420 46 508 c 1,6,7
 46 512 46 512 46 517 c 0,8,9
 46 603 46 603 116 664 c 1,10,11
 186 724 186 724 285 729 c 0,12,13
 295 730 295 730 304 730 c 0,14,15
 400 730 400 730 472 674 c 0,16,17
 554 609 554 609 554 498 c 0,18,19
 554 307 554 307 419 147 c 1,20,-1
 339 55 l 1,21,-1
 161 59 l 1,22,23
 259 152 259 152 290 194 c 0,24,25
 338 258 338 258 376 330 c 1,0,1
173.5 514 m 128,-1,27
 175 492 175 492 186 476 c 128,-1,28
 197 460 197 460 214 449 c 0,29,30
 248 429 248 429 282 429 c 128,-1,31
 316 429 316 429 336 433.5 c 128,-1,32
 356 438 356 438 372 447 c 0,33,34
 408 468 408 468 412 498.5 c 128,-1,35
 416 529 416 529 406.5 547.5 c 128,-1,36
 397 566 397 566 380 579 c 0,37,38
 343 609 343 609 297 609 c 0,39,40
 275 609 275 609 251 602 c 0,41,42
 203 589 203 589 187.5 562.5 c 128,-1,26
 172 536 172 536 173.5 514 c 128,-1,27
EndSplineSet
Substitution2: "VowelB-1" u16F72.B
Substitution2: "VowelR-1" u16F72.R
Substitution2: "VowelT-1" u16F72.T
Substitution2: "VowelA-1" u16F72.A
EndChar

StartChar: u16F73
Encoding: 245 94067 109
Width: 670
VWidth: 2023
GlyphClass: 2
Flags: W
AnchorPoint: "F" 0 0 entry 0
AnchorPoint: "V" 671 0 exit 0
AnchorPoint: "V" 0 0 entry 0
LayerCount: 3
Fore
SplineSet
45 716 m 1,0,-1
 312 716 l 2,1,2
 368 716 368 716 417 697 c 128,-1,3
 466 678 466 678 503 644 c 128,-1,4
 540 610 540 610 561.5 562.5 c 128,-1,5
 583 515 583 515 583 457 c 0,6,7
 583 402 583 402 562.5 356.5 c 128,-1,8
 542 311 542 311 506.5 277.5 c 128,-1,9
 471 244 471 244 423.5 225 c 128,-1,10
 376 206 376 206 322 206 c 2,11,-1
 272 206 l 1,12,-1
 274 -10 l 1,13,-1
 122 -10 l 5,14,-1
 122 358 l 1,15,-1
 320 358 l 2,16,17
 341 358 341 358 360.5 365.5 c 128,-1,18
 380 373 380 373 395.5 386 c 128,-1,19
 411 399 411 399 420.5 417.5 c 128,-1,20
 430 436 430 436 430 457 c 0,21,22
 430 481 430 481 420 501 c 128,-1,23
 410 521 410 521 393.5 535 c 128,-1,24
 377 549 377 549 356 557 c 128,-1,25
 335 565 335 565 312 565 c 2,26,-1
 45 565 l 1,27,-1
 45 716 l 1,0,-1
EndSplineSet
Substitution2: "VowelB-1" u16F73.B
Substitution2: "VowelR-1" u16F73.R
Substitution2: "VowelT-1" u16F73.T
Substitution2: "VowelA-1" u16F73.A
EndChar

StartChar: u16F74
Encoding: 246 94068 110
Width: 698
VWidth: 2023
GlyphClass: 2
Flags: W
AnchorPoint: "F" 0 0 entry 0
AnchorPoint: "V" 699 0 exit 0
AnchorPoint: "V" 0 0 entry 0
LayerCount: 3
Fore
SplineSet
621 -10 m 1,0,-1
 354 -10 l 2,1,2
 298 -10 298 -10 249 9 c 128,-1,3
 200 28 200 28 162.5 62.5 c 128,-1,4
 125 97 125 97 103.5 144.5 c 128,-1,5
 82 192 82 192 82 249 c 0,6,7
 82 304 82 304 103 350 c 128,-1,8
 124 396 124 396 159.5 429 c 128,-1,9
 195 462 195 462 242.5 481 c 128,-1,10
 290 500 290 500 344 500 c 2,11,-1
 394 500 l 1,12,-1
 392 716 l 1,13,-1
 544 716 l 1,14,-1
 544 348 l 1,15,-1
 346 348 l 2,16,17
 325 348 325 348 305 340.5 c 128,-1,18
 285 333 285 333 270 320.5 c 128,-1,19
 255 308 255 308 245.5 289.5 c 128,-1,20
 236 271 236 271 236 249 c 0,21,22
 236 225 236 225 246 205.5 c 128,-1,23
 256 186 256 186 272.5 171.5 c 128,-1,24
 289 157 289 157 310 149.5 c 128,-1,25
 331 142 331 142 354 142 c 2,26,-1
 621 142 l 1,27,-1
 621 -10 l 1,0,-1
EndSplineSet
Substitution2: "VowelB-1" u16F74.B
Substitution2: "VowelR-1" u16F74.R
Substitution2: "VowelT-1" u16F74.T
Substitution2: "VowelA-1" u16F74.A
EndChar

StartChar: u16F75
Encoding: 247 94069 111
Width: 631
VWidth: 2023
GlyphClass: 2
Flags: W
AnchorPoint: "F" 0 0 entry 0
AnchorPoint: "V" 632 0 exit 0
AnchorPoint: "V" 0 0 entry 0
LayerCount: 3
Fore
SplineSet
537 -10 m 1,0,-1
 367 -10 l 1,1,-1
 367 484 l 1,2,-1
 -5 484 l 1,3,-1
 -5 619 l 1,4,-1
 537 619 l 1,5,-1
 537 -10 l 1,0,-1
EndSplineSet
Substitution2: "VowelB-1" u16F75.B
Substitution2: "VowelR-1" u16F75.R
Substitution2: "VowelT-1" u16F75.T
Substitution2: "VowelA-1" u16F75.A
EndChar

StartChar: u16F76
Encoding: 248 94070 112
Width: 689
VWidth: 2023
GlyphClass: 2
Flags: W
AnchorPoint: "F" 0 0 entry 0
AnchorPoint: "V" 690 0 exit 0
AnchorPoint: "V" 0 0 entry 0
LayerCount: 3
Fore
SplineSet
599 -12 m 1,0,-1
 449 -10 l 1,1,-1
 447 322 l 2,2,3
 447 347 447 347 439 368 c 128,-1,4
 431 389 431 389 416.5 405 c 128,-1,5
 402 421 402 421 381.5 430 c 128,-1,6
 361 439 361 439 335 439 c 0,7,8
 300 439 300 439 277.5 425 c 128,-1,9
 255 411 255 411 243 388.5 c 128,-1,10
 231 366 231 366 227 337.5 c 128,-1,11
 223 309 223 309 224 279 c 1,12,-1
 74 283 l 1,13,14
 74 321 74 321 82 359 c 128,-1,15
 90 397 90 397 105 431 c 128,-1,16
 120 465 120 465 142 494.5 c 128,-1,17
 164 524 164 524 193 545.5 c 128,-1,18
 222 567 222 567 257.5 579 c 128,-1,19
 293 591 293 591 335 591 c 0,20,21
 396 591 396 591 445 566.5 c 128,-1,22
 494 542 494 542 528.5 501 c 128,-1,23
 563 460 563 460 581 406.5 c 128,-1,24
 599 353 599 353 599 295 c 2,25,-1
 599 -12 l 1,0,-1
EndSplineSet
Substitution2: "VowelB-1" u16F76.B
Substitution2: "VowelR-1" u16F76.R
Substitution2: "VowelT-1" u16F76.T
Substitution2: "VowelA-1" u16F76.A
EndChar

StartChar: u16F77
Encoding: 249 94071 113
Width: 705
VWidth: 2023
GlyphClass: 2
Flags: W
AnchorPoint: "F" 0 0 entry 0
AnchorPoint: "V" 706 0 exit 0
AnchorPoint: "V" 0 0 entry 0
LayerCount: 3
Fore
SplineSet
633 484 m 1,0,-1
 259 484 l 1,1,-1
 259 -10 l 1,2,-1
 91 -10 l 1,3,-1
 91 619 l 1,4,-1
 633 619 l 1,5,-1
 633 484 l 1,0,-1
EndSplineSet
Substitution2: "VowelB-1" u16F77.B
Substitution2: "VowelR-1" u16F77.R
Substitution2: "VowelT-1" u16F77.T
Substitution2: "VowelA-1" u16F77.A
EndChar

StartChar: u16F78
Encoding: 250 94072 114
Width: 700
VWidth: 2023
GlyphClass: 2
Flags: W
AnchorPoint: "F" 0 0 entry 0
AnchorPoint: "V" 700 0 exit 0
AnchorPoint: "V" 0 0 entry 0
LayerCount: 3
Fore
SplineSet
90 287 m 2,0,1
 90 344 90 344 108 397.5 c 128,-1,2
 126 451 126 451 160.5 492 c 128,-1,3
 195 533 195 533 243.5 558 c 128,-1,4
 292 583 292 583 353 583 c 0,5,6
 395 583 395 583 430.5 571 c 128,-1,7
 466 559 466 559 495.5 537.5 c 128,-1,8
 525 516 525 516 547 486 c 128,-1,9
 569 456 569 456 584 422 c 128,-1,10
 599 388 599 388 606.5 350 c 128,-1,11
 614 312 614 312 614 273 c 1,12,-1
 466 273 l 1,13,14
 467 303 467 303 462.5 331.5 c 128,-1,15
 458 360 458 360 446 382 c 128,-1,16
 434 404 434 404 411.5 417.5 c 128,-1,17
 389 431 389 431 353 431 c 0,18,19
 328 431 328 431 306.5 422 c 128,-1,20
 285 413 285 413 270 397 c 128,-1,21
 255 381 255 381 247 359.5 c 128,-1,22
 239 338 239 338 239 314 c 2,23,-1
 239 -18 l 1,24,-1
 90 -18 l 1,25,-1
 90 287 l 2,0,1
EndSplineSet
Substitution2: "VowelB-1" u16F78.B
Substitution2: "VowelR-1" u16F78.R
Substitution2: "VowelT-1" u16F78.T
Substitution2: "VowelA-1" u16F78.A
EndChar

StartChar: u16F79
Encoding: 251 94073 115
Width: 334
VWidth: 2023
GlyphClass: 2
Flags: W
AnchorPoint: "F" 0 0 entry 0
AnchorPoint: "V" 334 0 exit 0
AnchorPoint: "V" 0 0 entry 0
LayerCount: 3
Fore
SplineSet
241 6 m 1,0,-1
 91 6 l 1,1,-1
 91 546 l 1,2,-1
 239 546 l 1,3,-1
 241 6 l 1,0,-1
EndSplineSet
Substitution2: "VowelB-1" u16F79.B
Substitution2: "VowelR-1" u16F79.R
Substitution2: "VowelT-1" u16F79.T
Substitution2: "VowelA-1" u16F79.A
EndChar

StartChar: u16F7A
Encoding: 252 94074 116
Width: 685
VWidth: 2023
GlyphClass: 2
Flags: W
AnchorPoint: "F" 0 0 entry 0
AnchorPoint: "V" 686 0 exit 0
AnchorPoint: "V" 0 0 entry 0
LayerCount: 3
Fore
SplineSet
86 591 m 1,0,-1
 235 589 l 1,1,-1
 237 257 l 2,2,3
 237 232 237 232 245 211 c 128,-1,4
 253 190 253 190 267.5 174 c 128,-1,5
 282 158 282 158 302.5 149 c 128,-1,6
 323 140 323 140 349 140 c 0,7,8
 384 140 384 140 406.5 153.5 c 128,-1,9
 429 167 429 167 441 190 c 128,-1,10
 453 213 453 213 457 241.5 c 128,-1,11
 461 270 461 270 460 300 c 1,12,-1
 610 295 l 1,13,14
 610 257 610 257 602 219.5 c 128,-1,15
 594 182 594 182 579 147.5 c 128,-1,16
 564 113 564 113 542 84 c 128,-1,17
 520 55 520 55 491 33.5 c 128,-1,18
 462 12 462 12 426.5 0 c 128,-1,19
 391 -12 391 -12 349 -12 c 0,20,21
 288 -12 288 -12 239 12.5 c 128,-1,22
 190 37 190 37 155.5 78 c 128,-1,23
 121 119 121 119 103.5 172.5 c 128,-1,24
 86 226 86 226 86 283 c 2,25,-1
 86 591 l 1,0,-1
EndSplineSet
Substitution2: "VowelB-1" u16F7A.B
Substitution2: "VowelR-1" u16F7A.R
Substitution2: "VowelT-1" u16F7A.T
Substitution2: "VowelA-1" u16F7A.A
EndChar

StartChar: u16F7B
Encoding: 253 94075 117
Width: 622
VWidth: 2023
GlyphClass: 2
Flags: W
AnchorPoint: "F" 0 0 entry 0
AnchorPoint: "V" 623 0 exit 0
AnchorPoint: "V" 0 0 entry 0
LayerCount: 3
Fore
SplineSet
243 525 m 1,0,-1
 243 -7 l 1,1,-1
 91 -7 l 1,2,-1
 91 525 l 1,3,-1
 243 525 l 1,0,-1
528 525 m 1,4,-1
 528 -7 l 1,5,-1
 378 -7 l 1,6,-1
 378 525 l 1,7,-1
 528 525 l 1,4,-1
EndSplineSet
Substitution2: "VowelB-1" u16F7B.B
Substitution2: "VowelR-1" u16F7B.R
Substitution2: "VowelT-1" u16F7B.T
Substitution2: "VowelA-1" u16F7B.A
EndChar

StartChar: u16F7C
Encoding: 254 94076 118
Width: 728
VWidth: 2023
GlyphClass: 2
Flags: W
AnchorPoint: "F" 0 0 entry 0
AnchorPoint: "V" 728 0 exit 0
AnchorPoint: "V" 0 0 entry 0
LayerCount: 3
Fore
SplineSet
635 -89 m 1,0,-1
 494 -87 l 1,1,2
 493 -28 493 -28 492.5 30.5 c 128,-1,3
 492 89 492 89 494 148 c 1,4,5
 464 129 464 129 429.5 118 c 128,-1,6
 395 107 395 107 358 107 c 0,7,8
 302 107 302 107 251 126.5 c 128,-1,9
 200 146 200 146 161.5 181 c 128,-1,10
 123 216 123 216 100 264.5 c 128,-1,11
 77 313 77 313 77 370 c 0,12,13
 77 429 77 429 100 477 c 128,-1,14
 123 525 123 525 161.5 559 c 128,-1,15
 200 593 200 593 251 612 c 128,-1,16
 302 631 302 631 358 631 c 0,17,18
 415 631 415 631 465.5 610 c 128,-1,19
 516 589 516 589 553.5 552.5 c 128,-1,20
 591 516 591 516 613 466 c 128,-1,21
 635 416 635 416 635 358 c 2,22,-1
 635 -89 l 1,0,-1
364 261 m 256,23,24
 388 261 388 261 410.5 268.5 c 128,-1,25
 433 276 433 276 449.5 290 c 128,-1,26
 466 304 466 304 476 324.5 c 128,-1,27
 486 345 486 345 486 370 c 0,28,29
 486 394 486 394 475.5 414.5 c 128,-1,30
 465 435 465 435 448 449.5 c 128,-1,31
 431 464 431 464 409 472 c 128,-1,32
 387 480 387 480 364 480 c 0,33,34
 337 480 337 480 312 474.5 c 128,-1,35
 287 469 287 469 268.5 456 c 128,-1,36
 250 443 250 443 239.5 422.5 c 128,-1,37
 229 402 229 402 229 370 c 0,38,39
 229 343 229 343 241 322.5 c 128,-1,40
 253 302 253 302 272 288.5 c 128,-1,41
 291 275 291 275 315.5 268 c 128,-1,42
 340 261 340 261 364 261 c 256,23,24
EndSplineSet
Substitution2: "VowelB-1" u16F7C.B
Substitution2: "VowelR-1" u16F7C.R
Substitution2: "VowelT-1" u16F7C.T
Substitution2: "VowelA-1" u16F7C.A
EndChar

StartChar: u16F7D
Encoding: 255 94077 119
Width: 669
VWidth: 2023
GlyphClass: 2
Flags: W
AnchorPoint: "F" 0 0 entry 0
AnchorPoint: "V" 670 0 exit 0
AnchorPoint: "V" 0 0 entry 0
LayerCount: 3
Fore
SplineSet
238 380 m 1,0,1
 198 319 198 319 197 222 c 0,2,3
 197 211 197 211 200 202 c 0,4,5
 236 101 236 101 343 97 c 0,6,7
 346 97 346 97 348 97 c 0,8,9
 428 97 428 97 481 198 c 1,10,11
 539 197 539 197 596 197 c 1,12,13
 594 105 594 105 523 44 c 128,-1,14
 452 -17 452 -17 348 -23 c 0,15,16
 339 -24 339 -24 331 -23 c 0,17,18
 237 -23 237 -23 164 34 c 0,19,20
 84 97 84 97 83 208 c 0,21,22
 83 399 83 399 219 560 c 1,23,-1
 298 652 l 1,24,-1
 476 648 l 1,25,26
 435 646 435 646 332 517 c 0,27,28
 306 485 306 485 238 380 c 1,0,1
EndSplineSet
Substitution2: "yclStyle-1" u16F7D.ycl
Substitution2: "VowelB-1" u16F7D.B
Substitution2: "VowelR-1" u16F7D.R
Substitution2: "VowelT-1" u16F7D.T
Substitution2: "VowelA-1" u16F7D.A
EndChar

StartChar: u16F7E
Encoding: 256 94078 120
Width: 671
VWidth: 2023
GlyphClass: 2
Flags: W
AnchorPoint: "F" 0 0 entry 0
AnchorPoint: "V" 672 0 exit 0
AnchorPoint: "V" 0 0 entry 0
LayerCount: 3
Fore
SplineSet
262 385 m 1,0,1
 299 409 299 409 352.5 409 c 128,-1,2
 406 409 406 409 446.5 394 c 128,-1,3
 487 379 487 379 519 353 c 1,4,5
 588 296 588 296 591 207 c 0,6,7
 595 115 595 115 522 52 c 0,8,9
 453 -8 453 -8 353 -14 c 1,10,11
 245 -21 245 -21 166 41 c 0,12,13
 83 106 83 106 83 217 c 0,14,15
 83 408 83 408 219 568 c 1,16,-1
 298 660 l 1,17,-1
 476 656 l 1,18,19
 379 563 379 563 348 522 c 0,20,21
 301 457 301 457 262 385 c 1,0,1
464.5 201.5 m 128,-1,23
 463 224 463 224 452 239.5 c 128,-1,24
 441 255 441 255 423 266 c 0,25,26
 389 287 389 287 355 286.5 c 128,-1,27
 321 286 321 286 301.5 282 c 128,-1,28
 282 278 282 278 266 268 c 0,29,30
 230 246 230 246 226 216.5 c 128,-1,31
 222 187 222 187 231 168.5 c 128,-1,32
 240 150 240 150 257 136 c 0,33,34
 312 92 312 92 386 113 c 0,35,36
 435 127 435 127 450.5 153 c 128,-1,22
 466 179 466 179 464.5 201.5 c 128,-1,23
EndSplineSet
Substitution2: "VowelB-1" u16F7E.B
Substitution2: "VowelR-1" u16F7E.R
Substitution2: "VowelT-1" u16F7E.T
Substitution2: "VowelA-1" u16F7E.A
EndChar

